<svg width="63" height="63" viewBox="0 0 63 63" fill="none" xmlns="http://www.w3.org/2000/svg">
<path d="M48.1808 0H14.7492C6.60345 0 0 6.60345 0 14.7492V48.1808C0 56.3265 6.60345 62.93 14.7492 62.93H48.1808C56.3265 62.93 62.93 56.3265 62.93 48.1808V14.7492C62.93 6.60345 56.3265 0 48.1808 0Z" fill="#2B2E3A"/>
<path d="M24.7709 17.3975C18.3784 16.2333 13.3238 17.4518 11.3093 20.941C9.80613 23.5447 10.2358 26.9968 12.3516 30.6868C12.404 30.7827 12.4796 30.8639 12.5714 30.9232C12.6632 30.9824 12.7683 31.0178 12.8772 31.0262C12.9862 31.0345 13.0955 31.0156 13.1952 30.971C13.295 30.9264 13.382 30.8576 13.4485 30.7709C13.5014 30.7014 13.5399 30.6222 13.5618 30.5377C13.5837 30.4532 13.5886 30.3651 13.576 30.2787C13.5633 30.1924 13.5336 30.1095 13.4888 30.0346C11.5832 26.7107 11.2122 23.7316 12.4448 21.5966C14.1183 18.6981 18.6267 17.6111 24.5359 18.6873C24.7057 18.7156 24.8799 18.6759 25.0207 18.5769C25.1615 18.4779 25.2577 18.3275 25.2886 18.1581C25.3194 17.9888 25.2825 17.8141 25.1856 17.6718C25.0887 17.5295 24.9398 17.4309 24.7709 17.3975ZM15.6758 35.172C18.2606 38.0125 21.6188 40.6769 25.4487 42.8878C34.7217 48.2418 44.5939 49.6727 49.4592 46.3554C49.532 46.3077 49.5946 46.2459 49.6432 46.1737C49.6918 46.1014 49.7255 46.0202 49.7424 45.9348C49.7681 45.8062 49.7545 45.6728 49.7034 45.552C49.6524 45.4311 49.5661 45.3285 49.456 45.2573C49.346 45.1859 49.217 45.1491 49.0859 45.1518C48.9548 45.1545 48.8275 45.1965 48.7205 45.2723C44.366 48.2413 34.9885 46.8819 26.1043 41.7526C22.3889 39.6076 19.137 37.0275 16.6456 34.2895C16.5877 34.2255 16.5178 34.1736 16.4398 34.1366C16.3618 34.0997 16.2773 34.0785 16.1911 34.0742C16.1049 34.0699 16.0186 34.0826 15.9374 34.1118C15.8561 34.1409 15.7814 34.1858 15.7175 34.2439C15.6537 34.302 15.6019 34.3721 15.5653 34.4503C15.5286 34.5284 15.5078 34.6131 15.504 34.6993C15.5002 34.7855 15.5134 34.8717 15.5428 34.9528C15.5723 35.0339 15.6175 35.1084 15.6758 35.172Z" fill="#9FEAF9"/>
<path d="M47.9072 34.3741C52.093 29.4291 53.5544 24.4557 51.5441 20.9739C50.065 18.4117 46.9379 17.059 42.7819 17.0049C42.6534 17.005 42.5277 17.0428 42.4206 17.1137C42.3134 17.1846 42.2295 17.2855 42.1792 17.4037C42.1289 17.522 42.1145 17.6524 42.1377 17.7788C42.1609 17.9051 42.2208 18.0219 42.3099 18.1145C42.4293 18.2387 42.5927 18.3111 42.7649 18.3158C46.5026 18.3645 49.1968 19.5299 50.4089 21.6295C52.0785 24.5216 50.7752 28.9567 46.9065 33.527C46.8496 33.5925 46.8064 33.6686 46.7792 33.751C46.7521 33.8334 46.7416 33.9203 46.7484 34.0068C46.755 34.0933 46.7789 34.1774 46.8185 34.2546C46.8578 34.3319 46.9121 34.4006 46.9783 34.4567C47.0445 34.5127 47.1212 34.555 47.2039 34.581C47.2868 34.6073 47.3738 34.6169 47.4601 34.6091C47.5464 34.6012 47.6303 34.5764 47.7071 34.5363C47.7841 34.496 47.8519 34.4409 47.9072 34.3741ZM37.1499 17.6153C33.3652 18.4262 29.3367 20.0118 25.468 22.2453C15.8953 27.7721 9.65069 35.9217 10.5179 41.831C10.5294 41.917 10.5578 41.9999 10.6017 42.0748C10.6455 42.1497 10.7037 42.2152 10.7731 42.2673C10.8774 42.3462 11.0029 42.392 11.1335 42.3988C11.2641 42.4056 11.3937 42.3731 11.5056 42.3054C11.58 42.2608 11.6448 42.2018 11.6962 42.1319C11.7475 42.0619 11.7845 41.9825 11.8048 41.8981C11.8251 41.8137 11.8286 41.7262 11.8151 41.6405C11.045 36.3937 16.9643 28.6688 26.1236 23.3807C29.8765 21.2138 33.7772 19.6787 37.4245 18.8972C37.5313 18.876 37.6311 18.8285 37.715 18.7591C37.7989 18.6897 37.8642 18.6004 37.905 18.4995C37.9459 18.3985 37.9609 18.289 37.9489 18.1808C37.9368 18.0725 37.898 17.969 37.836 17.8795C37.7861 17.8082 37.7227 17.7475 37.6493 17.7008C37.5759 17.6541 37.4939 17.6225 37.4082 17.6076C37.3224 17.5932 37.2347 17.5958 37.1499 17.6153Z" fill="#9FEAF9"/>
<path d="M21.6411 45.928C23.8299 52.0391 27.4103 55.8019 31.4363 55.8019C34.3726 55.8019 37.0892 53.8002 39.2077 50.2763C39.2535 50.2025 39.2842 50.1203 39.298 50.0345C39.3118 49.9487 39.3084 49.8611 39.2881 49.7766C39.2679 49.692 39.231 49.6123 39.1796 49.5421C39.1283 49.472 39.0634 49.4128 38.9889 49.368C38.9144 49.3232 38.8316 49.2937 38.7456 49.2813C38.6595 49.2688 38.5718 49.2737 38.4877 49.2955C38.4036 49.3173 38.3246 49.3555 38.2554 49.4079C38.1861 49.4603 38.1279 49.5258 38.084 49.6008C36.1802 52.7677 33.8417 54.4907 31.4363 54.4907C28.0919 54.4907 24.8985 51.1348 22.8756 45.4863C22.848 45.4035 22.8041 45.3272 22.7465 45.2616C22.6889 45.1961 22.6188 45.1428 22.5403 45.1048C22.4222 45.0472 22.2895 45.0265 22.1594 45.0454C22.0293 45.0644 21.908 45.122 21.8112 45.211C21.747 45.27 21.6952 45.3412 21.6588 45.4204C21.6223 45.4996 21.6019 45.5852 21.5988 45.6724C21.5959 45.7596 21.6101 45.8467 21.6411 45.928ZM41.6317 44.7326C42.7649 41.1122 43.3734 36.9357 43.3734 32.5834C43.3734 21.7233 39.5722 12.3615 34.1583 9.95764C34.0001 9.89139 33.8223 9.88975 33.663 9.95306C33.5036 10.0164 33.3754 10.1396 33.3058 10.2963C33.2362 10.453 33.2308 10.6308 33.2907 10.7914C33.3506 10.9521 33.4711 11.0829 33.6263 11.1558C38.455 13.3001 42.0621 22.1847 42.0621 32.5834C42.0621 36.8059 41.4729 40.8504 40.3807 44.341C40.3399 44.4654 40.3372 44.5991 40.373 44.7249C40.4087 44.8508 40.4813 44.9632 40.5813 45.0475C40.6816 45.1315 40.8047 45.1837 40.9347 45.1974C41.0648 45.2111 41.1961 45.1857 41.3117 45.1244C41.3883 45.0836 41.4561 45.0279 41.5111 44.9606C41.5661 44.8934 41.6069 44.8159 41.6317 44.7326ZM53.9778 44.0905C53.9778 42.3577 52.5732 40.9531 50.8404 40.9531C49.1076 40.9531 47.703 42.3577 47.703 44.0905C47.703 45.8233 49.1076 47.2279 50.8404 47.2279C52.5732 47.2279 53.9778 45.8233 53.9778 44.0905ZM52.6668 44.0905C52.6668 44.3304 52.6196 44.5679 52.5277 44.7894C52.4361 45.0111 52.3016 45.2125 52.132 45.3822C51.9624 45.5519 51.7609 45.6864 51.5393 45.7781C51.2617 45.8929 50.9602 45.9375 50.6614 45.908C50.3625 45.8785 50.0755 45.7757 49.8258 45.6089C49.5761 45.442 49.3714 45.2162 49.2298 44.9513C49.0882 44.6865 49.014 44.3908 49.0139 44.0905C49.0142 43.7294 49.1214 43.3764 49.3221 43.0762C49.5229 42.776 49.8081 42.542 50.1417 42.4038C50.4754 42.2655 50.8425 42.2293 51.1967 42.2997C51.551 42.37 51.8764 42.5438 52.1319 42.799C52.3015 42.9686 52.4361 43.17 52.5278 43.3916C52.6196 43.6132 52.6668 43.8507 52.6668 44.0905ZM11.987 47.2279C13.72 47.2279 15.1247 45.8233 15.1247 44.0905C15.1247 42.3577 13.7198 40.9531 11.987 40.9531C10.2542 40.9531 8.84961 42.3577 8.84961 44.0905C8.84961 45.8233 10.2545 47.2279 11.987 47.2279ZM11.987 45.917C11.6258 45.9169 11.2728 45.8097 10.9725 45.609C10.6722 45.4083 10.4381 45.123 10.2999 44.7893C10.1616 44.4556 10.1255 44.0884 10.1959 43.7342C10.2663 43.3799 10.4401 43.0545 10.6955 42.799C10.951 42.5437 11.2764 42.3698 11.6307 42.2994C11.9849 42.229 12.3521 42.2652 12.6858 42.4034C13.0195 42.5416 13.3048 42.7757 13.5055 43.076C13.7062 43.3763 13.8134 43.7293 13.8135 44.0905C13.8135 44.5749 13.621 45.0395 13.2785 45.382C12.936 45.7245 12.4714 45.917 11.987 45.917Z" fill="#9FEAF9"/>
<path d="M31.4365 13.1579C33.1693 13.1579 34.5739 11.7532 34.5739 10.0205C34.5739 8.28767 33.1693 6.88306 31.4365 6.88306C29.7037 6.88306 28.2991 8.28767 28.2991 10.0205C28.2991 11.7532 29.7037 13.1579 31.4365 13.1579ZM31.4365 11.8469C30.952 11.8469 30.4874 11.6545 30.1449 11.3119C29.8024 10.9694 29.6099 10.5048 29.6099 10.0203C29.6099 9.5359 29.8024 9.07131 30.1449 8.72876C30.4874 8.38621 30.952 8.19377 31.4365 8.19377C31.9209 8.19377 32.3855 8.38621 32.7281 8.72876C33.0706 9.07131 33.263 9.5359 33.263 10.0203C33.263 10.5048 33.0706 10.9694 32.7281 11.3119C32.3855 11.6545 31.9209 11.8469 31.4365 11.8469ZM31.9156 34.8021C30.6902 35.0668 29.4829 34.2881 29.2177 33.0627C29.1547 32.7713 29.1497 32.4704 29.2031 32.1771C29.2564 31.8838 29.367 31.6039 29.5285 31.3533C29.69 31.1027 29.8993 30.8865 30.1445 30.7168C30.3896 30.5472 30.6657 30.4275 30.9571 30.3646C32.1825 30.0998 33.3898 30.8786 33.6552 32.104C33.92 33.3294 33.1412 34.5369 31.9156 34.8021Z" fill="#9FEAF9"/>
</svg>
