<svg width="66" height="65" viewBox="0 0 66 65" fill="none" xmlns="http://www.w3.org/2000/svg">
<g clip-path="url(#clip0_560_401)">
<path d="M23.6055 65.5078C29.6484 65.5078 34.5234 60.6328 34.5234 54.5898V43.6719H23.6055C17.5625 43.6719 12.6875 48.5469 12.6875 54.5898C12.6875 60.6328 17.5625 65.5078 23.6055 65.5078Z" fill="#0ACF83"/>
<path d="M12.6875 32.7539C12.6875 26.7109 17.5625 21.8359 23.6055 21.8359H34.5234V43.6719H23.6055C17.5625 43.6719 12.6875 38.7969 12.6875 32.7539Z" fill="#A259FF"/>
<path d="M12.6875 10.918C12.6875 4.875 17.5625 0 23.6055 0H34.5234V21.8359H23.6055C17.5625 21.8359 12.6875 16.9609 12.6875 10.918Z" fill="#F24E1E"/>
<path d="M26.3984 0H37.3164C43.3594 0 48.2344 4.875 48.2344 10.918C48.2344 16.9609 43.3594 21.8359 37.3164 21.8359H26.3984V0Z" fill="#FF7262"/>
<path d="M56.3594 32.7539C56.3594 38.7969 51.4844 43.6719 45.4414 43.6719C39.3984 43.6719 34.5234 38.7969 34.5234 32.7539C34.5234 26.7109 39.3984 21.8359 45.4414 21.8359C51.4844 21.8359 56.3594 26.7109 56.3594 32.7539Z" fill="#1ABCFE"/>
</g>
<defs>
<clipPath id="clip0_560_401">
<rect width="65" height="65" fill="white" transform="translate(0.5)"/>
</clipPath>
</defs>
</svg>
