<svg width="58" height="65" viewBox="0 0 58 65" fill="none" xmlns="http://www.w3.org/2000/svg">
<path d="M5.55829 58.5023L0.342041 0H57.6581L52.4349 58.493L28.9653 65L5.55829 58.5023Z" fill="#E44F26"/>
<path d="M29.0005 60.0276L47.9666 54.7695L52.4283 4.78455H29.0005V60.0276Z" fill="#F1662A"/>
<path d="M29.0006 26.4803H19.5059L18.8513 19.1329H29.0006V11.9574H11.0095L11.1813 13.8842L12.9433 33.6558H29.0006V26.4803ZM29.0006 45.1144L28.9681 45.1236L20.9777 42.967L20.467 37.2447H13.2636L14.2688 48.5083L28.9681 52.5894L29.0006 52.5801V45.1144Z" fill="#EBEBEB"/>
<path d="M28.9746 26.4803V33.6558H37.81L36.9789 42.9624L28.9746 45.1213V52.587L43.6855 48.5083L43.7923 47.2965L45.4776 28.407L45.6541 26.4803H28.9746ZM28.9746 11.9574V19.1329H46.3064L46.4503 17.5219L46.7776 13.8842L46.9494 11.9574H28.9746Z" fill="white"/>
</svg>
