<svg width="71" height="63" viewBox="0 0 71 63" fill="none" xmlns="http://www.w3.org/2000/svg">
<path d="M20.9292 0.00573215C19.7604 0.0454239 18.6469 0.329882 17.6408 0.909823C15.6297 2.07081 14.4291 4.20093 13.8894 6.72191C13.3502 9.24345 13.407 12.2418 13.9445 15.5974C14.1518 16.8913 14.455 18.2518 14.8056 19.6427C13.4257 20.0341 12.0955 20.4531 10.8717 20.9206C7.69635 22.1334 5.07228 23.5832 3.15825 25.3115C1.24423 27.0397 0 29.1428 0 31.4648C0 33.7868 1.24368 35.8915 3.15825 37.6192C5.07173 39.348 7.6958 40.7979 10.8711 42.0107C12.095 42.4782 13.4252 42.896 14.805 43.288C14.4544 44.6788 14.1512 46.0394 13.9439 47.3327C13.4065 50.6899 13.3508 53.6872 13.8899 56.2082C14.4302 58.7303 15.6292 60.8599 17.6402 62.0209C19.6513 63.1818 22.0945 63.1565 24.5483 62.3626C27.0014 61.5688 29.5704 60.0214 32.2082 57.8775C33.2248 57.0517 34.2518 56.1101 35.2816 55.1101C36.3103 56.1101 37.3378 57.0517 38.3544 57.8775C40.9917 60.0219 43.5595 61.5694 46.0133 62.3632C48.4664 63.157 50.9113 63.1818 52.9224 62.0214C54.9334 60.8599 56.1341 58.7303 56.6738 56.2088C57.213 53.6872 57.1551 50.6894 56.6176 47.3332C56.4103 46.0394 56.1082 44.6788 55.7576 43.288C57.1374 42.8966 58.4677 42.4776 59.6915 42.0107C62.8668 40.7984 65.4909 39.348 67.4049 37.6198C69.319 35.8915 70.5632 33.7868 70.5632 31.4648C70.5632 29.1428 69.3195 27.0392 67.4049 25.3115C65.4909 23.5838 62.8668 22.1328 59.6915 20.9206C58.4677 20.4536 57.1385 20.0341 55.7587 19.6427C56.1093 18.2518 56.4114 16.8907 56.6187 15.5974C57.1562 12.2418 57.2119 9.24345 56.6727 6.72191C56.1336 4.20038 54.934 2.07081 52.9224 0.909823C50.9108 -0.251162 48.4681 -0.225803 46.0144 0.568033C43.5612 1.36187 40.9922 2.90985 38.3544 5.05321C37.3378 5.88012 36.3092 6.82169 35.2799 7.82171C34.2507 6.82225 33.2237 5.87957 32.2071 5.05321C29.5704 2.90985 27.0036 1.36077 24.5505 0.56693C23.3233 0.170012 22.0984 -0.0339596 20.9286 0.00462968L20.9292 0.00573215ZM21.0703 3.06255C21.8035 3.0416 22.6436 3.17667 23.6061 3.48703C25.5301 4.10997 27.8372 5.45508 30.2727 7.43416C31.211 8.19602 32.1707 9.07806 33.1377 10.0196C31.1178 12.2027 29.1145 14.6851 27.1762 17.4255C23.8338 17.7342 20.6822 18.2281 17.7808 18.8863C17.4501 17.5776 17.1656 16.3064 16.9743 15.1118C16.4782 12.0136 16.4671 9.34268 16.8905 7.3647C17.3133 5.38728 18.1044 4.1855 19.175 3.56752C19.7103 3.25881 20.3371 3.0824 21.0703 3.06255ZM49.4935 3.06255C50.2267 3.08295 50.8535 3.25825 51.3887 3.56752C52.4593 4.18495 53.2504 5.38673 53.6732 7.36415C54.0961 9.34157 54.0867 12.0131 53.5905 15.1118C53.3992 16.3053 53.1153 17.5782 52.784 18.8858C49.8832 18.2281 46.731 17.7336 43.3875 17.4255C41.4493 14.6856 39.4448 12.2027 37.4249 10.0191C38.3919 9.07806 39.3528 8.19547 40.291 7.43361C42.7266 5.45343 45.0336 4.11053 46.9581 3.48758C47.9201 3.17667 48.7608 3.04215 49.494 3.0631L49.4935 3.06255ZM35.2816 12.2264C36.7249 13.8016 38.0936 15.4437 39.3831 17.1471C38.0358 17.0864 36.6725 17.0456 35.2816 17.0456C33.8913 17.0456 32.528 17.0859 31.1801 17.1471C32.469 15.4431 33.8377 13.8011 35.2816 12.2264ZM35.2816 20.114C37.4784 20.114 39.6201 20.2006 41.6951 20.3566C42.9019 22.1237 44.0418 23.9356 45.1125 25.7883C46.1818 27.6423 47.181 29.5358 48.1081 31.4648C47.181 33.3934 46.1817 35.2865 45.1125 37.1402C44.0416 38.9935 42.9015 40.8059 41.6946 42.5735C39.6201 42.7295 37.4784 42.8166 35.2821 42.8166C33.1413 42.8162 31.0012 42.7353 28.8664 42.5741C27.66 40.8062 26.5205 38.9936 25.4502 37.1402C24.3809 35.2869 23.3817 33.3942 22.4545 31.4659C23.382 29.5369 24.3816 27.6434 25.4513 25.7894C26.5221 23.9363 27.6622 22.1241 28.8692 20.3566C31.003 20.1955 33.1416 20.1146 35.2816 20.114ZM24.9325 20.7552C24.1931 21.9057 23.48 23.0729 22.7936 24.2558C22.1122 25.4414 21.4579 26.6424 20.831 27.8578C20.0002 25.8894 19.2622 23.8831 18.6193 21.8456C20.5984 21.4046 22.7054 21.0352 24.9325 20.7552ZM45.6312 20.7552C47.7515 21.0198 49.8582 21.3836 51.9444 21.8456C51.3016 23.8835 50.5635 25.8901 49.7327 27.8589C49.1059 26.643 48.4515 25.4414 47.7702 24.2552C47.0838 23.0723 46.3706 21.9052 45.6312 20.7546V20.7552ZM15.6369 22.597C16.5178 25.4382 17.6662 28.4151 19.0714 31.4637C17.6656 34.5133 16.519 37.4913 15.6369 40.3326C14.3387 39.966 13.0955 39.5751 11.9654 39.1441C9.03319 38.025 6.71508 36.6975 5.21341 35.3414C3.71228 33.9863 3.06729 32.7007 3.06729 31.4642C3.06729 30.2283 3.71228 28.9438 5.21341 27.5888C6.71508 26.2326 9.03374 24.9057 11.9654 23.7866C13.0955 23.355 14.3387 22.9636 15.6369 22.5964V22.597ZM54.9263 22.597C56.2251 22.9641 57.4687 23.3555 58.5978 23.7877C61.5305 24.9068 63.8487 26.2332 65.3503 27.5888C66.8514 28.9449 67.4964 30.2294 67.4964 31.4648C67.4964 32.7013 66.8514 33.9869 65.3503 35.3419C63.8487 36.698 61.53 38.0244 58.5983 39.1441C57.4682 39.5751 56.224 39.9654 54.9257 40.3326C54.0448 37.4919 52.897 34.515 51.4929 31.4659C52.8981 28.4162 54.0448 25.4388 54.9263 22.597ZM35.2816 25.1758C33.6138 25.1761 32.0143 25.8388 30.835 27.0182C29.6556 28.1975 28.9929 29.7969 28.9926 31.4648C28.9929 33.1327 29.6557 34.7323 30.8352 35.9116C32.0146 37.091 33.6142 37.7536 35.2821 37.7537C36.95 37.7534 38.5494 37.0908 39.7288 35.9114C40.9081 34.7321 41.5708 33.1326 41.5711 31.4648C41.5708 29.7969 40.908 28.1973 39.7286 27.018C38.5491 25.8386 36.9495 25.176 35.2816 25.1758ZM49.7327 35.0718C50.5632 37.0406 51.3008 39.0472 51.9433 41.0851C49.9654 41.5261 47.8584 41.896 45.6323 42.1766C46.3712 41.0255 47.0838 39.8578 47.7696 38.6744C48.451 37.4885 49.1059 36.2873 49.7327 35.0718ZM20.831 35.0729C21.4579 36.2881 22.1122 37.4889 22.7936 38.6744C23.4803 39.8574 24.1934 41.025 24.9325 42.1761C22.8121 41.9121 20.7053 41.548 18.6193 41.0851C19.2622 39.0476 20.0002 37.0413 20.831 35.0729ZM17.7797 44.0449C20.6805 44.702 23.8327 45.1954 27.1762 45.5036C29.1145 48.245 31.1189 50.728 33.1388 52.9127C32.1719 53.8526 31.2121 54.7347 30.2738 55.4982C27.8383 57.4772 25.529 58.8224 23.6045 59.4453C21.6805 60.0671 20.2445 59.9817 19.1739 59.3637C18.1033 58.7452 17.3133 57.5445 16.8905 55.5671C16.4671 53.5891 16.4776 50.9182 16.9743 47.8184C17.1656 46.6248 17.4484 45.3525 17.7797 44.0449ZM52.7829 44.0449C53.1137 45.3525 53.3981 46.6248 53.5894 47.8184C54.0856 50.9182 54.0966 53.5891 53.6732 55.5671C53.2504 57.5451 52.4593 58.7463 51.3887 59.3654C50.3182 59.9828 48.8826 60.0671 46.9581 59.4442C45.0336 58.8213 42.7266 57.4761 40.291 55.4971C39.3533 54.7347 38.3924 53.8526 37.4261 52.9116C39.4459 50.7285 41.4493 48.2445 43.3875 45.5036C46.7299 45.1954 49.8816 44.702 52.7829 44.0449ZM31.1801 45.7825C32.5465 45.8477 33.9142 45.8819 35.2821 45.885C36.6503 45.8819 38.0182 45.8477 39.3847 45.7825C38.0956 47.4872 36.7265 49.13 35.2821 50.7054C33.8382 49.13 32.4689 47.4872 31.1801 45.7825Z" fill="#61DAFB"/>
</svg>
