<svg width="64" height="63" viewBox="0 0 64 63" fill="none" xmlns="http://www.w3.org/2000/svg">
<path d="M12.1044 14.5947C11.894 14.3431 11.7248 14.0855 11.7279 14.023C11.7309 13.9605 11.8849 14.1068 12.0709 14.3492C12.2569 14.5916 12.6152 14.8935 12.8667 15.0216C13.1183 15.1481 13.3927 15.3311 13.4765 15.4286C13.5604 15.5247 13.818 15.6863 14.0483 15.7854C14.3196 15.9028 14.495 15.9134 14.5437 15.8143C14.5864 15.7305 14.7236 15.6619 14.8486 15.6619C14.9737 15.6619 15.0773 15.7656 15.0773 15.8906C15.0773 16.0156 15.181 16.1193 15.306 16.1193C15.431 16.1193 15.5012 16.0506 15.4585 15.9668C15.4158 15.8829 15.4509 15.8143 15.5347 15.8143C15.6186 15.8143 15.6704 15.9272 15.649 16.0659C15.6277 16.2031 15.6963 16.3403 15.8015 16.3708C15.9067 16.3998 16.018 16.3037 16.05 16.1574C16.0927 15.9683 16.114 15.9912 16.1262 16.2336C16.1384 16.4684 16.05 16.5888 15.8411 16.6147C15.5606 16.6498 15.5652 16.665 15.893 16.8053C16.1598 16.9196 16.2345 16.9105 16.1964 16.7672C16.1674 16.662 16.2131 16.5431 16.297 16.5004C16.3808 16.4577 16.4494 16.5278 16.4494 16.6528C16.4494 16.7779 16.518 16.8815 16.6019 16.8815C16.6857 16.8815 16.7711 16.8099 16.7925 16.7215C16.8199 16.6086 17.0471 16.6086 17.5547 16.7215C17.9527 16.8099 18.3643 16.8297 18.4695 16.7672C18.5747 16.7047 19.0656 16.6452 19.5595 16.6346C20.055 16.6239 20.552 16.6757 20.6649 16.7489C20.7777 16.8221 20.956 16.8312 21.0612 16.7702C21.1664 16.7108 21.3722 16.6757 21.5186 16.694C21.7122 16.7199 21.761 16.6559 21.6955 16.4623C21.6365 16.2875 21.6492 16.2621 21.7336 16.386C21.8037 16.4912 22.1711 16.6178 22.5477 16.6681C23.092 16.7413 23.2139 16.7184 23.1392 16.5538C23.0706 16.4059 23.1895 16.3373 23.5585 16.3098C23.9305 16.2824 24.0722 16.3342 24.0722 16.5004C24.0722 16.6528 24.212 16.7225 24.4915 16.7093C24.7217 16.6971 25.0312 16.7321 25.1776 16.7855C25.3239 16.8373 25.4733 16.8297 25.5084 16.7672C25.5419 16.7047 25.8682 16.665 26.2326 16.6803C26.6061 16.6971 26.9415 16.63 27.004 16.5278C27.0792 16.4089 27.1173 16.4379 27.1183 16.6147C27.1198 16.7611 27.036 16.88 26.9308 16.877C26.8256 16.8754 26.7921 16.909 26.8546 16.9532C26.9171 16.9974 27.1229 16.9532 27.3119 16.8526C27.501 16.7535 27.7922 16.6711 27.9599 16.6696C28.1276 16.6681 28.3685 16.7276 28.4935 16.8023C28.6429 16.8922 28.7359 16.8754 28.7603 16.758C28.7816 16.6574 28.9356 16.5766 29.1033 16.5766C29.271 16.5766 29.4097 16.4912 29.4113 16.386C29.4113 16.256 29.4494 16.2478 29.5256 16.3617C29.5866 16.4531 29.8763 16.572 30.1705 16.6254C30.6965 16.7215 30.698 16.7184 29.9418 16.2824L30.323 16.2549C30.5318 16.2397 30.9739 16.2199 31.3048 16.2107C31.6722 16.2016 32 16.29 32.1433 16.4379C32.2744 16.5705 32.5016 16.726 32.6479 16.7809C32.7943 16.8358 32.9147 16.8129 32.9147 16.7291C32.9147 16.6452 32.811 16.5431 32.686 16.5004C32.561 16.4577 32.4573 16.3556 32.4573 16.2717C32.4573 16.1772 32.8522 16.1482 33.4864 16.194C34.052 16.2336 34.5506 16.3007 34.5917 16.3418C34.6329 16.383 34.7884 16.3495 34.9348 16.2671C35.0811 16.1863 35.2031 16.1711 35.2046 16.2336C35.2061 16.2961 35.1238 16.4333 35.0217 16.5385C34.8738 16.6894 34.921 16.7291 35.2473 16.7291C35.4744 16.7291 35.6879 16.8145 35.7229 16.9196C35.758 17.0248 35.7931 16.9898 35.7992 16.8434C35.8053 16.6971 35.88 16.5766 35.9638 16.5766C36.0477 16.5766 36.1178 16.662 36.1209 16.7672C36.1239 16.8831 36.1986 16.8556 36.3114 16.6971C36.4136 16.5538 36.5828 16.4333 36.688 16.4303C36.7932 16.4272 36.8786 16.4928 36.8786 16.5766C36.8786 16.6605 36.9822 16.6955 37.1073 16.6528C37.2323 16.6102 37.3359 16.6452 37.3359 16.7291C37.3359 16.8129 37.4213 16.8831 37.5265 16.8861C37.6317 16.8876 37.8375 16.9898 37.9839 17.1148C38.1912 17.2886 38.2766 17.2962 38.365 17.1499C38.4402 17.0248 38.4148 16.9994 38.2888 17.0736C38.1714 17.1422 38.0677 17.0828 38.0205 16.9196C37.9778 16.7733 37.961 16.6376 37.9824 16.6193C38.0037 16.5995 38.2446 16.7885 38.5175 17.0386C38.7904 17.2871 39.0983 17.4898 39.2035 17.4883C39.3306 17.4873 39.3179 17.4375 39.1654 17.3389C38.9703 17.2124 38.9748 17.191 39.2035 17.1895C39.3499 17.188 39.5557 17.281 39.6609 17.3953C39.7661 17.5097 40.0405 17.5783 40.2707 17.5478C40.6198 17.5005 40.6717 17.5356 40.5787 17.7582C40.4994 17.9472 40.5223 17.9914 40.6549 17.9106C40.7586 17.8481 40.8424 17.8649 40.8424 17.9487C40.8424 18.0326 40.9796 18.1012 41.1473 18.1012C41.315 18.1012 41.4523 18.0326 41.4523 17.9487C41.4523 17.8649 41.3669 17.8344 41.2617 17.8816C41.1565 17.9274 41.0193 17.842 40.9552 17.6911C40.8912 17.5386 40.876 17.3816 40.9217 17.3389C40.9659 17.2962 41.001 17.348 40.9995 17.4532C40.9964 17.5584 41.0803 17.6438 41.1855 17.6423C41.2906 17.6423 41.5468 17.8435 41.7572 18.0905C42.0514 18.4381 42.1795 18.4991 42.3197 18.3588C42.4585 18.2186 42.5515 18.2292 42.7283 18.4061C42.9067 18.5845 42.9174 18.682 42.7771 18.8482C42.6323 19.0174 42.6429 19.0449 42.8244 18.9793C42.9494 18.9351 43.2589 19.0693 43.5104 19.2781C43.762 19.4885 43.8641 19.612 43.7391 19.5556C43.5775 19.4809 43.5851 19.5099 43.7635 19.6532C43.9022 19.763 44.1584 20.1639 44.3322 20.5405C44.506 20.917 44.6493 21.3302 44.6523 21.4552C44.6554 21.6443 44.5044 21.6656 43.7787 21.5818C43.2955 21.5253 42.5225 21.3195 42.0621 21.1229C41.6017 20.9277 40.8805 20.5649 40.4613 20.3179C40.042 20.0694 39.2188 19.7065 38.6318 19.5129C38.0449 19.3178 36.9822 19.0921 36.2687 19.0129C35.4882 18.926 31.2697 18.9077 25.673 18.9671C18.3277 19.0464 16.1643 19.0266 15.3822 18.8696C14.78 18.7491 14.0772 18.4701 13.5909 18.1576C13.1503 17.8755 12.7463 17.4898 12.6929 17.3008C12.6396 17.1117 12.5771 16.8541 12.5527 16.7291C12.5283 16.6041 12.5039 16.1741 12.4978 15.7762C12.4886 15.2381 12.388 14.9347 12.1044 14.5947Z" fill="#312F38"/>
<path d="M50.2368 28.5063C50.2459 28.36 50.3709 27.616 50.5127 26.8552C50.685 25.9283 50.8375 25.474 50.9701 25.4831C51.0814 25.4892 51.1424 25.5639 51.1088 25.6478C51.0753 25.7316 51.3939 25.8521 51.8147 25.9146C52.2782 25.9832 52.763 26.1798 53.0389 26.41C53.3591 26.6768 53.6792 26.7912 54.1061 26.7912C54.4415 26.7912 54.9385 26.901 55.2114 27.0336C55.6779 27.2623 55.7435 27.2577 56.3167 26.9574C56.6521 26.782 57.2345 26.5716 57.6126 26.4924C57.9907 26.4131 58.6188 26.2591 59.0091 26.1493C59.3994 26.0411 59.7699 25.9008 59.8339 25.8383C59.8979 25.7758 60.1785 25.724 60.459 25.724C60.738 25.724 60.9666 25.7926 60.9666 25.8764C60.9666 25.9649 61.4743 26.0289 63.4059 26.0289V39.75L62.9105 39.6631C62.6376 39.6143 62.0887 39.5457 61.6908 39.5106C60.9773 39.4466 60.9666 39.4374 60.9285 38.8794C60.8919 38.3443 60.8599 38.3123 60.3187 38.2696C59.8918 38.2361 59.747 38.2833 59.747 38.4541C59.747 38.5791 59.6616 38.727 59.5564 38.7819C59.4512 38.8352 59.1265 38.9038 58.8323 38.9328L58.7798 38.938C58.4492 38.9705 57.6776 39.0465 57.0028 39.1142C56.2893 39.1843 55.5697 39.3155 55.402 39.4054C55.2343 39.4938 54.7541 39.6219 54.3348 39.6875C53.7448 39.7805 53.4246 39.9466 52.9139 40.4269C52.266 41.0336 52.2553 41.0596 52.3498 41.8081C52.4017 42.2274 52.5084 42.7762 52.5861 43.0278C52.6624 43.2793 52.763 43.9135 52.8057 44.438C52.8651 45.1423 52.8362 45.3908 52.6959 45.3878C52.545 45.3863 52.545 45.4259 52.6989 45.5784C52.8041 45.6851 52.891 45.9946 52.8895 46.2675C52.888 46.577 52.7584 46.8895 52.2004 47.4353L52.5434 47.3286C52.859 47.2295 52.8712 47.2462 52.6959 47.5435C52.5907 47.7219 52.4291 48.0131 52.3361 48.1915C52.1669 48.5147 52.1654 48.5147 51.8787 48.1137C51.7202 47.8911 51.3329 47.292 51.0189 46.7797C50.7048 46.2675 50.3953 45.8741 50.3328 45.9061C50.2703 45.9382 50.2185 45.8513 50.2185 45.7156C50.2185 45.5784 50.1331 45.4838 50.0279 45.5052C49.9227 45.5265 49.8724 45.4747 49.9136 45.3908C49.9547 45.307 49.9212 45.1012 49.8373 44.9335C49.7474 44.7536 49.6071 44.6712 49.4943 44.7338C49.3449 44.8161 49.3434 44.7917 49.4852 44.6194C49.6178 44.4593 49.63 44.13 49.5294 43.4089C49.4532 42.8646 49.3129 42.0749 49.2168 41.6557C49.1208 41.2364 48.9394 40.654 48.8144 40.3598C48.6878 40.0655 48.3936 39.5868 48.1603 39.2926C47.8966 38.9618 47.2791 38.5364 46.5382 38.1736C45.8781 37.8519 45.2545 37.6293 45.1493 37.6781C45.0365 37.7314 44.9908 37.6903 45.038 37.5775C45.0807 37.4723 44.8063 36.8899 44.4282 36.2816C43.8184 35.3043 43.7742 35.1763 44.044 35.1763C44.2117 35.1763 44.3535 35.2617 44.3596 35.3668C44.3657 35.472 44.4297 35.4202 44.5014 35.2525C44.6127 34.9918 44.634 34.9857 44.6432 35.2144C44.6508 35.408 44.727 35.4507 44.9206 35.3699C45.1097 35.2906 45.1539 35.3135 45.0731 35.4461C45.006 35.5574 45.0365 35.6245 45.1493 35.6123C45.2545 35.6001 45.5792 35.684 45.8735 35.7983C46.1677 35.9111 46.4589 35.9904 46.5214 35.9721C46.5839 35.9538 46.6358 36.0072 46.6358 36.091C46.6358 36.1926 46.8009 36.1926 47.1312 36.091C47.4041 36.0072 47.8661 35.9386 48.1603 35.9386C48.4546 35.9386 48.9257 35.8181 49.2092 35.6718C49.598 35.4705 49.813 35.19 50.0858 34.5283C50.284 34.0466 50.4822 33.2233 50.5264 32.6989C50.5691 32.1744 50.6377 31.592 50.6789 31.403C50.7185 31.2139 50.6835 31.06 50.5996 31.06C50.5158 31.06 50.4472 30.8877 50.4472 30.6788C50.4472 30.4684 50.5158 30.2977 50.5996 30.2977C50.685 30.2977 50.7018 30.1955 50.6377 30.0675C50.5386 29.8678 50.4929 29.8662 50.2947 30.0522C50.0965 30.2397 50.0355 30.2367 49.8373 30.0278C49.6315 29.8113 49.6468 29.7991 49.9898 29.9089C50.2063 29.9775 50.3206 29.9729 50.2566 29.8967C50.1926 29.8235 50.2612 29.633 50.4091 29.4714C50.5554 29.3098 50.6073 29.2198 50.5234 29.2701C50.4395 29.322 50.2856 29.2305 50.1804 29.0689C50.0752 28.9058 50.0416 28.7731 50.1041 28.7731C50.1666 28.7731 50.2261 28.6527 50.2368 28.5063Z" fill="#312F38"/>
<path d="M1.81364 26.1814C2.48445 26.1814 3.01957 26.125 3.0028 26.0548C2.98603 25.9862 3.20862 25.9603 3.49828 25.9984C3.78795 26.0365 4.12183 26.1448 4.24227 26.2393C4.36119 26.3323 4.60207 26.4222 4.77587 26.436C4.94967 26.4512 5.67383 26.6021 6.38733 26.7729C7.0993 26.9436 8.26559 27.1632 8.97908 27.2623C9.69106 27.3598 10.7201 27.5336 11.2659 27.6465C11.8102 27.7593 13.0116 27.93 13.9339 28.0261C14.8791 28.1237 15.893 28.3249 16.2589 28.4865C16.6156 28.6435 17.4389 28.8128 18.0883 28.8615C18.7378 28.9103 19.4757 29.0216 19.7272 29.107C19.9788 29.1924 20.4072 29.3753 20.6786 29.5141C20.9621 29.6574 21.2472 29.9592 21.3448 30.2214C21.4393 30.473 21.6055 30.8846 21.7138 31.1362C21.822 31.3877 22.2595 31.9198 22.6864 32.3177C23.2337 32.8284 23.5524 33.019 23.7673 32.9657C23.9792 32.9123 24.0402 32.9474 23.9701 33.08C23.9137 33.1852 23.8741 33.4764 23.8832 33.7279C23.8908 33.9795 23.8176 34.2844 23.7185 34.4048C23.5783 34.5771 23.5813 34.6015 23.7292 34.5192C23.8344 34.4613 23.9457 34.4994 23.9762 34.6046C24.0067 34.7098 23.9838 34.9323 23.9228 35.1C23.8634 35.2677 23.7018 35.4568 23.563 35.5193C23.4243 35.5818 23.3023 35.7876 23.2917 35.9767C23.2795 36.2191 23.2581 36.2419 23.2154 36.0529C23.1834 35.9065 23.1179 35.7861 23.0706 35.7861C23.0218 35.7861 22.8846 35.8898 22.7657 36.0148C22.6453 36.1398 22.5812 36.2785 22.6239 36.3197C22.6651 36.3609 22.6224 36.5164 22.5279 36.6627C22.4029 36.8563 22.3983 37.2832 22.5126 38.2254C22.6148 39.07 22.6163 39.628 22.5202 39.8262C22.4394 39.9939 22.0857 40.3171 21.7351 40.5458C21.2625 40.8522 20.9042 40.9605 20.3371 40.9635C19.9178 40.965 18.9909 40.8949 18.2789 40.8065C17.5654 40.7165 16.5363 40.6205 15.9921 40.59C15.4463 40.561 14.3837 40.4939 13.629 40.4436C12.8743 40.3918 11.365 40.1372 10.275 39.878C9.1849 39.6188 8.15582 39.3505 7.98812 39.285C7.82042 39.2179 7.37372 39.1203 6.99715 39.0654C6.61906 39.0121 6.2242 38.8871 6.11748 38.788C6.01076 38.6873 5.87355 38.6569 5.81257 38.7194C5.75159 38.7803 5.61895 38.7117 5.51985 38.5669C5.37197 38.3504 5.28812 38.3352 5.06249 38.483C4.83685 38.6325 4.69811 38.605 4.30325 38.3306C4.03645 38.1476 3.64312 38.0135 3.42663 38.0348C3.07598 38.0684 3.03329 38.1385 3.03329 38.6828C3.03329 39.1234 2.96926 39.2926 2.80461 39.2926C2.67807 39.2926 2.24967 39.3978 1.85176 39.5258C1.45385 39.6539 1.00715 39.8262 0.860792 39.907C0.607715 40.0472 0.593994 39.6798 0.593994 26.1814H1.81364Z" fill="#312F38"/>
<path d="M57.8825 9.00857C57.8626 8.87136 57.9755 8.67164 58.134 8.56492C58.3398 8.42618 58.5091 8.41551 58.7408 8.52833C58.9161 8.61523 59.3354 8.67926 59.6708 8.67316C60.0062 8.66706 60.6236 8.59693 61.0429 8.51918C61.581 8.41856 61.8677 8.42771 62.0155 8.5512C62.1314 8.64725 62.2915 8.89575 62.3708 9.10614C62.4516 9.315 62.6543 10.0361 62.8205 10.7069C63.0065 11.4524 63.1773 12.8749 63.2596 14.3659C63.3343 15.7075 63.3968 18.8801 63.4059 26.0288H62.1863C61.4743 26.0288 60.9666 25.9647 60.9666 25.8763C60.9666 25.7925 60.738 25.7239 60.459 25.7239C60.1785 25.7239 59.8979 25.7757 59.8339 25.8382C59.7699 25.9007 59.3994 26.041 59.0091 26.1492C58.6188 26.259 57.9907 26.413 57.6126 26.4922C57.2345 26.5715 56.6521 26.7819 56.3167 26.9572C55.7435 27.2576 55.6779 27.2621 55.2114 27.0335C54.9385 26.9008 54.4415 26.7911 54.1061 26.7911C53.6792 26.7911 53.3591 26.6767 53.0389 26.4099C52.763 26.1797 52.2782 25.983 51.8147 25.9144C51.2903 25.8367 51.0738 25.7406 51.1287 25.6095C51.1729 25.5043 51.1408 25.4525 51.057 25.4952C50.9594 25.544 50.9228 25.0927 50.9579 24.2374C50.9869 23.5041 50.9167 22.2174 50.8039 21.3789C50.6911 20.5404 50.5646 19.8375 50.5234 19.8162C50.4807 19.7948 50.6972 19.5204 51.0021 19.2064C51.307 18.8923 51.6562 18.3953 51.7781 18.1011C51.9016 17.8068 52.0342 17.1208 52.0724 16.5765C52.1211 15.9209 52.0617 15.302 51.9001 14.747C51.7644 14.2851 51.6622 13.4969 51.6714 12.9938C51.6821 12.4907 51.7751 11.8732 51.8787 11.6217C51.9839 11.3701 52.2355 11.0073 52.4398 10.8152C52.6441 10.6231 53.0847 10.3243 53.4201 10.1505C53.7555 9.97666 54.3897 9.70529 54.8303 9.54674C55.2709 9.38818 55.6825 9.28451 55.745 9.31653C55.8075 9.34854 56.2375 9.25402 56.6979 9.10766C57.387 8.88813 57.5425 8.87745 57.5745 9.04973C57.5958 9.16407 57.6812 9.25859 57.7651 9.25859C57.8489 9.25859 57.9023 9.14578 57.8825 9.00857Z" fill="#36343C"/>
<path d="M1.12607 11.0881C1.25413 10.4584 1.51026 9.64431 1.69473 9.27689L2.03013 8.61066L3.63702 8.725C4.52127 8.78751 5.39179 8.84849 5.57321 8.85916C5.75464 8.86831 5.96045 8.93081 6.03058 8.99637C6.10071 9.06193 6.24402 9.11224 6.34922 9.11071C6.45441 9.10766 6.94837 9.39733 7.4469 9.75408C8.11008 10.2282 8.42719 10.5789 8.62844 11.0637C8.82053 11.5256 9.0858 11.8321 9.51268 12.0806C9.84809 12.2772 10.4152 12.4937 10.7735 12.5638C11.33 12.6706 11.4245 12.7437 11.4291 13.07C11.4306 13.2789 11.5495 13.6646 11.6928 13.9268C11.8346 14.189 12.0678 14.5656 12.2081 14.7653C12.356 14.9757 12.4795 15.4819 12.5008 15.9667C12.5222 16.4286 12.6121 17.0049 12.7021 17.2503C12.8012 17.5187 13.1686 17.8891 13.629 18.1834C14.0772 18.47 14.7999 18.7536 15.3822 18.8694C16.1643 19.0265 18.3277 19.0463 25.673 18.967C31.2697 18.9075 35.4882 18.9258 36.2687 19.0127C36.9807 19.092 38.0449 19.3177 38.6318 19.5128C39.2188 19.7064 40.042 20.0693 40.4613 20.3178C40.8805 20.5647 41.6001 20.9276 42.0621 21.1227C42.5225 21.3194 43.2955 21.5252 43.7787 21.5816C44.262 21.638 44.6615 21.7524 44.6676 21.8362C44.6721 21.9201 44.7072 22.1259 44.7438 22.2936C44.7804 22.4613 44.8124 23.1123 44.8154 23.7419C44.8185 24.3701 44.7575 25.0561 44.6813 25.2665C44.5715 25.5699 44.3596 25.6934 43.6446 25.8717C43.1521 25.9952 42.1993 26.3779 41.5285 26.7209C40.8577 27.0655 39.9658 27.4603 39.5466 27.5991C39.1273 27.7378 38.1668 27.9314 37.4122 28.029C36.6575 28.1281 34.3585 28.2196 32.3049 28.2348C29.7924 28.2531 28.4569 28.3217 28.2267 28.4422C28.0376 28.5397 27.6946 28.6175 27.4644 28.6129C27.1686 28.6083 26.8881 28.7776 26.5115 29.1846C26.2173 29.5033 25.8407 30.0719 25.673 30.4485C25.5053 30.825 25.1349 31.3404 24.8482 31.5919C24.5632 31.845 24.2369 32.2734 24.1241 32.5463C24.0113 32.8192 23.8161 33.0418 23.6911 33.0418C23.5646 33.0418 23.1133 32.7155 22.6864 32.3176C22.2595 31.9197 21.822 31.3876 21.7138 31.1361C21.6055 30.8845 21.4393 30.4729 21.3448 30.2213C21.2472 29.9591 20.9621 29.6572 20.6786 29.5139C20.4072 29.3752 19.9788 29.1922 19.7272 29.1069C19.4757 29.0215 18.7378 28.9102 18.0883 28.8614C17.4389 28.8126 16.6156 28.6434 16.2589 28.4864C15.893 28.3248 14.8791 28.1235 13.9339 28.026C13.0116 27.9299 11.8102 27.7592 11.2659 27.6463C10.7201 27.5335 9.69106 27.3597 8.97908 27.2621C8.26559 27.163 7.0993 26.9435 6.38733 26.7728C5.67383 26.602 4.94967 26.4511 4.77587 26.4358C4.60207 26.4221 4.36119 26.3322 4.24227 26.2392C4.12183 26.1446 3.80167 26.041 3.5303 26.0105C3.25893 25.9785 3.03634 26.0044 3.03482 26.0669C3.03329 26.1294 2.48445 26.1812 0.593994 26.1812L0.601617 22.7129C0.606191 20.8056 0.673271 17.6666 0.749499 15.738C0.828777 13.7698 0.993429 11.7299 1.12607 11.0881Z" fill="#36343C"/>
<path d="M47.6435 41.3384C46.648 39.7514 45.6997 38.2649 45.5396 38.0332C45.378 37.803 45.2835 37.6139 45.3307 37.6139C45.3765 37.6139 45.9375 37.8716 46.5748 38.1856C47.2776 38.5332 47.9011 38.9677 48.1588 39.2909C48.3921 39.5852 48.6894 40.0654 48.8174 40.3581C48.944 40.6524 49.1543 41.407 49.2824 42.0352C49.4105 42.6648 49.5538 43.4881 49.601 43.8646C49.6498 44.2427 49.6361 44.4775 49.5721 44.3876C49.508 44.2991 48.6406 42.927 47.6435 41.3384Z" fill="#36343C"/>
<path d="M14.048 15.7854C13.8178 15.6863 13.5602 15.5491 13.4763 15.4835C13.3925 15.4164 13.9413 15.4012 14.696 15.45C15.4506 15.4988 18.8458 15.5445 22.2425 15.5521C25.6393 15.5613 28.76 15.5552 29.1793 15.5415C29.5985 15.5262 30.1809 15.5155 30.4752 15.5155C30.7694 15.5171 31.9006 15.5186 32.9907 15.5216C34.0808 15.5247 35.5901 15.5567 36.3447 15.5918C37.0994 15.6284 37.8205 15.6802 37.9455 15.7092C38.0705 15.7366 38.4136 15.8143 38.7078 15.8814C39.002 15.9485 39.31 16.0446 39.3939 16.0949C39.4777 16.1452 39.65 16.2046 39.775 16.226C39.9 16.2473 40.3665 16.4547 40.8087 16.6864C41.2508 16.9197 41.6106 17.1621 41.609 17.2246C41.606 17.2871 41.6898 17.3389 41.795 17.3374C41.9002 17.3374 42.0939 17.4563 42.228 17.6042C42.3607 17.7521 42.6351 18.0219 42.8378 18.2049C43.0391 18.3878 43.3089 18.6577 43.4339 18.804C43.559 18.9504 43.7816 19.2461 43.9279 19.4626C44.0743 19.6776 44.1947 19.9063 44.1947 19.9688C44.1962 20.0313 44.0926 19.9795 43.9675 19.8544C43.8425 19.7279 43.7389 19.5907 43.7389 19.5495C43.7389 19.5068 43.5849 19.3437 43.3958 19.1852C43.2068 19.0266 42.9491 18.9336 42.8241 18.9793C42.6412 19.0449 42.632 19.0175 42.7769 18.8482C42.9171 18.682 42.9064 18.5845 42.7281 18.4061C42.5512 18.2293 42.4582 18.2186 42.3195 18.3588C42.1792 18.4991 42.0512 18.4381 41.7569 18.0905C41.5481 17.8435 41.2904 17.6423 41.1852 17.6423C41.08 17.6438 40.9962 17.5584 40.9992 17.4533C41.0007 17.3481 40.9657 17.2962 40.9215 17.3389C40.8757 17.3801 40.891 17.5386 40.955 17.6911C41.019 17.842 41.1562 17.9274 41.2614 17.8817C41.3666 17.8344 41.452 17.8649 41.452 17.9487C41.452 18.0326 41.3148 18.1012 41.1471 18.1012C40.9794 18.1012 40.8422 18.0326 40.8422 17.9487C40.8422 17.8649 40.7583 17.8481 40.6547 17.9106C40.522 17.9914 40.4992 17.9472 40.5784 17.7582C40.6714 17.5356 40.6196 17.5005 40.2705 17.5478C40.0403 17.5783 39.7659 17.5097 39.6607 17.3953C39.5555 17.281 39.3496 17.188 39.2033 17.1895C38.9746 17.191 38.97 17.2124 39.1652 17.3389C39.3176 17.4375 39.3303 17.4873 39.2033 17.4883C39.0981 17.4898 38.7901 17.2871 38.5172 17.0386C38.2443 16.7885 38.0035 16.5995 37.9821 16.6193C37.9608 16.6376 37.9775 16.7733 38.0202 16.9197C38.0675 17.0843 38.1712 17.1422 38.287 17.0721C38.412 16.9969 38.4375 17.0223 38.3633 17.1483C38.2748 17.2977 38.1925 17.2901 37.9836 17.1148C37.8373 16.9898 37.6315 16.8876 37.5263 16.8861C37.4211 16.8831 37.3357 16.8129 37.3357 16.7291C37.3357 16.6452 37.232 16.6102 37.107 16.6529C36.982 16.694 36.8783 16.6605 36.8783 16.5766C36.8783 16.4928 36.793 16.4272 36.6878 16.4303C36.5826 16.4333 36.4133 16.5538 36.3112 16.6971C36.1984 16.8556 36.1237 16.8831 36.1206 16.7672C36.1176 16.662 36.0474 16.5766 35.9636 16.5766C35.8797 16.5766 35.805 16.6971 35.7989 16.8434C35.7928 16.9898 35.7578 17.0249 35.7227 16.9197C35.6876 16.8145 35.4742 16.7291 35.2471 16.7291C34.9208 16.7291 34.8735 16.6894 35.0214 16.5385C35.1236 16.4333 35.2059 16.2961 35.2044 16.2336C35.2028 16.1711 35.0809 16.1863 34.9345 16.2671C34.7882 16.3495 34.6327 16.383 34.5915 16.3418C34.5503 16.3007 34.0518 16.2336 33.4862 16.194C32.852 16.1482 32.4571 16.1772 32.4571 16.2717C32.4571 16.3556 32.5608 16.4577 32.6858 16.5004C32.8108 16.5416 32.9145 16.6452 32.9145 16.7291C32.9145 16.8129 32.794 16.8358 32.6477 16.7809C32.5013 16.726 32.2742 16.5705 32.143 16.4379C31.9997 16.29 31.672 16.2016 31.3045 16.2107C30.9737 16.2199 30.5331 16.2397 29.9416 16.2824L30.3227 16.5019C30.6978 16.7184 30.6962 16.7215 30.1703 16.6254C29.876 16.5721 29.5864 16.4531 29.5254 16.3617C29.4491 16.2478 29.411 16.256 29.411 16.3861C29.4095 16.4913 29.2708 16.5766 29.1031 16.5766C28.9354 16.5766 28.7814 16.6574 28.76 16.7581C28.7356 16.8754 28.6426 16.8922 28.4932 16.8023C28.3682 16.7276 28.1273 16.6681 27.9596 16.6696C27.7919 16.6712 27.5007 16.7535 27.3117 16.8526C27.1227 16.9532 26.9168 16.9974 26.8543 16.9532C26.7918 16.909 26.8254 16.8754 26.9306 16.877C27.0358 16.88 27.1196 16.7611 27.1181 16.6147C27.1171 16.4379 27.079 16.4089 27.0037 16.5278C26.9412 16.63 26.6058 16.6971 26.2323 16.6803C25.8679 16.6651 25.5417 16.7047 25.5081 16.7672C25.4731 16.8297 25.3237 16.8373 25.1773 16.7855C25.031 16.7321 24.7215 16.6971 24.4913 16.7093C24.2118 16.7225 24.072 16.6529 24.072 16.5004C24.072 16.3342 23.9302 16.2824 23.5582 16.3098C23.1893 16.3373 23.0704 16.4059 23.139 16.5538C23.2137 16.7184 23.0917 16.7413 22.5474 16.6681C22.1709 16.6178 21.8035 16.4913 21.7333 16.3861C21.649 16.2621 21.6363 16.2875 21.6952 16.4623C21.7608 16.6559 21.712 16.7199 21.5184 16.694C21.372 16.6757 21.1662 16.7108 21.061 16.7702C20.9558 16.8312 20.7851 16.8206 20.6799 16.7459C20.5747 16.6712 20.0777 16.6208 19.5746 16.633C19.0714 16.6437 18.5744 16.7047 18.4692 16.7672C18.3641 16.8297 17.9524 16.8099 17.5545 16.7215C17.0468 16.6086 16.8197 16.6086 16.7922 16.7215C16.7709 16.8099 16.6855 16.8815 16.6017 16.8815C16.5178 16.8815 16.4492 16.7779 16.4492 16.6529C16.4492 16.5263 16.3806 16.4577 16.2967 16.5004C16.2129 16.5416 16.1672 16.662 16.1961 16.7672C16.2342 16.9105 16.1595 16.9197 15.8927 16.8053C15.565 16.6651 15.5604 16.6498 15.8409 16.6147C16.0498 16.5888 16.1382 16.4684 16.126 16.2336C16.1138 15.9912 16.0925 15.9683 16.0498 16.1574C16.0178 16.3037 15.9065 16.3998 15.8013 16.3708C15.6961 16.3403 15.6275 16.2031 15.6488 16.0659C15.6702 15.9272 15.6183 15.8143 15.5345 15.8143C15.4506 15.8143 15.4171 15.883 15.4582 15.9668C15.5009 16.0507 15.4323 16.1193 15.3058 16.1193C15.1808 16.1193 15.0771 16.0156 15.0771 15.8906C15.0771 15.764 14.9734 15.6619 14.8484 15.6619C14.7234 15.6619 14.5862 15.7305 14.5435 15.8143C14.4947 15.9134 14.3194 15.9028 14.048 15.7854Z" fill="#2D2A33"/>
<path d="M48.6937 31.1072C48.8614 30.9411 49.2684 30.1772 49.5962 29.4089C49.9255 28.639 50.2091 28.0108 50.2243 28.0108C50.2411 28.0108 50.2472 28.1816 50.2365 28.392C50.2259 28.6008 50.1664 28.7731 50.1039 28.7731C50.0414 28.7731 50.0749 28.9058 50.1801 29.0689C50.2853 29.2305 50.4393 29.322 50.5232 29.2701C50.607 29.2198 50.5552 29.3098 50.4088 29.4714C50.2609 29.633 50.1923 29.8235 50.2564 29.8967C50.3204 29.973 50.2061 29.9775 49.9896 29.9089C49.6465 29.7992 49.6313 29.8114 49.8371 30.0278C50.0353 30.2367 50.0963 30.2398 50.2945 30.0522C50.4927 29.8662 50.5384 29.8678 50.6375 30.0675C50.7015 30.1955 50.6848 30.2977 50.5994 30.2977C50.5155 30.2977 50.4469 30.4684 50.4469 30.6788C50.4469 30.8877 50.5155 31.06 50.5994 31.06C50.6832 31.06 50.7183 31.2139 50.6787 31.403C50.6375 31.592 50.5689 32.1744 50.5262 32.6989C50.482 33.2233 50.2838 34.0466 50.0856 34.5283C49.8127 35.19 49.5978 35.4705 49.209 35.6718C48.9254 35.8181 48.4543 35.9386 48.1601 35.9386C47.8674 35.9386 47.4039 36.0072 47.131 36.091C46.8007 36.1927 46.6355 36.1927 46.6355 36.091C46.6355 36.0072 46.5837 35.9538 46.5212 35.9721C46.4587 35.9904 46.1675 35.9111 45.8732 35.7983C45.5805 35.684 45.2543 35.6001 45.1491 35.6123C45.0363 35.6245 45.0058 35.5574 45.0728 35.4461C45.1537 35.3135 45.1094 35.2906 44.9204 35.3699C44.7268 35.4507 44.6505 35.408 44.6429 35.2144C44.6338 34.9857 44.6124 34.9918 44.5011 35.2525C44.4295 35.4202 44.3655 35.472 44.3594 35.3669C44.3533 35.2617 44.2465 35.1763 44.12 35.1763C43.995 35.1763 43.9264 35.1077 43.9675 35.0238C44.0087 34.94 44.1291 34.9019 44.2343 34.94C44.3395 34.9781 44.4828 34.9598 44.5545 34.9019C44.6246 34.8424 44.8137 34.7784 44.9738 34.757C45.1323 34.7357 45.2619 34.8043 45.2588 34.9095C45.2573 35.0147 45.2909 35.0482 45.3351 34.9857C45.3793 34.9232 45.3473 34.7342 45.2634 34.5665C45.1796 34.3988 45.146 34.2615 45.1872 34.2615C45.2284 34.2615 45.3671 34.3637 45.4921 34.4902C45.6949 34.693 45.7208 34.6854 45.7208 34.414C45.7208 34.2463 45.7894 34.1091 45.8732 34.1091C45.9586 34.1091 45.9754 34.2112 45.9114 34.3408C45.8184 34.5283 45.8702 34.5527 46.1782 34.4674C46.3885 34.4079 46.4739 34.3378 46.3687 34.3119C46.2635 34.2844 46.1797 34.1411 46.1812 33.9947C46.1827 33.8042 46.2148 33.7844 46.2956 33.9246C46.3687 34.0567 46.5583 34.0877 46.8642 34.0176C47.1158 33.9612 47.41 33.8377 47.5182 33.7447C47.628 33.6517 47.7149 33.5069 47.7149 33.423C47.7134 33.3392 47.5564 33.4078 47.0167 33.8804L47.2789 33.5755C47.4237 33.4078 47.5411 33.1669 47.5396 33.0419C47.5365 32.8391 47.5655 32.8391 47.7972 33.0419C48.0381 33.2538 48.0488 33.2355 47.939 32.8132C47.8369 32.4244 47.8567 32.3726 48.0656 32.4702C48.2043 32.5342 48.3125 32.5174 48.3125 32.4321C48.3125 32.3482 48.2272 32.2827 48.122 32.2857C48.0168 32.2903 48.1037 32.147 48.3125 31.9686C48.5636 31.7542 48.6017 31.6759 48.4269 31.7338C48.2744 31.7841 48.1921 31.7567 48.2363 31.6698C48.2775 31.5859 48.4162 31.5173 48.5412 31.5173C48.6678 31.5173 48.7699 31.4487 48.7699 31.3649C48.7699 31.281 48.6845 31.2566 48.5793 31.3115C48.4741 31.3649 48.526 31.2734 48.6937 31.1072Z" fill="#2D2A33"/>
<path d="M23.6909 34.5405C23.5994 34.6 23.5872 34.5649 23.6604 34.4506C23.7275 34.3469 23.8418 34.2615 23.9135 34.2615C23.9866 34.2615 24.0324 34.382 24.0156 34.5283C24.0004 34.6747 24.0415 34.8637 24.1086 34.9476C24.1742 35.0315 24.3998 35.3577 24.6071 35.6718C24.816 35.9858 24.9532 36.2435 24.9105 36.2435C24.8694 36.2435 24.938 36.3456 25.063 36.4722C25.1895 36.5972 25.377 36.7054 25.4822 36.71C25.5874 36.7161 25.5188 36.7847 25.3298 36.8624C25.0218 36.992 25.0066 37.0439 25.1773 37.3915C25.2901 37.6202 25.4914 37.7726 25.6728 37.765C25.9183 37.7574 25.9411 37.794 25.7902 37.9525C25.6393 38.1095 25.6698 38.2102 25.9457 38.4541C26.1347 38.6218 26.3924 38.7697 26.5159 38.7834C26.6394 38.7956 27.2888 38.9176 27.9596 39.0548C28.6305 39.1905 29.6946 39.3002 30.3227 39.3002C30.9524 39.3002 32.358 39.3719 33.4481 39.4603C35.305 39.6128 35.4971 39.6585 36.4972 40.1997C37.0841 40.5168 37.5659 40.872 37.5674 40.9879C37.5705 41.1145 37.6909 41.1754 37.8723 41.1404C38.1056 41.0946 38.1483 41.1388 38.0599 41.3309C37.9958 41.4712 38.0126 41.5794 38.098 41.5794C38.1818 41.5794 38.2504 41.6816 38.2504 41.8081C38.2504 41.9331 38.3709 42.0795 38.5172 42.1329C38.7459 42.2152 38.752 42.2472 38.5553 42.3585C38.407 42.4449 38.3943 42.4891 38.5172 42.4911C38.6224 42.4927 38.7078 42.5628 38.7078 42.6466C38.7078 42.7305 38.7901 42.9881 38.8908 43.2183C38.9898 43.4486 39.0828 43.7062 39.095 43.7901C39.1072 43.8739 39.1972 44.1483 39.2932 44.3999C39.3908 44.6514 39.5509 44.9945 39.65 45.1622C39.7491 45.3299 39.9275 45.8452 40.0464 46.3056C40.1653 46.766 40.2994 47.3834 40.3421 47.6777C40.3863 47.9704 40.3345 48.5894 40.2278 49.0498C40.1226 49.5102 39.929 50.0591 39.8009 50.2694C39.6713 50.4783 39.4762 50.736 39.3664 50.8412C39.2551 50.9464 38.874 51.14 38.5172 51.2711C38.0507 51.4434 37.4013 51.5028 36.1923 51.4815C35.2699 51.4662 34.1036 51.4586 33.6005 51.4647C33.0974 51.4723 32.48 51.5104 32.2284 51.5486C31.9769 51.5882 31.771 51.6309 31.771 51.6431C31.771 51.6568 31.6003 51.6934 31.3899 51.7239C31.181 51.7559 30.2892 51.7788 29.408 51.7742C28.5283 51.7681 27.4992 51.7727 27.1211 51.7803C26.7446 51.7894 26.246 51.6934 26.0158 51.5668C25.7567 51.4251 25.5676 51.3946 25.5203 51.4891C25.4746 51.5806 24.9898 51.6111 24.3007 51.5653C23.6726 51.5242 23.0719 51.4449 22.9667 51.3915C22.8615 51.3382 22.2959 51.2848 21.7089 51.2711C21.122 51.2589 20.5564 51.1994 20.4512 51.14C20.346 51.0805 19.6599 51.0256 18.9266 51.018C18.0805 51.0104 17.5088 50.9342 17.3639 50.8091C17.2389 50.7024 16.9294 50.5637 16.6779 50.5027C16.4263 50.4417 16.0147 50.3716 15.7631 50.3472C15.5116 50.3228 15.1686 50.2512 15.0009 50.1886C14.8332 50.1246 14.1822 50.1277 13.5525 50.1947C12.9244 50.2618 11.8542 50.3228 11.1757 50.3304C10.4501 50.3396 9.85547 50.274 9.72741 50.1703C9.61002 50.0728 8.895 49.9188 8.14034 49.8273C7.38568 49.7358 6.52888 49.5925 6.23464 49.5087C5.94192 49.4233 5.37478 49.3547 4.97687 49.3547C4.57896 49.3547 3.98591 49.2343 3.65813 49.0879C3.30443 48.9294 3.00866 48.6671 2.92634 48.44C2.83334 48.1838 2.61685 48.0146 2.26315 47.9231C1.97349 47.8484 1.70364 47.7737 1.66095 47.7585C1.61979 47.7417 1.39568 47.6838 0.746213 47.5252L0.734017 44.2855C0.726394 42.5033 0.709624 40.8172 0.695903 40.5382C0.682182 40.2607 0.738591 39.9802 0.822442 39.9177C0.906292 39.8552 1.35299 39.6875 1.81341 39.5442C2.27535 39.4024 2.73729 39.288 2.84249 39.2896C2.96445 39.2911 3.03306 39.07 3.03306 38.6828C3.03306 38.1385 3.07574 38.0684 3.42639 38.0348C3.64288 38.0135 4.03622 38.1477 4.30302 38.3306C4.69788 38.605 4.83661 38.6325 5.06225 38.4831C5.28788 38.3352 5.37173 38.3504 5.51962 38.5669C5.61871 38.7117 5.75135 38.7803 5.81233 38.7194C5.87332 38.6569 6.01053 38.6873 6.11725 38.788C6.22396 38.8871 6.62035 39.0121 6.99692 39.0654C7.37501 39.1203 7.82018 39.2179 7.98788 39.285C8.15558 39.3505 9.18466 39.6189 10.2747 39.878C11.3648 40.1372 12.8741 40.3918 13.6288 40.4436C14.3834 40.494 15.4476 40.561 15.9918 40.59C16.5376 40.6205 17.5667 40.7165 18.2787 40.8065C18.9922 40.8949 19.9176 40.965 20.3368 40.9635C20.904 40.9605 21.2622 40.8522 21.7349 40.5458C22.0855 40.3171 22.4392 39.9939 22.52 39.8262C22.6161 39.628 22.6145 39.07 22.5124 38.2254C22.398 37.2832 22.4026 36.8564 22.5276 36.6627C22.6222 36.5164 22.6664 36.3609 22.6237 36.3197C22.5825 36.2785 22.645 36.1398 22.7655 36.0148C22.8844 35.8883 23.0216 35.7861 23.0704 35.7861C23.1176 35.7861 23.1832 35.9065 23.2152 36.0529C23.2579 36.242 23.2792 36.2191 23.2914 35.9767C23.3021 35.7876 23.4469 35.565 23.6146 35.4812C23.8311 35.373 23.9089 35.2007 23.8814 34.8851C23.8601 34.632 23.7778 34.4841 23.6909 34.5405Z" fill="#2D2A33"/>
<path d="M59.5562 38.7819C59.6614 38.727 59.7422 38.5837 59.7376 38.4632C59.7315 38.3016 59.8855 38.2528 60.3093 38.2788C60.8643 38.3123 60.8917 38.3397 60.9283 38.8794C60.9664 39.4374 60.9771 39.4466 61.6906 39.5106C62.0885 39.5457 62.6373 39.6143 63.4057 39.75L63.3874 43.2946C63.3783 45.2445 63.3203 47.2844 63.2594 47.8301C63.1968 48.3744 63.1374 48.7525 63.1237 48.6687C63.1115 48.5848 62.9986 48.5162 62.8721 48.5162C62.7471 48.5162 62.6434 48.568 62.6434 48.6305C62.6434 48.6931 62.5062 48.6763 62.3385 48.5924C62.1708 48.5086 62.0001 48.44 61.9574 48.44C61.9162 48.44 61.9162 48.5086 61.9574 48.5924C62.0001 48.6763 61.8629 48.7449 61.6525 48.7449C61.4436 48.7449 61.2195 48.7678 61.157 48.7967C61.0945 48.8242 60.9405 48.8882 60.814 48.9385C60.6889 48.9873 59.9968 49.0513 59.2757 49.0772C58.5561 49.1047 57.87 49.2068 57.7511 49.3059C57.6337 49.405 57.1931 49.5636 56.7739 49.6596C56.3546 49.7541 55.7753 49.9478 55.4871 50.0895C55.1807 50.239 54.9444 50.2816 54.9185 50.1932C54.8941 50.1094 54.7782 49.9035 54.6608 49.7358C54.4596 49.4462 54.4367 49.4447 54.2004 49.6977C54.022 49.8914 53.8909 49.9234 53.7247 49.8121C53.5997 49.7282 53.2735 49.7054 53.0006 49.7602C52.5752 49.8471 52.5219 49.8258 52.6194 49.6078C52.688 49.4553 52.6728 49.3852 52.5813 49.4309C52.4975 49.4721 52.4289 49.4035 52.4289 49.2785C52.4289 49.1519 52.2779 48.8272 52.0919 48.5543C51.9059 48.2814 51.8556 48.1427 51.9776 48.2448C52.1575 48.3958 52.2215 48.3805 52.3084 48.1686C52.3694 48.0253 52.5402 47.7509 52.6896 47.5588C52.9594 47.2157 52.9579 47.2127 52.2002 47.4353L52.5432 47.0999C52.7582 46.8895 52.8878 46.577 52.8893 46.2675C52.8908 45.9946 52.8039 45.6851 52.6987 45.5784C52.5447 45.4259 52.5447 45.3863 52.6957 45.3878C52.8359 45.3908 52.8649 45.1423 52.8054 44.438C52.7627 43.9135 52.6621 43.2793 52.5859 43.0278C52.5081 42.7762 52.4014 42.2274 52.3496 41.8081C52.2551 41.0596 52.2657 41.0336 52.9137 40.4269C53.4244 39.9466 53.7446 39.7805 54.3346 39.6875C54.7538 39.6219 55.2341 39.4938 55.4018 39.4054C55.5695 39.3155 56.2906 39.1844 57.0025 39.1142C57.716 39.0426 58.5393 38.9618 58.832 38.9328C59.1263 38.9038 59.451 38.8352 59.5562 38.7819Z" fill="#2D2A33"/>
<path fill-rule="evenodd" clip-rule="evenodd" d="M20.2257 15.2976C20.2867 15.3906 20.4742 15.4577 20.6419 15.4439C20.8096 15.4317 21.0322 15.3723 21.1374 15.3128C21.2634 15.2427 21.3015 15.2829 21.2517 15.4333C21.2029 15.5781 20.9803 15.662 20.6419 15.662C20.2348 15.662 20.1083 15.5995 20.1113 15.3952C20.1113 15.229 20.1555 15.1924 20.2257 15.2976ZM22.0933 15.357C22.2259 15.5598 22.2594 15.5598 22.3921 15.357C22.5262 15.1543 22.543 15.1543 22.5476 15.357C22.5522 15.5598 22.5689 15.5598 22.7 15.357C22.8266 15.1619 22.8479 15.1665 22.8495 15.3952C22.8525 15.6147 22.7153 15.662 22.0902 15.662C21.6328 15.662 21.3584 15.601 21.4042 15.5095C21.4453 15.4257 21.5841 15.3906 21.7091 15.4333C21.8341 15.4744 21.9393 15.4241 21.9408 15.3189C21.9418 15.1919 21.9926 15.2046 22.0933 15.357V15.357ZM26.8758 15.357C27.0999 15.5476 27.1685 15.5507 27.2829 15.3784C27.3754 15.2381 27.4475 15.2254 27.4994 15.3403C27.5558 15.4607 27.6472 15.4546 27.8134 15.3189C28.0025 15.1665 28.0482 15.1665 28.0421 15.3189C28.0391 15.4241 28.1046 15.4744 28.1885 15.4333C28.2723 15.3906 28.3409 15.4257 28.3409 15.5095C28.3409 15.5949 27.9095 15.662 27.35 15.662C26.7904 15.662 26.359 15.5949 26.359 15.5095C26.359 15.4241 26.4749 15.4058 26.6258 15.4683C26.8362 15.5552 26.8621 15.5308 26.7493 15.354C26.6258 15.1589 26.6426 15.1604 26.8758 15.357ZM38.0326 15.5507C38.5296 15.604 39.211 15.7595 39.5465 15.8952C39.8819 16.0309 40.4993 16.3068 40.9186 16.5081C41.3378 16.7078 41.7494 16.8222 41.8318 16.7627C41.9217 16.6971 41.937 16.7307 41.8699 16.8435C41.7998 16.9624 41.9995 17.2673 42.405 17.6591C42.7724 18.0128 42.873 18.1607 42.6383 18.0022C42.4111 17.8467 42.2221 17.6683 42.219 17.6058C42.216 17.5433 42.1291 17.5433 42.0254 17.6058C41.9004 17.681 41.875 17.6556 41.9492 17.5295C42.0193 17.4122 41.9751 17.339 41.8333 17.339C41.7068 17.339 41.6061 17.2871 41.6092 17.2246C41.6107 17.1621 41.2509 16.9197 40.8088 16.6865C40.3667 16.4547 39.9001 16.2413 39.7751 16.2154C39.6486 16.1879 39.426 16.1209 39.2797 16.066C39.1333 16.0111 38.8924 15.9288 38.7461 15.8815C38.5997 15.8342 38.2048 15.758 37.8694 15.7123C37.534 15.6665 37.2291 15.5888 37.1941 15.5415C37.1575 15.4943 37.534 15.4988 38.0326 15.5507V15.5507ZM49.1832 30.188C49.2122 30.2063 49.1481 30.4121 49.0414 30.6454C48.9332 30.8786 48.7944 31.0661 48.7319 31.0646C48.6694 31.0616 48.6557 31.1454 48.7014 31.2506C48.7487 31.3604 48.6344 31.4869 48.4346 31.5479C48.1297 31.6409 48.1175 31.6317 48.3462 31.4717C48.5551 31.3253 48.5703 31.246 48.4225 31.0753C48.2761 30.9076 48.2761 30.8832 48.427 30.9609C48.5414 31.0204 48.7197 30.8801 48.8737 30.6072C49.0155 30.3587 49.1542 30.1697 49.1832 30.188V30.188ZM48.6938 31.7034L48.3127 31.9976C48.1023 32.1608 48.0169 32.2904 48.1221 32.2858C48.2273 32.2827 48.3127 32.3483 48.3127 32.4321C48.3127 32.5175 48.2044 32.5343 48.0657 32.4703C47.8568 32.3727 47.837 32.4245 47.9392 32.8133C48.0489 33.2356 48.0383 33.2539 47.7974 33.042C47.5656 32.8392 47.5367 32.8392 47.5397 33.042C47.5413 33.167 47.4239 33.4079 47.0168 33.8805L47.3644 33.5756C47.5565 33.4079 47.7135 33.3393 47.7151 33.4231C47.7151 33.507 47.6282 33.6518 47.5184 33.7448C47.4101 33.8378 47.1159 33.9613 46.8643 34.0177C46.5584 34.0878 46.3689 34.0568 46.2957 33.9247C46.2149 33.7844 46.1829 33.8042 46.1813 33.9948C46.1798 34.1412 46.2637 34.2845 46.3689 34.3119C46.4741 34.3378 46.3872 34.408 46.1783 34.4674C45.8703 34.5528 45.8185 34.5284 45.9115 34.3409C45.9755 34.2113 45.9588 34.1092 45.8734 34.1092C45.7895 34.1092 45.7209 34.2464 45.7209 34.4141C45.7209 34.6992 45.7026 34.7022 45.4541 34.4674C45.2011 34.2296 45.2071 34.2037 45.5669 33.9719C45.7758 33.8378 46.2042 33.5054 46.5198 33.2325C46.8354 32.9596 47.058 32.6684 47.0168 32.5846C46.9756 32.5007 47.0427 32.4672 47.1693 32.5084C47.2943 32.5495 47.465 32.4642 47.5458 32.3178C47.6282 32.1714 47.6449 31.9885 47.5839 31.9123C47.5245 31.836 47.5595 31.8193 47.6647 31.8741C47.7699 31.929 47.8462 31.9153 47.8355 31.8406C47.8263 31.7674 48.0139 31.7064 48.6938 31.7034V31.7034ZM45.2285 34.5376C45.3337 34.6793 45.4191 34.8638 45.416 34.9477C45.413 35.0315 45.3489 34.9965 45.2727 34.8714C45.1507 34.6687 45.105 34.6687 44.8656 34.8714C44.6248 35.0742 44.6095 35.0742 44.73 34.8714C44.8428 34.6793 44.8245 34.6732 44.6065 34.8333C44.4433 34.9538 44.3214 34.9675 44.2726 34.8714C44.2314 34.7876 44.3854 34.6199 44.6156 34.4994C44.9907 34.3028 45.0547 34.3058 45.2285 34.5376ZM24.5905 35.3288C24.7353 35.3288 24.8192 35.4371 24.7963 35.5926C24.775 35.7374 24.8466 35.8563 24.9549 35.8594C25.0616 35.8609 25.1988 35.9325 25.2598 36.0179C25.3192 36.1033 25.5738 36.2634 25.8254 36.3731C26.0769 36.4829 26.8651 36.6765 27.5786 36.8031C28.2906 36.9281 29.5606 37.0607 30.3991 37.0943C31.2376 37.1293 32.7637 37.1751 33.7897 37.1964C34.8584 37.2177 35.6786 37.3001 35.7107 37.387C35.7411 37.4708 35.982 37.5913 36.2458 37.6538C36.5095 37.7163 36.8632 37.9053 37.0309 38.073C37.1986 38.2407 37.3709 38.3779 37.4121 38.3779C37.4532 38.3779 37.4883 38.2743 37.4883 38.1492C37.4883 38.0227 37.5706 37.8687 37.6728 37.8062C37.8008 37.7269 37.8344 37.7849 37.781 37.9968C37.7322 38.1904 37.842 38.442 38.0783 38.6828C38.2826 38.8917 38.3924 38.9603 38.3222 38.8353C38.2155 38.6478 38.2308 38.6402 38.4122 38.7957C38.5326 38.9009 38.6942 38.9344 38.7704 38.8719C38.8467 38.8094 38.865 38.8444 38.8086 38.9496C38.7537 39.0548 38.7765 39.1402 38.8604 39.1402C38.9442 39.1402 38.9778 39.2088 38.9366 39.2927C38.8955 39.3765 38.9641 39.4802 39.0891 39.5214C39.2141 39.5625 39.2827 39.6662 39.2415 39.75C39.2004 39.8339 39.269 39.9376 39.394 39.9787C39.519 40.0199 39.6227 40.1236 39.6227 40.2074C39.6227 40.2913 39.9657 40.9087 40.385 41.5795C40.8042 42.2503 41.0619 42.7519 40.9567 42.6924C40.8515 42.6345 40.9551 42.8403 41.1854 43.1498C41.4156 43.4608 41.6046 43.7825 41.6046 43.8664C41.6046 43.9502 41.6732 44.0356 41.7586 44.0569C41.8424 44.0783 41.9507 44.2658 41.9995 44.4762C42.0467 44.685 42.0986 44.9366 42.1123 45.0326C42.126 45.1302 42.19 45.1821 42.2525 45.147C42.3151 45.1134 42.3166 45.0006 42.2541 44.8954C42.1799 44.7694 42.2053 44.744 42.3303 44.8192C42.4431 44.8878 42.4736 45.0418 42.4081 45.2003C42.3288 45.3894 42.3516 45.4336 42.4843 45.3528C42.588 45.2903 42.6733 45.2903 42.6749 45.3528C42.6764 45.4153 42.5895 45.5632 42.4843 45.6806C42.3242 45.8559 42.3303 45.8681 42.5163 45.7568C42.6916 45.6501 42.7175 45.6775 42.6306 45.8864C42.5498 46.08 42.6032 46.1745 42.8243 46.2294C43.0392 46.2828 43.1063 46.3956 43.0529 46.6106C42.9904 46.8606 43.0392 46.9033 43.3197 46.8469C43.6277 46.7859 43.6353 46.7966 43.396 46.9612C43.2435 47.0649 43.1612 47.2585 43.2054 47.411C43.2466 47.5573 43.3502 47.6778 43.4341 47.6778C43.5179 47.6778 43.5576 47.7631 43.521 47.8683C43.4859 47.9735 43.556 48.2647 43.678 48.5163C43.8015 48.7678 43.9006 49.0758 43.9021 49.2023C43.9021 49.3456 44.047 49.2618 44.2909 48.9736C44.579 48.6367 44.637 48.6062 44.515 48.8593C44.4235 49.0483 44.3839 49.2709 44.425 49.3548C44.4662 49.4386 44.4159 49.4905 44.3107 49.4691C44.1964 49.4463 44.1415 49.5514 44.175 49.7359C44.2055 49.9036 44.3946 50.3839 44.5958 50.8031C44.7986 51.2224 44.9617 51.6858 44.9602 51.8322C44.9602 51.9785 45.0273 52.1341 45.1111 52.1752C45.195 52.2164 45.3672 52.4908 45.4922 52.785C45.6173 53.0778 45.7895 53.3186 45.8734 53.3186C45.9572 53.3186 45.9908 53.3872 45.9496 53.4711C45.9084 53.5549 45.9938 53.8309 46.1402 54.0824C46.2865 54.3355 46.4924 54.5413 46.5975 54.5398C46.7027 54.5398 46.7546 54.5901 46.7149 54.6526C46.6738 54.7151 46.7607 54.8813 46.9055 55.0216C47.0503 55.1618 47.4772 55.3844 47.8553 55.5155C48.2334 55.6466 49.0048 55.7549 49.5704 55.7564C50.1361 55.7564 50.6346 55.6893 50.6758 55.6055C50.7169 55.5216 50.906 55.4561 51.095 55.4576C51.2841 55.4606 51.6317 55.3067 51.8695 55.1146C52.1058 54.924 52.2643 54.6984 52.2217 54.6145C52.179 54.5307 52.2095 54.3935 52.2903 54.3096C52.3711 54.2258 52.4686 53.8309 52.5098 53.433C52.5632 52.8857 52.5342 52.7332 52.3909 52.8079C52.2415 52.8857 52.24 52.8613 52.3848 52.6936C52.5098 52.5487 52.522 52.3948 52.4229 52.2133C52.3421 52.067 52.3284 51.9191 52.3909 51.8856C52.4534 51.852 52.522 51.4739 52.5433 51.047C52.5647 50.6186 52.5327 50.1841 52.4717 50.0789C52.4107 49.9737 52.3421 49.7847 52.3177 49.6597C52.2811 49.4722 52.3162 49.4661 52.5037 49.6216C52.6302 49.7268 52.9047 49.7771 53.1151 49.7359C53.3239 49.6948 53.5999 49.7283 53.7249 49.8121C53.8911 49.9234 54.0222 49.8914 54.2005 49.6978C54.4368 49.4447 54.4597 49.4463 54.661 49.7359C54.7784 49.9036 54.8942 50.1094 54.9186 50.1933C54.9445 50.2817 55.1808 50.239 55.4873 50.0896C55.7754 49.9478 56.3547 49.7542 56.774 49.6597C57.1933 49.5636 57.6339 49.4051 57.7512 49.306C57.8702 49.2069 58.5562 49.1047 59.2758 49.0773C59.9969 49.0514 60.6891 48.9874 60.8141 48.9386C60.9391 48.8883 61.0946 48.8242 61.1571 48.7968C61.2196 48.7678 61.4422 48.745 61.6526 48.745C61.8615 48.745 62.0063 48.6763 61.9728 48.5925C61.9377 48.5086 61.9377 48.44 61.9728 48.44C62.0063 48.44 62.171 48.5086 62.3387 48.5925C62.5064 48.6763 62.6436 48.6931 62.6436 48.6306C62.6436 48.5681 62.7488 48.5163 62.8783 48.5163C63.0079 48.5163 63.1497 48.6535 63.1939 48.8212C63.2366 48.9889 63.2336 49.4691 63.1848 49.8884C63.1375 50.3076 63.0293 51.0791 62.947 51.6035C62.8631 52.128 62.7274 52.5564 62.6436 52.5564C62.5597 52.5564 62.5262 52.625 62.5673 52.7088C62.6085 52.7927 62.4896 53.3034 62.3005 53.8431C62.1008 54.4133 61.8935 54.7822 61.8051 54.7212C61.7151 54.6603 61.6983 54.6938 61.7669 54.8066C61.8325 54.9149 61.7166 55.2579 61.5001 55.6055C61.2898 55.9409 61.1205 56.3007 61.1221 56.4059C61.1236 56.5522 61.0794 56.5507 60.9315 56.3952C60.7745 56.2321 60.7958 56.1528 61.0428 55.9744C61.2105 55.8525 61.2623 55.7534 61.1571 55.7549C61.0519 55.7564 60.9315 55.8265 60.8903 55.9104C60.8492 55.9942 60.7455 56.0278 60.6616 55.9866C60.5778 55.9455 60.5503 55.79 60.5991 55.6436C60.6754 55.421 60.6647 55.4149 60.532 55.6055C60.4406 55.7396 60.4299 55.8982 60.5092 55.9866C60.5869 56.075 60.5839 56.2351 60.5031 56.3678C60.4253 56.4928 60.3598 56.5446 60.3598 56.4821C60.3582 56.4196 60.3217 56.2992 60.2805 56.2153C60.2393 56.1315 60.2043 55.9942 60.2043 55.9104C60.2043 55.8265 60.1189 55.7549 60.0137 55.7518C59.8612 55.7457 59.8612 55.7915 60.0137 55.9805C60.1341 56.1284 60.1479 56.2443 60.0518 56.2915C59.968 56.3327 59.814 56.3281 59.7088 56.2809C59.6036 56.2321 59.3917 56.319 59.2377 56.4714C58.9922 56.7123 58.9374 56.7184 58.82 56.5202C58.7305 56.3698 58.6848 56.3571 58.6828 56.4821C58.6812 56.5873 58.5593 56.6727 58.4129 56.6711C58.2665 56.6711 57.9845 56.7916 57.7863 56.9379C57.5485 57.1148 57.4585 57.2977 57.5195 57.4731C57.579 57.6453 57.5454 57.7201 57.4219 57.685C57.3167 57.656 57.0256 57.7749 56.774 57.9503C56.5224 58.1256 56.248 58.275 56.1642 58.2811C56.0803 58.2872 55.6687 58.4518 55.2494 58.647C54.8302 58.8421 54.4521 59.0449 54.4109 59.0952C54.3698 59.147 54.231 59.208 54.106 59.2309C53.981 59.2553 53.638 59.3925 53.3437 59.5358C53.0495 59.6806 52.7659 59.8666 52.7126 59.9505C52.6592 60.0343 52.5388 60.0511 52.4458 59.9886C52.3528 59.9261 52.1912 59.9337 52.086 60.0084C51.9808 60.0816 51.4152 60.2234 50.8282 60.324C50.2413 60.4231 49.0582 60.5009 48.1983 60.4948C47.2973 60.4887 46.6036 60.5481 46.5594 60.6365C46.5122 60.7311 46.4116 60.7356 46.2926 60.6472C46.1874 60.5695 45.7834 60.5191 45.3931 60.5329C44.9724 60.5496 44.7178 60.6228 44.7665 60.7128C44.8138 60.7966 44.7544 60.7783 44.6385 60.6716C44.5211 60.5664 44.0653 60.4795 43.6247 60.481C43.1429 60.4826 42.8548 60.5451 42.9005 60.6365C42.9417 60.7204 42.9081 60.789 42.8243 60.789C42.7404 60.789 42.6444 60.7372 42.6108 60.6746C42.5758 60.6121 40.449 60.5435 37.8847 60.5222C34.2044 60.4917 33.2439 60.5237 33.3339 60.6731C33.4162 60.8103 33.3857 60.8241 33.2195 60.7219C33.0945 60.6457 30.7955 60.5618 28.1122 60.5359C24.374 60.5008 23.2077 60.5344 23.1223 60.6777C23.0339 60.8256 23.0095 60.8241 23.008 60.6746C23.0065 60.5496 22.7808 60.4902 22.357 60.5008C22.0003 60.51 21.6237 60.5786 21.5185 60.6533C21.4057 60.7326 21.2502 60.7311 21.1374 60.6487C21.0322 60.5725 19.471 60.5085 17.669 60.5054C15.2983 60.5039 14.0329 60.4338 13.0953 60.2554C12.3818 60.1197 11.6958 59.9962 11.5707 59.9794C11.4442 59.9642 11.2567 59.8651 11.1515 59.7599C11.0463 59.6547 10.8405 59.5678 10.6941 59.5678C10.5478 59.5663 10.1178 59.394 9.74127 59.1836C9.36317 58.9732 9.03844 58.8376 9.0171 58.8802C8.99575 58.9245 8.84177 58.8223 8.67407 58.6546C8.50637 58.4869 8.30055 58.3848 8.2167 58.4259C8.13285 58.4671 7.97887 58.3954 7.87368 58.2674C7.76848 58.1378 7.5459 58.0372 7.37819 58.0448C7.10225 58.057 7.09615 58.0326 7.30197 57.7978C7.50473 57.5661 7.50473 57.5462 7.30197 57.6194C7.17543 57.6636 6.95132 57.5889 6.80191 57.4532C6.54731 57.223 6.53054 57.2307 6.53206 57.5874C6.53511 57.8893 6.50462 57.9213 6.38723 57.7399C6.30643 57.6133 6.23782 57.563 6.23782 57.6255C6.2363 57.688 6.1494 57.6957 6.0442 57.6423C5.91157 57.5752 5.97102 57.4624 6.61591 57.0096L6.12043 57.0706C5.69203 57.1224 5.62495 57.0843 5.62037 56.787C5.6158 56.4486 5.61275 56.4486 5.38864 56.7489C5.26363 56.9166 5.16301 56.9684 5.16453 56.8632C5.16606 56.7581 5.04714 56.6894 4.90078 56.7108C4.72292 56.7362 4.64669 56.66 4.6721 56.4821C4.69344 56.3357 4.64161 56.1802 4.55776 56.1391C4.4739 56.0964 4.39768 56.2839 4.387 56.5583C4.37582 56.8876 4.34482 56.9512 4.29401 56.7489C4.25132 56.5812 4.14003 56.3983 4.04398 56.3418C3.94945 56.2854 3.64149 56.2519 3.35945 56.2656C2.87311 56.29 2.82128 56.2397 2.35171 55.3006C2.07882 54.7548 1.74341 53.9498 1.6062 53.5092C1.46899 53.0686 1.40649 52.6234 1.46899 52.5182C1.54319 52.3922 1.51778 52.3668 1.39276 52.442C1.25403 52.5259 1.16103 52.2469 1.04212 51.3748C0.953691 50.7254 0.837824 49.5758 0.689941 47.4491L1.06041 47.571C1.2647 47.6381 1.50101 47.7159 1.58486 47.7418C1.66871 47.7692 1.97362 47.8516 2.26329 47.9247C2.61851 48.0162 2.83348 48.1824 2.92647 48.44C3.0088 48.6672 3.30457 48.9294 3.65826 49.088C3.98604 49.2343 4.5791 49.3548 4.97701 49.3548C5.37492 49.3548 5.94053 49.4234 6.23477 49.5088C6.52749 49.5926 7.38582 49.7359 8.14048 49.8274C8.89513 49.9189 9.61015 50.0728 9.72754 50.1704C9.85561 50.2741 10.4502 50.3396 11.1759 50.3305C11.8543 50.3229 12.923 50.2619 13.5527 50.1948C14.1808 50.1277 14.8333 50.1247 15.001 50.1887C15.1687 50.2512 15.5117 50.3229 15.7633 50.3473C16.0148 50.3717 16.4265 50.4418 16.678 50.5028C16.9296 50.5638 17.2375 50.7025 17.3641 50.8092C17.5089 50.9342 18.0806 51.0105 18.9268 51.0181C19.6601 51.0257 20.3461 51.0806 20.4513 51.14C20.5565 51.1995 21.1221 51.259 21.7091 51.2712C22.296 51.2849 22.8616 51.3382 22.9668 51.3916C23.072 51.445 23.6712 51.5242 24.3008 51.5654C24.9899 51.6111 25.4747 51.5806 25.5205 51.4892C25.5677 51.3946 25.7568 51.4251 26.016 51.5669C26.2462 51.6935 26.7432 51.7895 27.1213 51.7804C27.4978 51.7727 28.5269 51.7682 29.4081 51.7743C30.2878 51.7788 31.1797 51.756 31.39 51.7239C31.5989 51.6935 31.7712 51.6569 31.7712 51.6431C31.7712 51.6309 31.977 51.5883 32.2286 51.5486C32.4801 51.5105 33.0976 51.4724 33.6007 51.4648C34.1038 51.4587 35.2701 51.4663 36.1924 51.4815C37.4014 51.5029 38.0509 51.4434 38.5174 51.2712C38.8741 51.14 39.2553 50.9464 39.3666 50.8412C39.4763 50.736 39.6715 50.4784 39.8011 50.2695C39.9291 50.0591 40.1227 49.5103 40.2279 49.0499C40.3346 48.5894 40.3865 47.9705 40.3423 47.6778C40.2996 47.3835 40.1654 46.7661 40.0465 46.3057C39.9276 45.8452 39.7492 45.3299 39.6501 45.1622C39.551 44.9945 39.3909 44.6515 39.2934 44.4C39.1973 44.1484 39.1074 43.874 39.0952 43.7901C39.083 43.7063 38.99 43.4486 38.8909 43.2184C38.7903 42.9882 38.7079 42.7306 38.7079 42.6467C38.7079 42.5629 38.6226 42.4927 38.5174 42.4912C38.3944 42.4892 38.4071 42.445 38.5555 42.3586C38.7522 42.2473 38.7461 42.2153 38.5174 42.1329C38.371 42.0796 38.2506 41.9332 38.2506 41.8082C38.2506 41.6817 38.182 41.5795 38.0981 41.5795C38.0127 41.5795 37.996 41.4713 38.06 41.331C38.1484 41.1389 38.1057 41.0947 37.8725 41.1404C37.6911 41.1755 37.5706 41.1145 37.5676 40.988C37.566 40.8721 37.0843 40.5169 36.4973 40.1998C35.4972 39.6586 35.3051 39.6128 33.4482 39.4604C32.3581 39.3719 30.951 39.3003 30.3229 39.3003C29.6932 39.3003 28.6306 39.1905 27.9598 39.0548C27.289 38.9176 26.6395 38.7957 26.516 38.7835C26.3925 38.7697 26.1349 38.6219 25.9458 38.4542C25.6699 38.2102 25.6394 38.1096 25.7903 37.9526C25.9413 37.794 25.9184 37.7574 25.6729 37.7651C25.4915 37.7727 25.2903 37.6202 25.1775 37.3915C25.0067 37.0439 25.0219 36.9921 25.3299 36.8625C25.519 36.7848 25.5876 36.7162 25.4824 36.7101C25.3772 36.7055 25.1881 36.5972 25.0631 36.4722C24.9366 36.3457 24.8863 36.2451 24.9488 36.2481C25.0113 36.2512 24.9533 36.1307 24.8192 35.9813C24.685 35.8319 24.5234 35.6246 24.4609 35.5194C24.3877 35.3989 24.435 35.3288 24.5905 35.3288V35.3288ZM32.038 36.2771C35.0353 36.2588 37.5157 36.2954 37.5508 36.3579C37.5843 36.4204 35.9896 36.4555 34.0062 36.4341C32.0227 36.4128 29.5408 36.3762 28.4934 36.3518C27.4445 36.3289 29.0407 36.2954 32.038 36.2771V36.2771ZM15.7663 62.1992C15.8944 62.2206 16.0484 62.3181 16.1094 62.4172C16.1703 62.5163 16.5972 62.6246 17.8977 62.7145L16.9448 62.7435C16.1871 62.7648 15.992 62.7237 15.992 62.5422C15.992 62.4157 15.9234 62.3486 15.8395 62.3898C15.7557 62.4309 15.652 62.3974 15.6108 62.3136C15.5681 62.2297 15.6398 62.1779 15.7663 62.1992ZM46.7119 62.6749C47.6343 62.6749 48.0459 62.6993 47.6266 62.7313C47.2074 62.7618 46.4527 62.7618 45.9496 62.7313C45.4465 62.7008 45.7895 62.6764 46.7119 62.6749Z" fill="#2A2730"/>
<path fill-rule="evenodd" clip-rule="evenodd" d="M14.2386 0.283574C14.3225 0.275952 14.2874 0.339983 14.1624 0.428408C13.9962 0.545799 14.1731 0.565618 14.8103 0.503111C15.3317 0.451276 15.7175 0.477194 15.7632 0.568668C15.8059 0.652518 16.1992 0.721124 16.6398 0.721124C17.0819 0.721124 17.8153 0.862908 18.2787 1.03823C18.7407 1.21356 19.2544 1.39803 19.4221 1.44682C19.5898 1.49713 20.0533 1.76545 20.4512 2.04444C21.0885 2.48962 21.3522 2.56889 22.6618 2.70153C23.479 2.78386 24.5249 2.92107 24.9868 3.00644C25.4487 3.09182 27.4032 3.20616 29.3318 3.25799C32.1919 3.33727 33.6112 3.29458 37.0308 3.02626C39.3375 2.84484 41.6701 2.6375 42.2143 2.56432C42.7586 2.49114 43.6169 2.28227 44.12 2.10085C44.6232 1.91943 45.2071 1.67245 45.4159 1.55201C45.6263 1.43157 46.0029 1.2532 46.2544 1.15562C46.506 1.05653 46.9176 0.948283 47.1692 0.913219C47.4207 0.878154 48.0046 0.763811 48.465 0.657092C49.0154 0.530553 49.6695 0.503111 50.3707 0.57629C50.9577 0.637273 51.6605 0.660141 51.9334 0.628125C52.2063 0.594585 52.4289 0.637273 52.4289 0.721124C52.4289 0.804975 52.5051 0.821745 52.5981 0.759238C52.6911 0.696731 52.8283 0.747041 52.9015 0.87358C52.9889 1.02299 53.0337 1.03569 53.0357 0.911694C53.0372 0.801925 53.1195 0.768385 53.2293 0.832417C53.3345 0.894924 53.4717 0.963529 53.5342 0.984873C53.5967 1.00774 53.7858 1.02604 53.9535 1.02604C54.1557 1.02604 54.2193 1.08905 54.144 1.21508C54.0688 1.3401 54.0942 1.36551 54.2203 1.29131C54.3255 1.2288 54.5176 1.26387 54.6456 1.36906C54.7752 1.47426 54.8789 1.5078 54.8743 1.44529C54.8713 1.38278 55.0222 1.41327 55.2112 1.5139C55.4003 1.61452 55.6579 1.71514 55.7829 1.73496C55.908 1.7563 56.0284 1.84625 56.0497 1.93315C56.0711 2.02157 56.1565 2.05969 56.2403 2.017C56.3242 1.97431 56.3928 2.00938 56.3928 2.09323C56.3928 2.17708 56.4507 2.22892 56.5208 2.20757C56.5925 2.18623 56.9858 2.38442 57.3975 2.64817C57.8091 2.91192 58.515 3.46076 58.9662 3.86782C59.4175 4.27488 60.0944 5.02039 60.471 5.52349C60.846 6.0266 61.3857 6.9017 61.6693 7.46731C61.9544 8.03292 62.1892 8.54822 62.1922 8.61073C62.1968 8.67324 62.1114 8.64732 62.0016 8.55127C61.8629 8.42778 61.5809 8.41864 61.0427 8.51926C60.6234 8.59701 60.006 8.66714 59.6706 8.67324C59.3352 8.67934 58.9235 8.6153 58.7558 8.5284C58.5409 8.41711 58.3747 8.42321 58.1902 8.54822C58.0469 8.6458 57.9265 8.84551 57.9234 8.99187C57.9204 9.13823 57.8487 9.25867 57.7649 9.25867C57.681 9.25867 57.5956 9.16415 57.5743 9.0498C57.5423 8.87753 57.3868 8.8882 56.6977 9.10774C56.2373 9.2541 55.8073 9.34862 55.7448 9.3166C55.6823 9.28459 55.2707 9.38826 54.8301 9.54681C54.3895 9.70537 53.7553 9.97674 53.4199 10.1505C53.0845 10.3243 52.6439 10.6232 52.4396 10.8152C52.2353 11.0073 51.9837 11.3702 51.8785 11.6217C51.7749 11.8733 51.6819 12.4907 51.6712 12.9938C51.6621 13.497 51.7642 14.2852 51.8999 14.7471C52.0615 15.302 52.1209 15.921 52.0722 16.5766C52.034 17.1208 51.8984 17.8069 51.7718 18.1011C51.6453 18.3954 51.3465 18.8573 51.1086 19.1287C50.8708 19.4001 50.6406 19.6242 50.5994 19.6272C50.5583 19.6303 50.4714 19.426 50.4089 19.1714C50.3464 18.9183 50.0887 18.2643 49.8372 17.72C49.5231 17.0385 49.3203 16.7641 49.1907 16.8434C49.0657 16.9186 49.0403 16.8932 49.1145 16.7671C49.177 16.6619 49.1587 16.4394 49.0749 16.2717C48.991 16.104 48.8706 15.9927 48.8081 16.0247C48.7456 16.0567 48.6937 15.9698 48.6937 15.8341C48.6937 15.6969 48.6084 15.6024 48.5032 15.6237C48.398 15.6451 48.3294 15.5414 48.3507 15.395C48.372 15.2487 48.3202 15.1404 48.2364 15.1542C48.1525 15.1679 48.0671 15.0993 48.0473 15.0017C48.0275 14.9041 47.9558 14.4803 47.8888 14.061C47.8217 13.6418 47.4954 12.7941 47.1631 12.1782C46.8018 11.5074 46.0684 10.5347 45.3397 9.76025C44.3914 8.75404 43.8822 8.35003 43.0529 7.94755C42.4659 7.66245 41.4368 7.29046 40.766 7.12123C40.0952 6.95353 38.7917 6.74009 37.8693 6.65014C36.9226 6.55715 32.4068 6.47482 27.5023 6.4611C21.4544 6.44585 18.2559 6.49616 16.9828 6.6288C15.9766 6.734 14.8439 6.91847 14.4673 7.03891C14.0908 7.15782 13.8666 7.26149 13.9718 7.26607C14.077 7.27217 13.8834 7.603 13.5434 8.00091C13.2035 8.39882 12.8437 8.97663 12.743 9.28459C12.5936 9.745 12.6013 9.89441 12.7827 10.1231C12.9763 10.367 12.9763 10.3792 12.7827 10.2191C12.6043 10.0713 12.5098 10.1079 12.2948 10.4097C12.1485 10.6155 12.0616 10.8518 12.1042 10.9357C12.1469 11.0195 12.0951 11.0516 11.9899 11.0073C11.8756 10.9601 11.7231 11.1293 11.6103 11.4266C11.5066 11.7025 11.4228 12.0974 11.4228 12.3078C11.4243 12.6752 11.3999 12.6844 10.7733 12.5639C10.415 12.4938 9.8479 12.2773 9.51249 12.0806C9.08561 11.8321 8.82034 11.5257 8.62825 11.0638C8.427 10.5789 8.10989 10.2283 7.44671 9.75415C6.94818 9.39741 6.45422 9.10774 6.34903 9.11079C6.24383 9.11231 6.10205 9.062 6.03192 8.99645C5.96179 8.93089 5.78951 8.87296 5.65078 8.86686C5.51052 8.86076 4.66134 8.79215 3.76184 8.7144C2.21594 8.58024 2.11532 8.58939 1.89883 8.87753C1.77381 9.04523 1.66862 9.13061 1.66557 9.0681C1.66252 9.00559 1.81955 8.59396 2.01317 8.15336C2.20832 7.71276 2.67483 6.87273 3.0514 6.28577C3.42949 5.69882 4.11097 4.83744 4.56681 4.37245C5.02266 3.90593 5.70566 3.3144 6.08223 3.05675C6.45879 2.7991 7.21498 2.34173 7.75925 2.04139C8.30504 1.73953 8.80357 1.54286 8.86913 1.60385C8.93468 1.6633 8.98347 1.60994 8.97889 1.4834C8.97432 1.35687 9.02311 1.30503 9.08866 1.36754C9.15422 1.43004 9.27618 1.41937 9.36004 1.34314C9.44389 1.26692 9.95919 1.08549 10.5035 0.937612C11.0492 0.789729 11.8039 0.681485 12.1805 0.698255C12.7156 0.719599 12.8162 0.689108 12.6378 0.556471C12.4351 0.405539 12.4351 0.394867 12.6378 0.458899C12.7629 0.498538 13.1409 0.478718 13.4764 0.414687C13.8118 0.350655 14.1548 0.292722 14.2386 0.283574V0.283574ZM26.1302 9.63524C32.1675 9.63524 34.6708 9.65506 31.6949 9.67792C28.7174 9.70079 23.7778 9.70079 20.718 9.67792C17.6582 9.65506 20.093 9.63524 26.1302 9.63524ZM44.2344 25.7331C44.3807 25.7285 44.5012 25.7575 44.5012 25.8002C44.5012 25.8413 44.3198 26.2362 44.0972 26.6768C43.8746 27.1174 43.3257 27.8538 42.8775 28.3157C42.4293 28.7761 42.1137 29.2045 42.1762 29.2655C42.2387 29.328 42.1534 29.3615 41.9857 29.3417C41.818 29.3219 41.6914 29.3753 41.7067 29.4591C41.7204 29.543 41.6167 29.6207 41.478 29.6329C41.3377 29.6451 40.7767 29.8387 40.2324 30.0644C39.6881 30.2885 39.1561 30.4333 39.0509 30.386C38.9457 30.3373 38.8603 30.3662 38.8603 30.4501C38.8603 30.5339 38.7063 30.5766 38.5173 30.5446C38.3282 30.5126 38.0706 30.5431 37.9456 30.6117C37.8099 30.6864 37.6361 30.6635 37.5202 30.5553C37.4089 30.4547 37.3251 30.4409 37.3281 30.5263C37.3327 30.6254 35.3889 30.6818 31.8092 30.6894C27.8713 30.6971 26.1836 30.7519 25.9396 30.88C25.7506 30.9791 25.5631 31.0248 25.5204 30.9837C25.4792 30.941 25.589 30.6163 25.7658 30.2595C25.9427 29.9028 26.3025 29.3875 26.5662 29.113C26.8818 28.7853 27.1883 28.616 27.4642 28.6176C27.6944 28.6191 28.0374 28.5398 28.2265 28.4422C28.4567 28.3218 29.7922 28.2532 32.3047 28.2349C34.3598 28.2196 36.6573 28.1282 37.412 28.0291C38.1666 27.9315 39.1271 27.7425 39.5464 27.6083C39.9656 27.4741 40.6867 27.1525 41.1472 26.8948C41.6076 26.6371 42.4324 26.2713 42.9766 26.0837C43.5209 25.8962 44.088 25.7377 44.2344 25.7331V25.7331Z" fill="#3B3A42"/>
<path d="M15.9675 0.292645C17.1124 0.265203 18.0622 0.230138 18.079 0.211843C18.0958 0.193549 25.0935 0.18745 33.6295 0.198122C42.1671 0.20727 49.6664 0.266728 50.2945 0.329235C50.9242 0.391742 51.5065 0.507608 51.5904 0.585361C51.6849 0.673786 51.3678 0.693605 50.7519 0.635672C50.2076 0.583836 49.6923 0.519805 49.6085 0.490838C49.5246 0.463396 49.0444 0.532001 48.5413 0.644819C48.0382 0.757637 47.4207 0.878077 47.1692 0.913142C46.9176 0.948207 46.506 1.05645 46.2544 1.15555C46.0029 1.25312 45.6263 1.43149 45.4159 1.55193C45.2071 1.67237 44.6232 1.91935 44.12 2.10078C43.6169 2.2822 42.7586 2.49106 42.2143 2.56424C41.6701 2.63742 39.3375 2.84476 37.0308 3.02618C33.6112 3.29451 32.1919 3.3372 29.3318 3.25792C27.4032 3.20608 25.4487 3.09174 24.9868 3.00637C24.5249 2.92099 23.479 2.78378 22.6618 2.70145C21.3522 2.56882 21.0885 2.48954 20.4512 2.04437C20.0533 1.76537 19.5898 1.49705 19.4221 1.44674C19.2544 1.39795 18.7407 1.21348 18.2787 1.03816C17.8153 0.862831 17.0819 0.721047 16.6398 0.721047C16.1992 0.721047 15.8059 0.652442 15.7632 0.568591C15.7175 0.477117 15.3668 0.454249 14.8866 0.512182C14.446 0.565542 14.0404 0.548772 13.9856 0.474068C13.9291 0.399365 14.7981 0.318563 15.9675 0.292645Z" fill="#403D46"/>
<path d="M17.0591 6.66531C18.108 6.58146 19.2743 6.48694 19.6508 6.45492C20.0289 6.42291 23.973 6.42291 28.4171 6.45492C32.8612 6.48694 37.1833 6.58146 38.0218 6.66379C38.8603 6.74764 40.0952 6.95346 40.766 7.12268C41.4368 7.29038 42.4659 7.66238 43.0529 7.94747C43.8822 8.34995 44.3929 8.75396 45.3397 9.75865C46.1081 10.5743 46.7972 11.4951 47.2027 12.2513C47.6128 13.0136 47.8461 13.6463 47.843 14.5183L47.4299 14.0274C47.2027 13.7561 46.9481 13.5304 46.8643 13.5243C46.7804 13.5182 46.8155 13.6371 46.9405 13.7881C47.1494 14.0381 47.1463 14.0442 46.9024 13.8704C46.756 13.7652 46.6676 13.628 46.7072 13.5655C46.7469 13.503 46.5914 13.2728 46.3642 13.0548C46.1355 12.8367 45.6416 12.4495 45.2635 12.1949C44.8854 11.9403 44.0972 11.489 43.5102 11.1933C42.9233 10.896 41.8606 10.4828 41.1472 10.2755C40.4337 10.0666 39.0616 9.82116 38.098 9.73121C37.0125 9.62754 32.1019 9.56655 25.2155 9.5696C15.1076 9.57265 14.0145 9.59705 12.5281 10.0971L12.7385 9.41105C12.8543 9.03448 13.0297 8.62285 13.1288 8.49631C13.2279 8.36977 13.5175 8.04352 13.7736 7.7691C14.0953 7.42454 14.1685 7.26904 14.01 7.26294C13.8849 7.25989 14.0908 7.15775 14.4673 7.03731C14.8439 6.91687 16.0117 6.75069 17.0591 6.66531Z" fill="#403D46"/>
<path d="M33.9817 30.7168C33.0182 30.7427 31.5089 30.7427 30.6277 30.7168C29.748 30.6894 30.5362 30.668 32.3809 30.668C34.2256 30.668 34.9452 30.6894 33.9817 30.7168Z" fill="#403D46"/>
<path d="M34.5915 31.0217C33.3749 31.0476 31.4204 31.0476 30.2465 31.0217C29.0726 30.9958 30.0666 30.9745 32.4571 30.9745C34.8477 30.9745 35.8081 30.9958 34.5915 31.0217Z" fill="#403D46"/>
<path d="M25.7111 36.3487C25.4809 36.2908 25.2888 36.1764 25.2842 36.0956C25.2812 36.0148 25.4016 35.9904 25.551 36.0438C25.702 36.0956 25.8941 36.1962 25.9779 36.2664C26.0618 36.3365 26.1807 36.3426 26.2432 36.2801C26.3057 36.2176 26.4765 36.2237 26.6243 36.2908C26.7722 36.3594 29.2771 36.4097 32.1905 36.4051C36.6803 36.3975 37.5067 36.4295 37.6058 36.6185C37.6713 36.7405 37.6896 36.928 37.6454 37.0378C37.5966 37.1628 37.6362 37.1933 37.7567 37.1201C37.8827 37.0449 37.9457 37.1084 37.9457 37.3107C37.9457 37.4784 38.0662 37.6827 38.2125 37.7635C38.3589 37.8443 38.4107 37.9129 38.3269 37.9129C38.243 37.9144 38.3116 38.0242 38.4793 38.1583C38.647 38.291 38.6989 38.3611 38.5937 38.3123C38.4885 38.2651 38.3528 38.3108 38.2903 38.416C38.2161 38.542 38.2415 38.5674 38.3665 38.4922C38.4793 38.4236 38.6928 38.5242 38.8986 38.7438C39.0876 38.945 39.362 39.3216 39.5084 39.5823C39.763 40.032 39.763 40.0534 39.5084 40.0107C39.356 39.9863 39.2584 39.8567 39.2797 39.7058C39.3026 39.5457 39.2157 39.4435 39.051 39.442C38.8224 39.4405 38.8178 39.4192 39.0129 39.2926C39.2157 39.1615 39.2157 39.1447 39.0129 39.1386C38.8879 39.1356 38.6531 39.0136 38.4915 38.8688C38.2781 38.6782 38.2323 38.6691 38.3253 38.8352C38.394 38.9618 38.2827 38.8932 38.0784 38.6828C37.8421 38.4419 37.7323 38.1904 37.7811 37.9967C37.8344 37.7848 37.8009 37.7269 37.6728 37.8062C37.5707 37.8687 37.4884 38.0242 37.4884 38.1492C37.4884 38.2757 37.4533 38.3779 37.4121 38.3779C37.371 38.3779 37.1987 38.2407 37.031 38.073C36.8633 37.9053 36.5096 37.7162 36.2458 37.6537C35.9821 37.5912 35.7412 37.4708 35.7107 37.3869C35.6787 37.3 34.8859 37.2177 33.866 37.1963C32.8811 37.1765 31.3901 37.1338 30.5516 37.1033C29.7131 37.0729 28.4782 36.9555 27.8074 36.8426C27.1366 36.7298 26.5542 36.6002 26.5115 36.5545C26.4704 36.5088 26.3667 36.4676 26.2828 36.463C26.199 36.4585 25.9413 36.4081 25.7111 36.3487Z" fill="#26212D"/>
<path d="M39.7966 40.5504C39.7005 40.529 39.6227 40.4437 39.6227 40.3598C39.6227 40.276 39.6914 40.2074 39.7752 40.2074C39.8591 40.2074 40.1121 40.5336 40.3378 40.9315C40.5649 41.3294 40.908 41.8615 41.1001 42.1131C41.2937 42.3646 41.469 42.7198 41.4903 42.9013C41.5117 43.0827 41.5925 43.2199 41.6702 43.2062C41.7495 43.1924 41.8349 43.3693 41.8608 43.5995C41.8882 43.8297 41.841 44.0188 41.7571 44.0188C41.6733 44.0188 41.6047 43.9502 41.6047 43.8663C41.6047 43.7825 41.4507 43.4913 41.2617 43.2184C41.0726 42.9455 40.8973 42.6207 40.8714 42.4942C40.8454 42.3692 40.6457 41.9911 40.4292 41.6557C40.2128 41.3203 40.0207 40.9437 40.0024 40.8172C39.9856 40.6922 39.8926 40.5717 39.7966 40.5504Z" fill="#26212D"/>
<path d="M42.1002 45.0326C42.0788 44.9365 42.0453 44.5722 42.0239 44.2246C42.0026 43.877 42.0377 43.6193 42.1002 43.6529C42.1627 43.6864 42.1977 43.7946 42.1764 43.8922C42.155 43.9913 42.3106 44.2627 42.5194 44.4944C42.7298 44.7277 43.0362 45.1439 43.2024 45.4214C43.4174 45.7796 43.4403 45.8848 43.2786 45.7873C43.1552 45.7125 43.2802 45.8833 43.5576 46.1684C43.8702 46.4901 44.0242 46.7736 43.9647 46.9154C43.9129 47.042 43.9266 47.0923 43.9952 47.0282C44.0638 46.9642 44.3092 47.2051 44.5395 47.5618C44.7697 47.9186 44.9541 48.2799 44.9511 48.3638C44.948 48.4476 45.0578 48.6199 45.1966 48.7449C45.3353 48.8714 45.8003 49.556 46.2317 50.2664C46.6632 50.9769 47.2745 51.8169 47.5886 52.134C47.9026 52.4496 48.2975 52.7088 48.4652 52.7088C48.6329 52.7088 48.7701 52.7606 48.7701 52.8231C48.7701 52.8856 49.165 52.9161 49.6467 52.8902C50.1285 52.8643 50.6956 52.8429 50.9045 52.8414C51.185 52.8414 51.2247 52.8079 51.057 52.7179C50.8664 52.6158 50.8786 52.5746 51.1332 52.4755C51.3009 52.4099 51.4899 52.3657 51.5524 52.3795C51.615 52.3932 51.6317 52.3352 51.5906 52.2514C51.5494 52.1675 51.5662 52.102 51.6287 52.105C51.6912 52.1081 51.8284 51.9023 51.9336 51.6477C52.0388 51.3931 52.1928 51.2193 52.2766 51.2604C52.3635 51.3031 52.3925 51.2208 52.3437 51.0699C52.298 50.9235 52.33 50.6323 52.4153 50.4219C52.5449 50.1079 52.5663 50.1978 52.5388 50.9326C52.5205 51.4236 52.4535 51.852 52.391 51.8855C52.3284 51.919 52.3422 52.0669 52.423 52.2133C52.5221 52.3947 52.5099 52.5487 52.3849 52.6935C52.24 52.8612 52.2415 52.8856 52.391 52.8079C52.5343 52.7332 52.5632 52.8856 52.5099 53.4329C52.4687 53.8308 52.3711 54.2257 52.2903 54.3096C52.2095 54.3934 52.179 54.5306 52.2217 54.6145C52.2644 54.6983 52.1059 54.924 51.8696 55.1145C51.6317 55.3066 51.2841 55.4606 51.0951 55.4575C50.906 55.456 50.717 55.5216 50.6758 55.6054C50.6347 55.6893 50.1361 55.7564 49.5705 55.7564C49.0049 55.7548 48.2335 55.6466 47.8554 55.5155C47.4773 55.3844 47.0504 55.1618 46.9056 55.0215C46.7607 54.8813 46.6739 54.7151 46.715 54.6526C46.7547 54.5901 46.7028 54.5398 46.5976 54.5398C46.4924 54.5413 46.2866 54.3355 46.1403 54.0824C45.9939 53.8308 45.9085 53.5549 45.9497 53.471C45.9908 53.3872 45.9573 53.3186 45.8735 53.3186C45.7896 53.3186 45.6189 53.0792 45.4923 52.785C45.3673 52.4923 45.195 52.2179 45.1112 52.1752C45.0273 52.134 44.9602 51.9785 44.9602 51.8321C44.9618 51.6858 44.7986 51.2223 44.5959 50.8031C44.3946 50.3838 44.2056 49.9036 44.1751 49.7359C44.1416 49.5514 44.1964 49.4462 44.3108 49.4691C44.416 49.4904 44.4663 49.4386 44.4251 49.3547C44.384 49.2709 44.4236 49.0483 44.5151 48.8592C44.637 48.6062 44.5791 48.6367 44.291 48.9736C44.047 49.2617 43.9022 49.3456 43.9022 49.2023C43.9007 49.0773 43.8016 48.7678 43.6781 48.5162C43.5561 48.2647 43.486 47.9735 43.5211 47.8683C43.5576 47.7631 43.518 47.6777 43.4342 47.6777C43.3503 47.6777 43.2466 47.5573 43.2055 47.4109C43.1613 47.2585 43.2436 47.0648 43.396 46.9612C43.6354 46.7965 43.6278 46.7858 43.3198 46.8468C43.0393 46.9032 42.9905 46.8605 43.053 46.6105C43.1064 46.3956 43.0393 46.2827 42.8243 46.2294C42.6033 46.1745 42.5499 46.08 42.6307 45.8863C42.7176 45.6775 42.6917 45.65 42.5164 45.7568C42.3304 45.8681 42.3243 45.8559 42.4844 45.6805C42.5896 45.5631 42.6764 45.4153 42.6749 45.3528C42.6734 45.2902 42.588 45.2902 42.4844 45.3528C42.3517 45.4336 42.3288 45.3893 42.4081 45.2003C42.4737 45.0417 42.4432 44.8878 42.3304 44.8192C42.2054 44.7439 42.1799 44.7694 42.2541 44.8954C42.3167 45.0006 42.3151 45.1134 42.2526 45.1469C42.1901 45.182 42.1215 45.1302 42.1002 45.0326Z" fill="#26212D"/>
<path d="M60.0519 56.2915C60.1479 56.2427 60.1342 56.1314 60.0168 55.9866C59.8674 55.8051 59.8674 55.7579 60.0168 55.7579C60.1205 55.7579 60.2043 55.8265 60.2043 55.9103C60.2043 55.9942 60.2394 56.1314 60.2806 56.2153C60.3217 56.2991 60.3583 56.4195 60.3598 56.4821C60.3598 56.5446 60.4254 56.4942 60.5047 56.3677C60.6038 56.2107 60.7044 56.1863 60.8233 56.2915C60.9209 56.3753 60.9575 56.5293 60.9072 56.6345C60.8553 56.7397 60.7623 56.7992 60.6998 56.7671C60.6373 56.7351 60.5855 56.8007 60.5855 56.9105C60.5855 57.0217 60.5336 57.0995 60.4711 57.0827C60.4071 57.0675 60.2364 57.2931 60.09 57.5858C59.9436 57.877 59.6524 58.2018 59.4421 58.307C59.2332 58.4121 59.1295 58.496 59.2134 58.496C59.2972 58.4945 59.0746 58.7689 58.7179 59.1073C58.3611 59.4458 57.9846 59.6928 57.8794 59.6562C57.7742 59.6211 57.6126 59.7416 57.5196 59.923C57.4266 60.1059 57.0836 60.3926 56.7573 60.5603C56.431 60.728 56.1139 60.9338 56.053 61.0176C55.9859 61.1076 55.9371 61.0756 55.9325 60.9414C55.9264 60.7447 55.9005 60.7463 55.7404 60.9551C55.6383 61.0878 55.3837 61.2859 55.1733 61.3957C54.9644 61.5055 54.4491 61.6976 54.0299 61.8211C53.6106 61.9446 53.1654 62.0665 53.0389 62.0909C52.9139 62.1168 52.8102 62.1504 52.8102 62.1671C52.8102 62.1824 52.6044 62.222 52.3528 62.2556C52.1013 62.2876 51.5875 62.3394 51.2094 62.3684C50.8313 62.3989 50.438 62.4675 50.3328 62.5208C50.2276 62.5742 49.4394 62.6138 48.5795 62.6093C47.7197 62.6047 46.9147 62.6062 46.7882 62.6123C46.6632 62.6184 43.2908 62.6398 39.295 62.6596C35.2991 62.6779 32.0487 62.6596 32.0731 62.6184C32.096 62.5773 31.8673 62.5818 31.5624 62.6321C31.2575 62.6809 27.6946 62.7145 23.6423 62.7084C16.7894 62.6962 16.2665 62.6763 16.1338 62.4278C16.0561 62.2815 15.8899 62.161 15.7634 62.161C15.6383 62.161 15.5697 62.2297 15.6109 62.3135C15.6536 62.3974 15.7557 62.4309 15.8396 62.3897C15.9234 62.3486 15.992 62.3821 15.992 62.466C15.992 62.5635 15.3731 62.5894 14.2769 62.5376C13.3332 62.4934 12.5282 62.4065 12.4855 62.347C12.4444 62.2861 12.2386 62.2175 12.0282 62.1931C11.8193 62.1671 11.4931 62.1504 11.304 62.1549C11.115 62.158 10.9884 62.1092 11.022 62.0467C11.0555 61.9842 10.9015 61.9278 10.6789 61.9217C10.4564 61.9156 10.1377 61.8531 9.97002 61.7845C9.80232 61.7143 9.56296 61.6381 9.43642 61.6153C9.31141 61.5909 8.8144 61.3789 8.33417 61.1426C7.8524 60.9063 7.45754 60.6106 7.45449 60.484C7.44992 60.2813 7.43467 60.2813 7.32033 60.484C7.21209 60.6731 7.14653 60.6472 6.93919 60.3316C6.80198 60.1227 6.69069 60.0023 6.69069 60.0648C6.69221 60.1273 6.40102 59.9748 6.04427 59.7248C5.68753 59.4763 5.08837 58.9518 4.71028 58.56C4.33371 58.1682 4.1279 57.9029 4.25291 57.9715C4.37945 58.0386 4.21785 57.8252 3.89464 57.4974C3.57296 57.1696 3.22078 56.7306 3.11407 56.5202C2.92807 56.1558 2.93722 56.1421 3.31836 56.2076C3.64309 56.2625 3.69035 56.2335 3.56838 56.0552C3.45709 55.8936 3.46776 55.8646 3.6065 55.9485C3.71017 56.011 3.762 56.1314 3.71932 56.2153C3.67815 56.2991 3.69492 56.3601 3.75743 56.3494C3.81994 56.3403 3.95715 56.3403 4.06234 56.3494C4.16754 56.3601 4.27731 56.5217 4.3078 56.7107C4.3454 56.9374 4.37081 56.8866 4.38403 56.5583C4.39622 56.2839 4.47397 56.0963 4.55783 56.139C4.64168 56.1802 4.69351 56.3357 4.67217 56.4821C4.64676 56.6599 4.72299 56.7361 4.90085 56.7107C5.04721 56.6894 5.16613 56.758 5.1646 56.8632C5.16308 56.9684 5.2637 56.9166 5.38871 56.7489C5.61282 56.4485 5.61587 56.4485 5.62045 56.787C5.62502 57.0843 5.6921 57.1224 6.61598 57.0096L6.23484 57.2946C6.02598 57.4517 5.90554 57.5828 5.96805 57.5843C6.03055 57.5858 6.13422 57.5813 6.19673 57.5736C6.25924 57.5675 6.36138 57.6529 6.42236 57.7642C6.49554 57.8953 6.53366 57.8313 6.53213 57.5874C6.53061 57.2306 6.54738 57.223 6.80198 57.4532C6.95139 57.5889 7.17702 57.6636 7.30204 57.6194C7.5048 57.5462 7.5048 57.566 7.30204 57.7978C7.09622 58.0325 7.10232 58.0569 7.37826 58.0447C7.54597 58.0371 7.76855 58.1377 7.87375 58.2673C7.97894 58.3954 8.13292 58.467 8.21677 58.4259C8.30062 58.3847 8.50644 58.4869 8.67414 58.6546C8.84184 58.8223 8.99583 58.9244 9.01717 58.8802C9.03851 58.8375 9.36477 58.9732 9.74134 59.1836C10.1194 59.394 10.5478 59.5662 10.6942 59.5678C10.8405 59.5678 11.0464 59.6547 11.1516 59.7599C11.2568 59.8651 11.4458 59.9642 11.5708 59.9794C11.6973 59.9962 12.3834 60.1197 13.0954 60.2553C14.033 60.4337 15.2984 60.5038 17.6691 60.5054C19.4726 60.5084 21.0322 60.5725 21.1374 60.6487C21.2503 60.731 21.4058 60.7325 21.5186 60.6533C21.6238 60.5786 22.0003 60.5099 22.3571 60.5008C22.7809 60.4901 23.0065 60.5496 23.0081 60.6746C23.0096 60.824 23.034 60.8255 23.1224 60.6776C23.2078 60.5343 24.3741 60.5008 28.1123 60.5359C30.7955 60.5618 33.0946 60.6456 33.2196 60.7219C33.3858 60.824 33.4163 60.8103 33.3339 60.6731C33.244 60.5237 34.2045 60.4916 37.8848 60.5221C40.4491 60.5435 42.5758 60.6121 42.6109 60.6746C42.6444 60.7371 42.7405 60.7889 42.8243 60.7889C42.9082 60.7889 42.9417 60.7203 42.9006 60.6365C42.8548 60.545 43.143 60.4825 43.6247 60.481C44.0653 60.4795 44.5212 60.5664 44.6386 60.6715C44.7544 60.7783 44.8139 60.7966 44.7666 60.7127C44.7178 60.6228 44.9724 60.5496 45.3932 60.5328C45.7835 60.5191 46.1875 60.5694 46.2927 60.6472C46.407 60.7325 46.5061 60.7341 46.5397 60.6502C46.5702 60.5725 47.3065 60.5084 48.1786 60.5084C49.0491 60.5069 50.2413 60.423 50.8283 60.3239C51.4152 60.2233 51.9808 60.0815 52.086 60.0084C52.1912 59.9337 52.3528 59.926 52.4458 59.9885C52.5388 60.0511 52.6593 60.0343 52.7126 59.9504C52.766 59.8666 53.0511 59.6806 53.3438 59.5357C53.638 59.3924 53.9811 59.2552 54.1061 59.2308C54.2326 59.208 54.3698 59.147 54.411 59.0952C54.4537 59.0448 54.8303 58.8421 55.2495 58.6469C55.6688 58.4518 56.0804 58.2871 56.1642 58.281C56.2481 58.2749 56.5225 58.1255 56.7741 57.9502C57.0256 57.7749 57.3168 57.656 57.422 57.6849C57.5455 57.72 57.579 57.6453 57.5196 57.473C57.4586 57.2977 57.5485 57.1147 57.7864 56.9379C57.9846 56.7915 58.2666 56.6711 58.413 56.6711C58.5593 56.6726 58.6813 56.5872 58.6828 56.4821C58.6849 56.357 58.7306 56.3697 58.82 56.5202C58.9374 56.7184 58.9923 56.7123 59.2378 56.4714C59.3917 56.3189 59.6037 56.232 59.7089 56.2808C59.814 56.3281 59.968 56.3326 60.0519 56.2915Z" fill="#26212D"/>
<path d="M44.425 32.5084C45.3474 32.0602 46.2301 31.6699 46.3856 31.6394C46.5411 31.6104 46.6951 31.6729 46.7286 31.7797C46.7607 31.8864 46.843 31.9748 46.9101 31.9748C46.9771 31.9748 47.1281 31.8894 47.2455 31.7842C47.4269 31.6226 47.4269 31.6394 47.2455 31.8986C47.1266 32.0663 46.718 32.5054 46.3368 32.8758C45.9557 33.2448 45.1096 33.8622 44.457 34.2479C43.8045 34.6321 43.2725 34.9995 43.2755 35.062C43.2786 35.1246 43.3502 35.2115 43.4341 35.2526C43.5179 35.2938 43.5515 35.3974 43.5103 35.4813C43.4691 35.5652 43.5027 35.6338 43.5865 35.6338C43.6704 35.6338 43.7039 35.7024 43.6627 35.7862C43.6216 35.8701 43.6887 35.9737 43.8152 36.0149C43.9402 36.0561 44.0439 36.1933 44.0439 36.3198C44.0439 36.4448 44.1125 36.5485 44.1963 36.5485C44.2802 36.5485 44.3137 36.6171 44.2726 36.7009C44.2314 36.7848 44.2985 36.8885 44.425 36.9296C44.55 36.9708 44.6186 37.0745 44.5775 37.1583C44.5363 37.2422 44.5866 37.448 44.6918 37.6157C44.797 37.7834 44.9388 37.8688 45.0089 37.8063C45.0791 37.7437 45.1233 37.7605 45.105 37.8444C45.0882 37.9282 45.0836 38.0822 45.0928 38.1874C45.1035 38.2926 45.1797 38.3429 45.2635 38.3017C45.355 38.256 45.3718 38.3322 45.3047 38.4923C45.2376 38.6539 45.2529 38.721 45.3428 38.6631C45.4251 38.6112 45.4922 38.6798 45.4922 38.8155C45.4922 38.9588 45.5898 39.0412 45.7209 39.0091C45.9237 38.9619 45.9237 38.9832 45.7209 39.2073C45.5578 39.3872 45.5471 39.4574 45.6828 39.4513C45.791 39.4482 45.8276 39.5275 45.7682 39.6357C45.7041 39.7501 45.7758 39.7348 45.945 39.5976C46.2133 39.3811 46.2179 39.3888 46.0258 39.7501C45.8398 40.1007 45.8429 40.1129 46.0761 39.9025C46.3048 39.6967 46.3262 39.7043 46.2926 39.9788C46.2697 40.1556 46.3338 40.2684 46.4451 40.2456C46.5503 40.2242 46.6189 40.3279 46.5975 40.4742C46.5762 40.6206 46.6448 40.7243 46.75 40.7029C46.8552 40.6816 46.9055 40.7334 46.8643 40.8173C46.8232 40.9011 46.8735 41.1069 46.9787 41.2746C47.0839 41.4423 47.2317 41.5277 47.308 41.4652C47.3857 41.4012 47.4025 41.4362 47.3461 41.5414C47.2897 41.6482 47.4284 41.9089 47.6647 42.1375C47.8949 42.3616 47.9803 42.4943 47.8553 42.4318C47.6525 42.3312 47.6525 42.3418 47.8553 42.5217C47.9803 42.633 48.1053 42.8266 48.1312 42.9517C48.1572 43.0782 48.3142 43.2825 48.4804 43.409C48.645 43.534 48.7959 43.7597 48.8142 43.9076C48.831 44.057 48.9484 44.2445 49.0749 44.3253C49.2 44.4061 49.235 44.4716 49.1512 44.4716C49.0673 44.4716 49.1359 44.5799 49.3036 44.714C49.4713 44.8467 49.5049 44.9122 49.3799 44.8574C49.2533 44.8025 49.2884 44.868 49.4561 45.0007C49.6238 45.1348 49.6924 45.2415 49.6085 45.2385C49.5247 45.2354 49.5933 45.3345 49.761 45.4596C49.9287 45.5846 49.9973 45.6867 49.9135 45.6882C49.8296 45.6898 49.8845 45.7782 50.0339 45.8834C50.1848 45.9901 50.322 46.1837 50.3388 46.3148C50.3571 46.4459 50.4913 46.6685 50.6376 46.8103C50.784 46.9521 50.9044 47.1366 50.9044 47.2204C50.9044 47.3043 50.8526 47.3714 50.7901 47.3683C50.7276 47.3653 50.4181 47.0908 50.104 46.7585C49.79 46.4261 49.5338 46.2386 49.5369 46.3438C49.5384 46.449 49.2777 46.26 48.9545 45.9245C48.6313 45.5891 47.8294 44.8345 47.1723 44.2475C46.5152 43.6606 45.817 43.0264 45.6203 42.8373C45.4236 42.6483 45.262 42.5461 45.2605 42.6086C45.2605 42.6711 45.2087 42.6544 45.1461 42.5705C45.0852 42.4867 44.829 42.2778 44.5775 42.107C44.3259 41.9363 43.6048 41.5292 42.9767 41.2045C42.094 40.7487 41.6488 40.6099 40.2233 40.5886L37.5294 36.3198L31.8306 36.2405C28.6946 36.1978 26.2157 36.146 26.3209 36.1262C26.426 36.1064 26.4764 36.0225 26.4352 35.9387C26.3925 35.8548 26.4108 35.7969 26.4733 35.8106C26.5358 35.8243 26.7767 35.7557 27.0069 35.6581C27.2371 35.5606 27.5801 35.4203 27.7692 35.3456C27.9582 35.2694 29.6215 35.1871 31.4663 35.1611C33.657 35.1291 35.3752 35.0224 36.4211 34.8547C37.3007 34.7129 38.5021 34.4812 39.0891 34.3409C39.676 34.1991 40.7386 33.9125 41.4521 33.7021C42.1641 33.4933 43.5027 32.9551 44.425 32.5084Z" fill="#C6C3CC"/>
<path d="M48.1586 24.8276C48.1479 24.913 48.2364 24.8901 48.3568 24.7773C48.4757 24.663 48.7196 24.5715 48.898 24.5745C49.0901 24.5791 49.209 24.6675 49.1877 24.7941C49.1679 24.9099 49.2532 25.0441 49.3798 25.0914C49.5312 25.1462 49.5693 25.1132 49.4941 24.9923C49.424 24.881 49.4682 24.8093 49.6085 24.8093C49.7441 24.8093 49.8067 24.9023 49.7609 25.038C49.7197 25.163 49.7868 25.3018 49.9134 25.3429C50.0384 25.3856 50.107 25.3505 50.0658 25.2667C50.0247 25.1828 50.0414 25.0868 50.1039 25.0532C50.1664 25.0182 50.2244 25.07 50.2335 25.1676C50.2411 25.2636 50.293 25.5655 50.3479 25.8384C50.4073 26.1326 50.386 26.3339 50.2945 26.3339C50.2107 26.3339 50.1771 26.4025 50.2183 26.4863C50.2594 26.5702 50.1832 26.9986 50.0475 27.4392C49.9103 27.8798 49.5353 28.7549 49.2105 29.383C48.8873 30.0126 48.3126 30.8862 47.9345 31.3268C47.503 31.8269 47.16 32.0982 47.0167 32.051C46.8902 32.0098 46.788 31.8711 46.788 31.7461C46.788 31.5829 46.6904 31.5448 46.445 31.6104C46.2559 31.6622 45.3473 32.0678 44.4249 32.5129C43.5026 32.9581 42.164 33.4932 41.4521 33.7021C40.7386 33.9125 39.6759 34.1991 39.089 34.3409C38.502 34.4811 37.3007 34.7129 36.421 34.8547C35.3736 35.0239 33.6615 35.1291 31.4662 35.1596C28.8851 35.1962 27.9719 35.2617 27.5023 35.4447C27.1669 35.5743 26.7888 35.7709 26.6638 35.8822C26.5373 35.9935 26.3497 36.085 26.2445 36.0865C26.1394 36.0896 25.7963 35.9615 25.4823 35.8045C25.1682 35.6459 24.8069 35.3273 24.6819 35.0955C24.5553 34.8638 24.4761 34.4964 24.502 34.2784C24.5294 34.0588 24.6483 33.8119 24.7672 33.728C24.8862 33.6442 24.9319 33.5085 24.8709 33.4277C24.8084 33.3469 24.8785 33.3636 25.0249 33.4658C25.1713 33.5679 25.3603 33.6167 25.4442 33.5756C25.528 33.5344 25.5615 33.4307 25.5204 33.3469C25.4746 33.2569 25.5997 33.2249 25.8253 33.2706C26.0509 33.3164 26.1759 33.2844 26.1302 33.1944C26.0875 33.1106 26.1394 33.0618 26.2445 33.0846C26.3497 33.1075 26.5205 33.1761 26.6257 33.2371C26.7309 33.2981 26.8498 33.2783 26.8925 33.1944C26.9336 33.1106 26.8833 33.013 26.7781 32.9779C26.6729 32.9429 26.7416 32.9078 26.9306 32.9017C27.1196 32.8956 27.2706 32.9749 27.2675 33.0801C27.2614 33.2325 27.3072 33.2325 27.4962 33.0801C27.6837 32.9276 27.7783 32.9276 27.9658 33.0801C28.1594 33.2356 28.2006 33.2295 28.199 33.042C28.196 32.8575 28.321 32.8331 28.8394 32.9185C29.1946 32.9764 29.6901 32.9977 29.9416 32.9673C30.1932 32.9368 30.399 32.9002 30.399 32.888C30.399 32.8773 30.553 32.8377 30.742 32.8026C30.9311 32.766 31.1155 32.7889 31.1521 32.8514C31.1887 32.9139 31.4799 32.9291 31.8001 32.8849C32.1187 32.8407 32.8779 32.8239 33.4862 32.8468C34.1494 32.8727 34.5915 32.8285 34.5915 32.737C34.5915 32.6456 34.6982 32.6349 34.8583 32.7096C35.0047 32.7782 35.3995 32.8285 35.7349 32.8209C36.1298 32.8117 36.331 32.7401 36.3067 32.6196C36.2853 32.516 36.3371 32.4672 36.421 32.5084C36.5048 32.5495 36.5384 32.6532 36.4972 32.737C36.4561 32.8209 36.61 32.888 36.8403 32.8864C37.168 32.8849 37.2092 32.8529 37.0308 32.7355C36.8738 32.6334 37.0506 32.6105 37.6025 32.6623C38.0431 32.7035 38.3755 32.6852 38.3419 32.6227C38.3084 32.5602 38.4288 32.5053 38.6087 32.5023C38.7886 32.4992 39.1591 32.4474 39.432 32.3879C39.7049 32.3285 39.9 32.2278 39.8665 32.1653C39.833 32.1028 39.9534 32.0586 40.1333 32.0678C40.3132 32.0784 40.5297 32.0449 40.6135 31.9961C40.6974 31.9473 40.8681 31.8909 40.9947 31.8726C41.1197 31.8528 41.2401 31.7644 41.2615 31.6775C41.2828 31.589 41.4017 31.5174 41.5283 31.5174C41.6533 31.5174 41.757 31.4488 41.757 31.3649C41.757 31.2811 41.8103 31.2292 41.8744 31.2506C41.9384 31.2719 42.1152 31.185 42.2662 31.06C42.4171 30.935 42.6732 30.7109 42.8348 30.5645C42.9964 30.4182 43.1977 30.2977 43.2815 30.2977C43.3654 30.2977 43.5361 30.0919 43.6627 29.8404C43.7877 29.5888 43.9264 29.4181 43.9676 29.4592C44.0087 29.5019 44.146 29.4318 44.2725 29.3068C44.3975 29.1818 44.5012 28.9744 44.5012 28.8494C44.5012 28.7244 44.5698 28.6207 44.6536 28.6207C44.7375 28.6207 44.7756 28.5689 44.739 28.5064C44.7024 28.4439 44.8412 28.2548 45.05 28.0871C45.2574 27.9194 45.4708 27.5581 45.5242 27.2852C45.576 27.0108 45.6934 26.7364 45.7833 26.6754C45.8748 26.6129 45.9495 26.4589 45.9495 26.3339C45.9495 26.1936 46.0684 26.1204 46.2544 26.1433C46.5288 26.1769 46.5365 26.1555 46.3306 25.9268C46.1584 25.7363 46.1492 25.6615 46.2925 25.6234C46.3977 25.5945 46.4358 25.4862 46.3779 25.381C46.2925 25.2286 46.323 25.2286 46.5304 25.381C46.7362 25.5335 46.8109 25.5335 46.9008 25.381C46.975 25.255 46.9496 25.2296 46.8246 25.3048C46.7133 25.3719 46.6051 25.3261 46.5593 25.1905C46.5044 25.0273 46.5593 24.9877 46.7499 25.0502C46.8963 25.099 47.2774 25.035 47.5976 24.9054C47.9314 24.7712 48.1693 24.7392 48.1586 24.8276Z" fill="#D0CDD6"/>
<path d="M12.519 10.6689C12.7095 10.4814 13.141 10.2237 13.4764 10.0987C14.0024 9.90203 15.7724 9.87763 26.4352 9.92184C38.252 9.96911 38.8405 9.98435 40.08 10.2832C40.7935 10.4539 41.8912 10.8107 42.5193 11.0744C43.1489 11.3382 44.143 11.8596 44.7299 12.2331C45.3169 12.6051 46.1401 13.2149 46.5594 13.5854C46.9786 13.9574 47.2866 14.2958 47.2454 14.34C47.2043 14.3827 46.0029 14.0199 44.5775 13.5335C43.152 13.0487 41.2996 12.5319 40.4611 12.3886C39.1958 12.1721 38.0279 12.1309 33.6006 12.1508C30.6658 12.163 25.3497 12.1904 21.7853 12.2102C18.2224 12.2316 14.8759 12.3124 14.3515 12.3916C13.827 12.4709 13.3971 12.5883 13.3986 12.6508C13.4002 12.7133 13.2462 12.7621 13.0571 12.7606C12.8681 12.7575 12.5251 12.8947 12.2949 13.0655C11.9412 13.3262 11.8634 13.3384 11.7994 13.1463C11.7567 13.0213 11.7231 12.7118 11.7231 12.4602C11.7231 12.2087 11.8238 11.7803 11.9473 11.5074C12.0692 11.2345 12.3269 10.8579 12.519 10.6689Z" fill="#F0EEF5"/>
<path d="M25.1256 12.2209C30.6933 12.1873 35.2746 12.1325 35.3036 12.102C35.3326 12.07 36.1619 12.073 37.1468 12.1065C38.1317 12.1401 39.6227 12.2758 40.4612 12.4069C41.3485 12.5456 42.9722 12.9847 44.3488 13.4558C45.6478 13.901 46.8491 14.2882 47.0168 14.3156C47.1845 14.3431 47.5961 14.712 47.9316 15.1328C48.267 15.5551 48.8143 16.4134 49.7504 18.1773L49.0704 17.7047C48.6954 17.444 47.7379 16.883 46.9406 16.4561C46.1432 16.0292 44.9083 15.4636 44.1964 15.1999C43.4829 14.9361 42.7633 14.6876 42.5956 14.648C42.4279 14.6068 41.6732 14.4788 40.9186 14.3598C40.1639 14.2425 38.9626 14.151 38.2506 14.1556C37.5371 14.1601 32.1523 14.1891 26.2828 14.2196C16.46 14.2714 15.5544 14.2973 14.8958 14.5489C14.5025 14.6998 14.2113 14.8751 14.2479 14.9377C14.2845 15.0002 14.0924 15.0078 13.8195 14.9544C13.5466 14.8995 13.135 14.7623 12.9047 14.6495C12.6745 14.5352 12.3468 14.2196 11.8711 13.4512L12.2538 13.1082C12.4657 12.9191 12.8087 12.7652 13.0191 12.7652C13.228 12.7652 13.4002 12.6965 13.4002 12.6127C13.4002 12.5288 13.76 12.4206 14.2006 12.3718C14.6412 12.3246 19.5564 12.256 25.1256 12.2209Z" fill="#E9E6EE"/>
<path d="M43.3213 18.063C43.1185 17.906 43.0133 17.7017 43.0651 17.5676C43.1154 17.4425 43.21 17.3389 43.2755 17.3389C43.3426 17.3389 43.3716 17.4075 43.3396 17.4913C43.3075 17.5752 43.3365 17.6438 43.4036 17.6438C43.4707 17.6438 43.6185 17.5584 43.7314 17.4532C43.8945 17.3008 43.9158 17.3008 43.8381 17.4532C43.771 17.5813 43.9494 17.6987 44.3869 17.813C44.7437 17.906 45.3093 18.121 45.6447 18.2917C45.9801 18.4625 46.6326 18.8924 47.093 19.2476C47.5534 19.6028 48.3432 20.0907 48.8463 20.3331C49.3494 20.574 49.9363 20.9429 50.1498 21.1518C50.5279 21.5223 50.537 21.5787 50.5309 23.6155C50.5263 24.7604 50.4699 25.756 50.4044 25.8261C50.3388 25.8962 50.2794 25.7819 50.2717 25.5715C50.2641 25.3626 50.2672 25.1385 50.2763 25.076C50.287 25.0135 50.226 24.9952 50.1421 25.0379C50.0583 25.0806 50.0248 25.1827 50.0659 25.2666C50.1071 25.3504 50.04 25.3855 49.9135 25.3428C49.7884 25.3001 49.7198 25.1629 49.761 25.0379C49.8067 24.9022 49.7442 24.8092 49.6085 24.8092C49.4683 24.8092 49.4241 24.8809 49.4942 24.9922C49.5694 25.1131 49.5313 25.1461 49.3799 25.0913C49.2549 25.044 49.1664 24.9098 49.1847 24.794C49.2091 24.6491 49.0871 24.5912 48.8036 24.6141C48.5764 24.6339 48.3386 24.736 48.2776 24.8428C48.1892 24.9952 48.1648 24.9967 48.1633 24.8473C48.1602 24.704 48.02 24.7162 47.5885 24.8976C47.2744 25.0303 46.8964 25.0989 46.75 25.0501C46.5594 24.9876 46.5045 25.0272 46.5594 25.1904C46.6052 25.326 46.7134 25.3718 46.8247 25.3047C46.9497 25.2295 46.9751 25.2549 46.9009 25.3809C46.811 25.5334 46.7363 25.5334 46.5305 25.3809C46.3231 25.2285 46.2926 25.2285 46.378 25.3809C46.4359 25.4861 46.3978 25.5944 46.2926 25.6233C46.1493 25.6615 46.1585 25.7362 46.3307 25.9267C46.5366 26.1554 46.5289 26.1768 46.2545 26.1432C46.0685 26.1203 45.9496 26.1935 45.9496 26.3338C45.9496 26.4588 45.881 26.6052 45.7971 26.6585C45.7133 26.7119 45.5959 26.9863 45.5364 27.2683C45.477 27.5504 45.2575 27.9193 45.0501 28.087C44.8412 28.2547 44.7025 28.4438 44.7391 28.5063C44.7757 28.5688 44.7376 28.6206 44.6537 28.6206C44.5699 28.6206 44.5013 28.7243 44.5013 28.8493C44.5013 28.9743 44.3991 29.1817 44.2726 29.3067C44.1476 29.4317 44.0088 29.5018 43.9677 29.4591C43.9265 29.4164 43.7893 29.5887 43.6628 29.8403C43.5377 30.0918 43.3655 30.2976 43.2816 30.2976C43.1978 30.2976 42.9965 30.4181 42.8349 30.5644C42.6733 30.7108 42.4172 30.9349 42.2663 31.0599C42.1153 31.1849 41.9385 31.2718 41.8744 31.2505C41.8104 31.2291 41.7571 31.281 41.7571 31.3648C41.7571 31.4487 41.6549 31.5173 41.5284 31.5173C41.4034 31.5173 41.2829 31.5889 41.2616 31.6774C41.2402 31.7643 41.1213 31.8527 40.9948 31.8725C40.8698 31.8908 40.6975 31.9472 40.6136 31.996C40.5298 32.0448 40.3133 32.0783 40.1334 32.0677C39.9535 32.0585 39.8331 32.1027 39.8666 32.1652C39.9001 32.2277 39.705 32.3284 39.4321 32.3878C39.1592 32.4473 38.8848 32.4823 38.8223 32.464C38.7598 32.4473 38.6226 32.4961 38.5174 32.5753C38.4122 32.6546 37.9838 32.6897 37.5645 32.6531C37.034 32.6074 36.8724 32.6333 37.0309 32.7354C37.2093 32.8528 37.1681 32.8848 36.8403 32.8863C36.6101 32.8879 36.4562 32.8208 36.4973 32.7369C36.5385 32.6531 36.5049 32.5494 36.4211 32.5083C36.3372 32.4671 36.2854 32.5159 36.3067 32.6196C36.3311 32.74 36.1299 32.8116 35.735 32.8208C35.3996 32.8284 35.0048 32.7781 34.8584 32.7095C34.6983 32.6348 34.5916 32.6455 34.5916 32.7369C34.5916 32.8284 34.1495 32.8726 33.4863 32.8467C32.878 32.8238 32.1188 32.8406 31.8001 32.8848C31.48 32.929 31.1888 32.9138 31.1522 32.8513C31.1156 32.7888 30.9311 32.7659 30.7421 32.8025C30.5531 32.8376 30.3991 32.8772 30.3991 32.8879C30.3991 32.9001 30.1933 32.9367 29.9417 32.9672C29.6901 32.9976 29.1947 32.9763 28.8394 32.9184C28.3211 32.833 28.1961 32.8574 28.1991 33.0419C28.2007 33.2294 28.1595 33.2355 27.9659 33.08C27.7783 32.9275 27.6838 32.9275 27.4963 33.08C27.3073 33.2324 27.2615 33.2324 27.2676 33.08C27.2707 32.9748 27.1197 32.8955 26.9307 32.9016C26.7416 32.9077 26.673 32.9428 26.7782 32.9778C26.8834 33.0129 26.9353 33.1105 26.8926 33.1943C26.8514 33.2782 26.731 33.298 26.6258 33.237C26.5206 33.176 26.3498 33.1074 26.2446 33.0845C26.1394 33.0617 26.0891 33.1105 26.1303 33.1943C26.176 33.2843 26.051 33.3163 25.8254 33.2705C25.5997 33.2248 25.4747 33.2568 25.5205 33.3468C25.5632 33.4306 25.5281 33.5343 25.4442 33.5755C25.3604 33.6166 25.1759 33.5663 25.0341 33.4611C24.8268 33.3087 24.7963 33.3087 24.8817 33.4611C24.9411 33.5694 24.8878 33.6852 24.7582 33.7279C24.6332 33.7691 24.5249 33.9932 24.5188 34.2234C24.5097 34.5954 24.4929 34.6076 24.377 34.3377C24.3054 34.17 24.2414 33.8102 24.2353 33.5373C24.2292 33.2644 24.2932 33.0068 24.377 32.9656C24.4609 32.9245 24.496 32.8208 24.4533 32.7369C24.4121 32.6531 24.4457 32.5845 24.5295 32.5845C24.6134 32.5845 24.653 32.5326 24.6179 32.4701C24.5829 32.4076 24.6911 32.1835 24.8588 31.9747C25.028 31.7643 25.121 31.6972 25.0646 31.8222C25.0097 31.9472 25.089 31.9 25.2415 31.714C25.3955 31.5295 25.5738 31.4258 25.6394 31.4853C25.7049 31.5447 25.7553 31.5081 25.7537 31.4029C25.7507 31.2978 25.8528 31.2474 25.9778 31.2886C26.1044 31.3298 26.2065 31.313 26.2065 31.2505C26.2065 31.188 28.8135 31.1362 31.9999 31.1362C35.1862 31.1362 37.7947 31.1026 37.7947 31.0599C37.7962 31.0172 38.0356 31.0005 38.3283 31.0218C38.7079 31.0493 38.8268 31.0081 38.746 30.88C38.6637 30.7504 38.7293 30.7291 38.9747 30.8038C39.1714 30.8633 39.3178 30.8419 39.3178 30.755C39.3178 30.6651 39.4885 30.6452 39.737 30.7093C40.0816 30.7977 40.1288 30.7779 40.0038 30.598C39.8834 30.4272 39.9078 30.4044 40.1182 30.4913C40.2691 30.5538 40.385 30.5355 40.385 30.4501C40.385 30.3662 40.4536 30.3312 40.5374 30.3739C40.6213 30.4166 40.8789 30.3571 41.1091 30.2428C41.3393 30.1284 41.5802 29.9226 41.6427 29.7854C41.7052 29.6482 41.8775 29.5369 42.0239 29.5399C42.1702 29.5415 42.6169 29.1984 43.0148 28.7777C43.4127 28.3554 43.739 27.9422 43.739 27.8583C43.739 27.7745 43.8076 27.7394 43.8914 27.7821C43.9753 27.8248 44.0439 27.7897 44.0439 27.7059C44.0439 27.622 44.0378 27.5016 44.0302 27.4391C44.0226 27.3766 44.1262 27.2729 44.2589 27.2104C44.3915 27.1479 44.4662 27.0275 44.425 26.9436C44.3839 26.8598 44.4174 26.7912 44.5013 26.7912C44.5851 26.7912 44.6187 26.7225 44.5775 26.6387C44.5363 26.5548 44.5699 26.4862 44.6537 26.4862C44.7376 26.4862 44.7986 26.4344 44.7879 26.3719C44.7787 26.3094 44.7833 26.224 44.8001 26.1813C44.8169 26.1386 44.8595 25.9679 44.8961 25.8002C44.9312 25.6325 45.0211 25.0486 45.0928 24.5043C45.166 23.96 45.1965 23.1703 45.1614 22.7511C45.1263 22.3318 45.076 21.818 45.0486 21.6076C45.0227 21.3988 44.9159 21.0207 44.8153 20.7691C44.7132 20.5176 44.6187 20.1913 44.6034 20.045C44.5897 19.8971 44.5424 19.7782 44.5013 19.7782C44.4601 19.7782 44.2543 19.4519 44.0454 19.054C43.8366 18.6561 43.5103 18.2094 43.3213 18.063Z" fill="#D8D5DE"/>
<path d="M25.3679 14.2486C30.7344 14.2425 35.5718 14.1983 36.1161 14.1495C36.6604 14.1007 37.8968 14.1053 38.8603 14.1601C39.8238 14.215 40.9916 14.3324 41.4521 14.4208C41.9125 14.5108 42.4278 14.6145 42.5955 14.6526C42.7632 14.6892 43.4828 14.9361 44.1963 15.1999C44.9098 15.4621 46.2758 16.1024 47.2332 16.6223C48.1921 17.1422 49.1602 17.7383 49.3859 17.9487C49.6191 18.1652 49.9058 18.6927 50.0475 19.1683C50.1847 19.6287 50.3403 20.3499 50.3921 20.7691C50.4866 21.5284 50.4866 21.5299 50.2 21.199C50.043 21.0161 49.4667 20.6472 48.9224 20.3804C48.3781 20.112 47.5534 19.6028 47.0929 19.2476C46.6325 18.8924 45.98 18.4625 45.6446 18.2917C45.3092 18.121 44.7436 17.906 44.3868 17.813C43.9493 17.6987 43.7709 17.5813 43.838 17.4532C43.9158 17.3007 43.8944 17.3007 43.7313 17.4532C43.6185 17.5584 43.4706 17.6438 43.4035 17.6438C43.3364 17.6438 43.3166 17.5752 43.3578 17.4913C43.3989 17.4075 43.3654 17.3389 43.2815 17.3389C43.1977 17.3389 43.1062 17.4242 43.0772 17.5294C43.0452 17.6468 42.78 17.4989 42.3912 17.1483C42.0421 16.8342 41.3621 16.3784 40.8803 16.136C40.3986 15.8936 39.6256 15.5704 39.1652 15.4164C38.3862 15.1572 37.4882 15.1343 26.4351 15.0917C19.8948 15.0673 14.4399 15.0063 14.3149 14.959C14.1685 14.9026 14.3575 14.7623 14.8485 14.5657C15.5833 14.2699 15.9599 14.2577 25.3679 14.2486Z" fill="#E2DFE8"/>
<path d="M27.9597 31.1712C27.6243 31.2032 27.1105 31.2032 26.8163 31.1712C26.522 31.1377 26.7964 31.1117 27.4261 31.1117C28.0542 31.1117 28.2951 31.1377 27.9597 31.1712Z" fill="#E2DFE8"/>
<path d="M43.7207 46.1744C41.1335 42.087 40.3605 40.7561 40.5221 40.6707C40.6395 40.6082 40.9825 40.5716 41.2844 40.5899C41.5863 40.6082 42.3486 40.8872 42.9767 41.2104C43.6063 41.5321 44.3259 41.9361 44.5775 42.1069C44.829 42.2776 45.0851 42.4865 45.1461 42.5703C45.2086 42.6542 45.2605 42.6709 45.2605 42.6084C45.262 42.5459 45.4236 42.6481 45.6203 42.8371C45.8169 43.0262 46.5152 43.6604 47.1723 44.2473C47.8294 44.8343 48.6313 45.589 48.9545 45.9244C49.2777 46.2598 49.5384 46.4488 49.5369 46.3436C49.5338 46.2384 49.8067 46.4275 50.1421 46.7629C50.5202 47.141 50.8236 47.33 50.9425 47.2599C51.0685 47.1857 51.094 47.2111 51.0187 47.3361C50.9562 47.4398 50.9898 47.6624 51.095 47.8301C51.2002 47.9978 51.3419 48.0831 51.4121 48.0206C51.4822 47.9581 51.5264 47.9749 51.5081 48.0588C51.4914 48.1426 51.4868 48.2966 51.4959 48.4018C51.5066 48.507 51.5828 48.5573 51.6667 48.5161C51.7505 48.475 51.7841 48.542 51.7429 48.6686C51.7017 48.7936 51.7703 48.9323 51.8954 48.9735C52.0219 49.0147 52.089 49.1519 52.0478 49.2784C52.0067 49.4034 52.0402 49.5071 52.124 49.5071C52.2079 49.5071 52.278 49.7983 52.2796 50.155C52.2811 50.5362 52.1408 51.0789 51.9365 51.4722C51.7033 51.925 51.3923 52.2437 50.9806 52.4541C50.5781 52.6614 50.0857 52.7666 49.5323 52.7635C49.0719 52.7605 48.488 52.6507 48.2364 52.5196C47.9849 52.387 47.6327 52.1187 47.4558 51.9235C47.2775 51.7268 45.5959 49.1397 43.7207 46.1744Z" fill="#BBB9C1"/>
<path d="M11.9367 10.9785C12.1761 10.6233 12.6197 10.1979 12.9231 10.0317C13.2844 9.83506 13.7418 9.73596 14.2388 9.74511C14.6687 9.75425 14.8013 9.78627 14.5437 9.81676C14.2921 9.84725 13.8637 9.90671 13.5908 9.94635C13.3179 9.98751 12.8514 10.2436 12.5526 10.5165C12.2538 10.7894 11.9032 11.2864 11.7736 11.6218C11.6303 11.9893 11.5739 12.4283 11.6303 12.7271C11.6973 13.0808 11.6729 13.1906 11.5479 13.1083C11.4412 13.0382 11.3985 12.7241 11.4382 12.3079C11.4778 11.8917 11.6729 11.3688 11.9367 10.9785Z" fill="#11100E"/>
<path d="M40.6137 10.3229C39.9429 10.1552 38.7431 9.95245 37.9457 9.87469L36.4974 9.73291L37.9457 9.78779C38.7553 9.81676 39.9658 9.98751 40.6899 10.172C41.4034 10.3549 42.466 10.7254 43.053 10.9968C43.64 11.2681 44.4983 11.7301 44.9587 12.0228C45.4191 12.317 46.2683 12.9985 46.8446 13.5382C47.4209 14.0764 48.2548 15.0674 48.6969 15.7382C49.1406 16.409 49.6742 17.3694 49.8846 17.8725C50.0934 18.3757 50.3801 19.1989 50.5188 19.702C50.6606 20.2173 50.8176 21.5666 50.8771 22.7893C50.9441 24.2071 50.9274 24.9618 50.8283 24.9618C50.7353 24.9602 50.6712 24.2269 50.6636 23.0926C50.6575 22.0666 50.5645 20.815 50.4578 20.3118C50.3511 19.8087 50.0675 18.8833 49.8282 18.2537C49.5888 17.6256 49.1055 16.6636 48.7533 16.1193C48.4027 15.575 47.8676 14.8326 47.5657 14.4728C47.2638 14.1115 46.5366 13.433 45.9497 12.9635C45.3627 12.4939 44.1964 11.7773 43.3579 11.3703C42.5194 10.9632 41.2845 10.4921 40.6137 10.3229Z" fill="#11100E"/>
<path d="M44.8063 21.8364C44.7864 21.7526 44.7788 21.6321 44.788 21.5696C44.7986 21.5071 44.8291 21.4553 44.8566 21.4553C44.8855 21.4553 44.916 21.5406 44.9267 21.6458C44.9358 21.751 44.9861 22.2831 45.038 22.8274C45.0898 23.3732 45.0593 24.23 44.9709 24.7331C44.881 25.2362 44.5745 26.128 44.2894 26.715C43.9296 27.4529 43.4829 28.0536 42.8396 28.6588C42.3258 29.1436 41.4842 29.7367 40.9567 29.9837C40.4323 30.2306 39.5572 30.5386 39.0129 30.6682C38.4671 30.7978 37.4396 30.8938 35.4302 30.8618L36.9548 30.7551C37.7933 30.6956 38.891 30.5264 39.3941 30.3801C39.8972 30.2337 40.5832 29.9745 40.9186 29.8053C41.254 29.6361 41.8654 29.2488 42.277 28.9454C42.6886 28.6405 43.2908 28.0155 43.6156 27.5535C43.9388 27.0931 44.3489 26.2698 44.5242 25.724C44.7529 25.0182 44.8444 24.3397 44.8444 23.361C44.8444 22.6063 44.8276 21.9203 44.8063 21.8364Z" fill="#11100E"/>
<path d="M24.7308 31.6881C24.9138 31.4884 25.3376 31.1987 25.673 31.0432C26.0084 30.8893 26.3347 30.7597 26.3972 30.7581C26.4597 30.7566 26.5115 30.8237 26.5115 30.9076C26.5115 30.9914 26.3911 31.0585 26.2447 31.0585C26.0984 31.057 25.6882 31.246 25.333 31.4777C24.9412 31.7339 24.6028 32.1089 24.4732 32.4321C24.3558 32.7264 24.185 33.138 23.9304 33.728L23.9868 33.3468C24.0188 33.138 24.124 32.7599 24.2201 32.5083C24.3177 32.2568 24.5479 31.8878 24.7308 31.6881Z" fill="#11100E"/>
<path d="M58.3047 59.7218C58.3733 59.5968 58.8414 59.0647 59.3445 58.5402C59.8461 58.0158 60.2806 57.5874 60.3095 57.5874C60.3385 57.5874 60.1205 57.8786 59.8262 58.2353C59.532 58.5921 59.0396 59.1241 58.7346 59.4169C58.4282 59.7111 58.2346 59.8483 58.3047 59.7218Z" fill="#11100E"/>
<path d="M56.3655 60.946C56.3502 60.8652 56.5393 60.696 56.7847 60.5709C57.0302 60.4459 57.2543 60.3407 57.2817 60.3377C57.3107 60.3346 57.0698 60.5892 56.7481 60.9033C56.4219 61.2235 56.1215 61.4079 56.0667 61.3226C56.0118 61.2372 55.8791 61.225 55.7618 61.2966C55.6474 61.3652 55.6916 61.3149 55.8593 61.1853C56.027 61.0573 56.2161 60.9826 56.2786 61.0222C56.3411 61.0619 56.3807 61.0283 56.3655 60.946Z" fill="#11100E"/>
<path d="M54.379 61.879C54.3622 61.8089 54.5162 61.6763 54.722 61.5848C54.9278 61.4933 55.1824 61.4156 55.2861 61.4095C55.4187 61.4018 55.4294 61.4659 55.3242 61.6275C55.2404 61.754 55.1047 61.8226 55.0208 61.7799C54.937 61.7388 54.8333 61.7723 54.7921 61.8562C54.751 61.94 54.6473 62.0086 54.5634 62.0086C54.4796 62.0086 54.3973 61.9507 54.379 61.879Z" fill="#11100E"/>
<path d="M40.4613 62.9264C39.7904 62.9325 39.2065 62.899 39.1654 62.8502C39.1242 62.8014 39.7005 62.7648 40.4491 62.7663C41.1961 62.7694 41.78 62.8029 41.7449 62.8425C41.7099 62.8822 41.1321 62.9188 40.4613 62.9264Z" fill="#11100E"/>
<path d="M25.7873 9.83341C19.8125 9.85322 14.9248 9.81664 14.9248 9.75413C14.9248 9.69162 18.0638 9.65656 21.8996 9.6779C25.7354 9.69924 30.6232 9.73431 32.7621 9.75718C34.8996 9.78005 31.762 9.81359 25.7873 9.83341Z" fill="#1B1920"/>
<path d="M12.0281 14.2897C11.8604 14.0381 11.7216 13.7805 11.7186 13.718C11.7155 13.6555 11.8878 13.8095 12.0997 14.061C12.3117 14.3126 12.4855 14.5702 12.4855 14.6327C12.4855 14.6952 12.5891 14.7471 12.7141 14.7471C12.8391 14.7471 12.9428 14.8157 12.9428 14.8995C12.9428 15.0012 12.8412 15.0012 12.6379 14.8995C12.4702 14.8157 12.1958 14.5413 12.0281 14.2897Z" fill="#1B1920"/>
<path d="M50.2138 27.4772C50.2458 27.3095 50.2824 27.1387 50.2946 27.096C50.3083 27.0533 50.3479 27.1052 50.383 27.2104C50.4181 27.3156 50.3495 27.6235 50.2306 27.8964C50.1116 28.1693 49.9744 28.5459 49.9256 28.7349C49.8769 28.924 49.7686 29.0779 49.6848 29.0779C49.5902 29.0779 49.5826 28.9773 49.6665 28.8112C49.7412 28.6648 49.8814 28.3736 49.979 28.1632C50.0766 27.9543 50.1818 27.6449 50.2138 27.4772Z" fill="#1B1920"/>
<path d="M0.70821 46.153C0.680768 47.2019 0.659424 46.4122 0.659424 44.3998C0.659424 42.3874 0.680768 41.5306 0.70821 42.4941C0.734127 43.4576 0.734127 45.1041 0.70821 46.153Z" fill="#1B1920"/>
<path d="M11.9518 0.407089C12.4549 0.309517 13.6212 0.178405 14.5436 0.115898C15.4659 0.0549152 23.3205 0.00155557 31.9998 3.10056e-05C40.6791 -0.00149356 48.5687 0.0533907 49.5323 0.123521C50.4958 0.19365 51.8344 0.361352 52.5052 0.498563C53.176 0.634249 54.2569 0.946784 54.9063 1.19071C55.5558 1.43617 56.1229 1.70449 56.1641 1.78834C56.2053 1.87219 55.8119 1.7609 55.2875 1.54136C54.763 1.32183 54.0267 1.05045 53.6486 0.937637C53.2705 0.824819 52.3451 0.634249 51.5904 0.513808C50.8358 0.393368 49.3615 0.275977 48.3126 0.253108C47.2652 0.23024 39.307 0.211945 30.6277 0.21347C18.9816 0.216519 14.4292 0.266829 13.2477 0.407089C12.3665 0.512284 11.0813 0.762312 10.3891 0.965079C9.69699 1.16632 8.70298 1.54594 8.17853 1.80816C7.65408 2.07191 6.91619 2.48812 6.53962 2.73357C5.93132 3.13148 5.90541 3.13758 6.31094 2.78998C6.56249 2.57349 7.28209 2.12832 7.91173 1.80054C8.53985 1.47276 9.50032 1.0657 10.0461 0.896473C10.5919 0.725722 11.4487 0.506186 11.9518 0.407089Z" fill="#706F73"/>
<path d="M31.2375 15.1664C28.0085 15.1892 22.796 15.1892 19.6509 15.1664C16.5057 15.1435 19.1478 15.1252 25.5204 15.1252C31.8931 15.1252 34.4665 15.1435 31.2375 15.1664Z" fill="#706F73"/>
<path d="M50.7108 24.0469C50.6772 24.3412 50.6513 24.0668 50.6513 23.4371C50.6513 22.809 50.6772 22.5681 50.7108 22.9035C50.7428 23.2389 50.7428 23.7527 50.7108 24.0469Z" fill="#706F73"/>
</svg>
