<svg width="112" height="65" viewBox="0 0 112 65" fill="none" xmlns="http://www.w3.org/2000/svg">
<path d="M87.5636 16.25H24.4364C28.0611 6.90625 40.8087 0 56 0C71.1913 0 83.9389 6.90625 87.5636 16.25ZM48.8727 16.25H112C108.375 25.5937 95.6276 32.5 80.4364 32.5C65.2451 32.5 52.4975 25.5937 48.8727 16.25ZM63.1273 48.75H0C3.62473 39.4063 16.3724 32.5 31.5636 32.5C46.7549 32.5 59.5025 39.4063 63.1273 48.75ZM24.4364 48.75H87.5636C83.9389 58.0937 71.1913 65 56 65C40.8087 65 28.0611 58.0937 24.4364 48.75Z" fill="#4DB6AC"/>
</svg>
