<svg width="38" height="27" viewBox="0 0 38 27" fill="none" xmlns="http://www.w3.org/2000/svg">
<g opacity="0.8">
<path d="M37.3846 22.8462C37.3846 23.9478 36.947 25.0044 36.168 25.7834C35.389 26.5624 34.3324 27 33.2308 27H4.15385C3.05218 27 1.99563 26.5624 1.21663 25.7834C0.437636 25.0044 0 23.9478 0 22.8462V4.15385C0 3.05218 0.437636 1.99563 1.21663 1.21663C1.99563 0.437636 3.05218 0 4.15385 0H33.2308C34.3324 0 35.389 0.437636 36.168 1.21663C36.947 1.99563 37.3846 3.05218 37.3846 4.15385V22.8462Z" fill="#009B3A"/>
<path d="M33.9869 13.4987L18.6924 25.0505L3.39795 13.4987L18.6924 1.9458L33.9869 13.4987Z" fill="#FEDF01"/>
<path d="M18.6673 20.1286C22.3711 20.1286 25.3736 17.126 25.3736 13.4222C25.3736 9.71837 22.3711 6.71582 18.6673 6.71582C14.9634 6.71582 11.9609 9.71837 11.9609 13.4222C11.9609 17.126 14.9634 20.1286 18.6673 20.1286Z" fill="#002776"/>
<path d="M12.7492 10.2687C12.4008 10.925 12.1649 11.6351 12.0514 12.3695C16.2 12.0683 21.8306 14.3332 24.2471 17.1412C24.6645 16.514 24.974 15.812 25.164 15.0601C22.1816 12.1441 16.9425 10.252 12.7492 10.2687Z" fill="#CBE9D4"/>
<path d="M12.4617 13.7429H13.5001V14.7814H12.4617V13.7429ZM13.5001 15.8198H14.5386V16.8583H13.5001V15.8198Z" fill="#88C9F9"/>
<path d="M15.5767 13.7432H16.6151V14.7816H15.5767V13.7432ZM17.6536 14.7816H18.692V15.8201H17.6536V14.7816ZM21.8074 16.8586H22.8459V17.897H21.8074V16.8586ZM18.692 17.897H19.7305V18.9355H18.692V17.897ZM21.8074 11.6663H22.8459V12.7047H21.8074V11.6663Z" fill="#55ACEE"/>
<path d="M19.7308 15.8196H20.7693V16.858H19.7308V15.8196Z" fill="#3B88C3"/>
</g>
</svg>
