<svg width="14" height="14" viewBox="0 0 14 14" fill="none" xmlns="http://www.w3.org/2000/svg">
<path fill-rule="evenodd" clip-rule="evenodd" d="M7.33249 9.0709L11.6768 13.4153C11.9074 13.6458 12.22 13.7753 12.546 13.7753C12.8721 13.7753 13.1847 13.6458 13.4152 13.4153C13.6458 13.1847 13.7753 12.8721 13.7753 12.5461C13.7753 12.22 13.6458 11.9074 13.4152 11.6769L9.06925 7.3325L13.4144 2.98814C13.5285 2.874 13.619 2.7385 13.6807 2.58938C13.7425 2.44026 13.7742 2.28045 13.7742 2.11906C13.7741 1.95767 13.7423 1.79787 13.6805 1.64879C13.6187 1.4997 13.5282 1.36424 13.414 1.25015C13.2999 1.13606 13.1644 1.04557 13.0153 0.983845C12.8661 0.922119 12.7063 0.890369 12.5449 0.890407C12.3835 0.890446 12.2237 0.922271 12.0747 0.984066C11.9256 1.04586 11.7901 1.13642 11.676 1.25056L7.33249 5.59492L2.98813 1.25056C2.87483 1.13314 2.73927 1.03946 2.58938 0.974992C2.43949 0.91052 2.27826 0.876546 2.11509 0.875052C1.95193 0.873557 1.7901 0.904573 1.63905 0.966289C1.48801 1.028 1.35076 1.11919 1.23533 1.23451C1.1199 1.34983 1.02859 1.48699 0.966728 1.63798C0.904869 1.78897 0.873701 1.95077 0.875041 2.11393C0.876382 2.2771 0.910204 2.43836 0.974535 2.58832C1.03887 2.73827 1.13242 2.87391 1.24973 2.98732L5.59573 7.3325L1.25055 11.6777C1.13324 11.7911 1.03968 11.9267 0.975354 12.0767C0.911024 12.2266 0.877201 12.3879 0.875861 12.5511C0.87452 12.7142 0.905688 12.876 0.967547 13.027C1.02941 13.178 1.12071 13.3152 1.23615 13.4305C1.35158 13.5458 1.48883 13.637 1.63987 13.6987C1.79092 13.7604 1.95275 13.7914 2.11591 13.7899C2.27908 13.7885 2.44031 13.7545 2.5902 13.69C2.74009 13.6255 2.87564 13.5319 2.98895 13.4144L7.33249 9.0709Z" fill="#E4E4E4"/>
</svg>
