<svg width="120" height="74" viewBox="0 0 120 74" fill="none" xmlns="http://www.w3.org/2000/svg">
<path d="M39.5 11.25H55.3008C58.2445 11.2501 61.0679 12.4194 63.1494 14.501C65.231 16.5825 66.4003 19.4058 66.4004 22.3496V61.8496C66.4004 64.7935 65.2311 67.6176 63.1494 69.6992C61.0679 71.7807 58.2445 72.9501 55.3008 72.9502H39.5C36.5563 72.9501 33.7329 71.7807 31.6514 69.6992C29.5697 67.6176 28.4004 64.7935 28.4004 61.8496V22.3496C28.4005 19.4058 29.5698 16.5825 31.6514 14.501C33.7329 12.4194 36.5562 11.2501 39.5 11.25ZM39.5 17.6504C38.2536 17.6505 37.0581 18.145 36.1768 19.0264C35.2954 19.9077 34.8009 21.1032 34.8008 22.3496V61.8496C34.8008 63.0961 35.2953 64.2924 36.1768 65.1738C37.0581 66.0551 38.2537 66.5497 39.5 66.5498H55.3008C56.5471 66.5497 57.7427 66.0551 58.624 65.1738C59.5054 64.2924 60 63.0961 60 61.8496V22.3496C59.9999 21.1032 59.5054 19.9077 58.624 19.0264C57.7427 18.145 56.5472 17.6505 55.3008 17.6504H39.5Z" fill="url(#paint0_linear_773_441)" stroke="#2E105A" stroke-width="1.5"/>
<path d="M8.90234 23.5033C10.456 23.0753 12.0842 22.9914 13.6738 23.2562L22.9502 24.8021V31.2875L12.6211 29.5658L12.3672 29.5306C11.7752 29.4651 11.1753 29.5124 10.5996 29.6713C9.94158 29.8529 9.3312 30.1761 8.81055 30.6176C8.28993 31.059 7.87168 31.6084 7.58496 32.2279C7.29824 32.8474 7.15002 33.5218 7.15039 34.2045V53.6273C7.1514 54.3092 7.30057 54.9826 7.58789 55.601C7.87519 56.2192 8.29309 56.768 8.81348 57.2084C9.3339 57.6488 9.9443 57.9707 10.6016 58.1517C11.2589 58.3328 11.9485 58.369 12.6211 58.2572L22.9502 56.5365V63.0238L13.6738 64.5746C12.0836 64.8395 10.4546 64.7549 8.90039 64.3265C7.34618 63.8981 5.90379 63.1364 4.67383 62.0941C3.44381 61.0518 2.45595 59.7534 1.77832 58.2904C1.10071 56.8275 0.749582 55.2347 0.75 53.6224V34.2006C0.750652 32.5889 1.10219 30.9966 1.78027 29.5345C2.45837 28.0725 3.44687 26.7753 4.67676 25.7338C5.9066 24.6923 7.34867 23.9313 8.90234 23.5033ZM81.126 23.2562C82.7156 22.9914 84.3438 23.0754 85.8975 23.5033C87.4511 23.9312 88.8932 24.6924 90.123 25.7338C91.3529 26.7753 92.3414 28.0725 93.0195 29.5345C93.6553 30.9053 94.0043 32.3905 94.0459 33.8988L94.0498 34.2006V53.6224C94.0502 55.2346 93.7 56.8276 93.0225 58.2904C92.3448 59.7534 91.356 61.0518 90.126 62.0941C88.896 63.1363 87.4536 63.8982 85.8994 64.3265C84.4424 64.7281 82.9197 64.8279 81.4248 64.6205L81.126 64.5746L71.8496 63.0238V56.5365L82.1787 58.2572C82.8513 58.369 83.5409 58.3328 84.1982 58.1517C84.8556 57.9707 85.4659 57.6488 85.9863 57.2084C86.5067 56.768 86.9246 56.2192 87.2119 55.601C87.4992 54.9826 87.6494 54.3092 87.6504 53.6273V34.2045C87.6508 33.5218 87.5016 32.8474 87.2148 32.2279C86.9281 31.6084 86.5099 31.059 85.9893 30.6176C85.4686 30.1761 84.8582 29.8529 84.2002 29.6713C83.5423 29.4897 82.8529 29.4539 82.1797 29.5658H82.1787L71.8496 31.2875V24.8021L81.126 23.2562Z" fill="url(#paint1_linear_773_441)" stroke="#2E105A" stroke-width="1.5"/>
<path d="M104.076 43.6333V16.5476H113.105L96.5524 1.5L80 16.5476H89.0286V27.6467" stroke="url(#paint2_linear_773_441)" stroke-width="3" stroke-linejoin="round"/>
<path d="M112.048 57.5762H103.019V44.0333H97L107.533 33.5L118.067 44.0333H112.048V57.5762Z" stroke="url(#paint3_linear_773_441)" stroke-width="3" stroke-linejoin="round"/>
<defs>
<linearGradient id="paint0_linear_773_441" x1="28.4004" y1="9" x2="84.085" y2="33.1546" gradientUnits="userSpaceOnUse">
<stop offset="0.317308" stop-color="#73FAFF"/>
<stop offset="1" stop-color="#18999D"/>
</linearGradient>
<linearGradient id="paint1_linear_773_441" x1="1.80001" y1="21.3314" x2="49.5104" y2="94.13" gradientUnits="userSpaceOnUse">
<stop offset="0.317308" stop-color="#73FAFF"/>
<stop offset="1" stop-color="#18999D"/>
</linearGradient>
<linearGradient id="paint2_linear_773_441" x1="80.6286" y1="0.499997" x2="123.369" y2="23.8071" gradientUnits="userSpaceOnUse">
<stop offset="0.317308" stop-color="#73FAFF"/>
<stop offset="1" stop-color="#18999D"/>
</linearGradient>
<linearGradient id="paint3_linear_773_441" x1="97.4" y1="32.9286" x2="123.179" y2="48.5839" gradientUnits="userSpaceOnUse">
<stop offset="0.317308" stop-color="#73FAFF"/>
<stop offset="1" stop-color="#18999D"/>
</linearGradient>
</defs>
</svg>
