<svg width="67" height="67" viewBox="0 0 67 67" fill="none" xmlns="http://www.w3.org/2000/svg">
<path d="M25.5618 42.8683C25.1157 42.5729 24.7321 42.1961 24.283 41.6628C24.0499 41.3793 23.819 41.0942 23.5901 40.8073C22.9016 39.9578 22.4674 39.5649 22.0198 39.4038C21.8315 39.3419 21.6575 39.2431 21.5082 39.1134C21.3588 38.9837 21.2371 38.8256 21.1502 38.6484C21.0634 38.4712 21.013 38.2785 21.0022 38.0817C20.9914 37.8849 21.0203 37.688 21.0873 37.5024C21.1543 37.3169 21.2579 37.1466 21.3922 37.0015C21.5264 36.8564 21.6885 36.7394 21.8689 36.6575C22.0494 36.5756 22.2445 36.5303 22.4428 36.5245C22.641 36.5186 22.8385 36.5522 23.0235 36.6233C24.1417 37.0222 24.8986 37.7092 25.9187 38.9695C25.7789 38.7966 26.4243 39.6003 26.5626 39.7658C26.8451 40.1011 27.0533 40.305 27.2169 40.4129C27.5202 40.6153 28.0912 40.7025 28.9269 40.6197C28.9626 40.0553 29.0667 39.5072 29.2273 39.002C24.8139 37.9294 22.3157 35.1016 22.3157 29.5525C22.3157 27.7205 22.8659 26.0717 23.889 24.6888C23.5648 23.368 23.6139 21.7709 24.338 19.9729C24.4202 19.7695 24.5469 19.5869 24.7089 19.4382C24.871 19.2894 25.0643 19.1784 25.2748 19.1131C25.3953 19.0776 25.4637 19.0614 25.5841 19.0436C26.7782 18.8604 28.4645 19.2948 30.6623 20.6629C31.9719 20.3583 33.3128 20.2056 34.6579 20.2078C36.014 20.2078 37.3627 20.3615 38.649 20.6629C40.8453 19.2845 42.536 18.8501 43.7375 19.0436C43.8644 19.0633 43.9725 19.088 44.0617 19.1175C44.2681 19.1851 44.4571 19.2969 44.6154 19.445C44.7736 19.593 44.8973 19.7737 44.9777 19.9744C45.7018 21.7709 45.7509 23.3665 45.4267 24.6873C46.4543 26.0702 47 27.7086 47 29.5525C47 35.1031 44.5108 37.922 40.0973 38.996C40.2832 39.6092 40.3799 40.2932 40.3799 41.0349C40.3799 42.0173 40.3769 42.954 40.3694 44.0045C40.3694 44.2852 40.3665 44.5866 40.362 45.0475C40.696 45.1197 40.9947 45.304 41.208 45.5694C41.4212 45.8349 41.5359 46.1651 41.5327 46.5047C41.5296 46.8443 41.4088 47.1724 41.1907 47.4339C40.9726 47.6953 40.6705 47.8742 40.3352 47.9403C38.6401 48.2756 37.385 47.1543 37.385 45.6872L37.388 45.0268L37.3954 43.9853C37.4029 42.9407 37.4073 42.01 37.4073 41.0349C37.4073 40.0051 37.1337 39.3329 36.7739 39.0241C35.791 38.182 36.2891 36.5805 37.5783 36.4372C41.9888 35.9452 44.026 34.2477 44.026 29.5525C44.026 28.1415 43.562 26.9759 42.6684 26.0008C42.4803 25.7953 42.3543 25.5414 42.3048 25.268C42.2554 24.9947 42.2845 24.7131 42.3888 24.4554C42.6356 23.8437 42.7397 23.0415 42.5301 22.0709L42.5152 22.0753C41.7851 22.2806 40.8646 22.7253 39.7523 23.4773C39.573 23.5983 39.3692 23.6788 39.1552 23.7132C38.9412 23.7477 38.7223 23.7353 38.5137 23.6768C37.2586 23.331 35.9618 23.1576 34.6593 23.1612C33.3359 23.1612 32.0244 23.3355 30.805 23.6783C30.5974 23.7361 30.3796 23.7483 30.1667 23.7141C29.9539 23.6799 29.751 23.6001 29.5723 23.4803C28.4526 22.7313 27.5291 22.288 26.7916 22.0812C26.5789 23.0459 26.6845 23.8452 26.9299 24.4554C27.0337 24.713 27.0624 24.9944 27.0127 25.2675C26.963 25.5405 26.8369 25.7941 26.6488 25.9993C25.7611 26.967 25.2912 28.1533 25.2912 29.551C25.2912 34.2373 27.3299 35.9452 31.718 36.4357C33.0043 36.579 33.5054 38.1746 32.5285 39.0182C32.2415 39.2664 31.889 40.0997 31.889 41.0334V45.6872C31.889 47.1425 30.6489 48.2358 28.9745 47.9447C28.6351 47.8855 28.327 47.711 28.1027 47.4511C27.8784 47.1912 27.752 46.862 27.745 46.5197C27.7379 46.1774 27.8508 45.8433 28.0642 45.5745C28.2776 45.3057 28.5784 45.1189 28.915 45.046V43.5834C27.5619 43.6735 26.4451 43.4534 25.5633 42.8669" fill="#28D9DF"/>
</svg>
