<svg width="95" height="64" viewBox="0 0 95 64" fill="none" xmlns="http://www.w3.org/2000/svg">
<path d="M39.5 0.75H55.3008C58.2445 0.750104 61.0679 1.91942 63.1494 4.00098C65.231 6.08254 66.4003 8.90585 66.4004 11.8496V51.3496C66.4004 54.2935 65.2311 57.1176 63.1494 59.1992C61.0679 61.2807 58.2445 62.4501 55.3008 62.4502H39.5C36.5563 62.4501 33.7329 61.2807 31.6514 59.1992C29.5697 57.1176 28.4004 54.2935 28.4004 51.3496V11.8496C28.4005 8.90585 29.5698 6.08254 31.6514 4.00098C33.7329 1.91941 36.5562 0.750104 39.5 0.75ZM39.5 7.15039C38.2536 7.15049 37.0581 7.64504 36.1768 8.52637C35.2954 9.4077 34.8009 10.6032 34.8008 11.8496V51.3496C34.8008 52.5961 35.2953 53.7924 36.1768 54.6738C37.0581 55.5551 38.2537 56.0497 39.5 56.0498H55.3008C56.5471 56.0497 57.7427 55.5551 58.624 54.6738C59.5054 53.7924 60 52.5961 60 51.3496V11.8496C59.9999 10.6032 59.5054 9.4077 58.624 8.52637C57.7427 7.64504 56.5472 7.15049 55.3008 7.15039H39.5Z" fill="url(#paint0_linear_773_407)" stroke="#2E105A" stroke-width="1.5"/>
<path d="M8.90234 13.0033C10.456 12.5753 12.0842 12.4914 13.6738 12.7562L22.9502 14.3021V20.7875L12.6211 19.0658L12.3672 19.0306C11.7752 18.9651 11.1753 19.0124 10.5996 19.1713C9.94158 19.3529 9.3312 19.6761 8.81055 20.1176C8.28993 20.559 7.87168 21.1084 7.58496 21.7279C7.29824 22.3474 7.15002 23.0218 7.15039 23.7045V43.1273C7.1514 43.8092 7.30057 44.4826 7.58789 45.101C7.87519 45.7192 8.29309 46.268 8.81348 46.7084C9.3339 47.1488 9.9443 47.4707 10.6016 47.6517C11.2589 47.8328 11.9485 47.869 12.6211 47.7572L22.9502 46.0365V52.5238L13.6738 54.0746C12.0836 54.3395 10.4546 54.2549 8.90039 53.8265C7.34618 53.3981 5.90379 52.6364 4.67383 51.5941C3.44381 50.5518 2.45595 49.2534 1.77832 47.7904C1.10071 46.3275 0.749582 44.7347 0.75 43.1224V23.7006C0.750652 22.0889 1.10219 20.4966 1.78027 19.0345C2.45837 17.5725 3.44687 16.2753 4.67676 15.2338C5.9066 14.1923 7.34867 13.4313 8.90234 13.0033ZM81.126 12.7562C82.7156 12.4914 84.3438 12.5754 85.8975 13.0033C87.4511 13.4312 88.8932 14.1924 90.123 15.2338C91.3529 16.2753 92.3414 17.5725 93.0195 19.0345C93.6553 20.4053 94.0043 21.8905 94.0459 23.3988L94.0498 23.7006V43.1224C94.0502 44.7346 93.7 46.3276 93.0225 47.7904C92.3448 49.2534 91.356 50.5518 90.126 51.5941C88.896 52.6363 87.4536 53.3982 85.8994 53.8265C84.4424 54.2281 82.9197 54.3279 81.4248 54.1205L81.126 54.0746L71.8496 52.5238V46.0365L82.1787 47.7572C82.8513 47.869 83.5409 47.8328 84.1982 47.6517C84.8556 47.4707 85.4659 47.1488 85.9863 46.7084C86.5067 46.268 86.9246 45.7192 87.2119 45.101C87.4992 44.4826 87.6494 43.8092 87.6504 43.1273V23.7045C87.6508 23.0218 87.5016 22.3474 87.2148 21.7279C86.9281 21.1084 86.5099 20.559 85.9893 20.1176C85.4686 19.6761 84.8582 19.3529 84.2002 19.1713C83.5423 18.9897 82.8529 18.9539 82.1797 19.0658H82.1787L71.8496 20.7875V14.3021L81.126 12.7562Z" fill="url(#paint1_linear_773_407)" stroke="#2E105A" stroke-width="1.5"/>
<defs>
<linearGradient id="paint0_linear_773_407" x1="28.4004" y1="-1.5" x2="84.085" y2="22.6546" gradientUnits="userSpaceOnUse">
<stop offset="0.317308" stop-color="#73FAFF"/>
<stop offset="1" stop-color="#18999D"/>
</linearGradient>
<linearGradient id="paint1_linear_773_407" x1="1.80001" y1="10.8314" x2="49.5104" y2="83.63" gradientUnits="userSpaceOnUse">
<stop offset="0.317308" stop-color="#73FAFF"/>
<stop offset="1" stop-color="#18999D"/>
</linearGradient>
</defs>
</svg>
