<svg width="67" height="67" viewBox="0 0 67 67" fill="none" xmlns="http://www.w3.org/2000/svg">
<mask id="mask0_689_395" style="mask-type:luminance" maskUnits="userSpaceOnUse" x="20" y="19" width="29" height="27">
<path d="M49 19H20V46H49V19Z" fill="white"/>
</mask>
<g mask="url(#mask0_689_395)">
<path d="M23.48 25.4854C25.4133 25.4854 26.96 24.0217 26.96 22.2427C26.96 20.4637 25.3892 19 23.48 19C21.5708 19 20 20.4637 20 22.2427C20 24.0217 21.5708 25.4854 23.48 25.4854ZM30.2708 27.9399V46H36.2642V37.0826C36.2642 34.7181 36.7475 32.4437 39.865 32.4437C42.9825 32.4437 42.9825 35.146 42.9825 37.2177V46H49V36.0918C49 31.2277 47.8883 27.4896 41.7983 27.4896C38.8742 27.4896 36.9167 28.9758 36.1192 30.3944H36.0467V27.9174H30.295L30.2708 27.9399ZM20.4833 27.9399H26.5008V46H20.4833V27.9399Z" fill="#28D9DF"/>
</g>
</svg>
