<svg width="17" height="16" viewBox="0 0 17 16" fill="none" xmlns="http://www.w3.org/2000/svg">
<path d="M6.15334 11.5206C4.43356 11.5206 2.97822 10.9629 1.78731 9.84748C0.596401 8.73204 0.000631613 7.36966 5.00882e-07 5.76031C-0.000630611 4.15097 0.595139 2.78858 1.78731 1.67315C2.97948 0.557716 4.43482 0 6.15334 0C7.87186 0 9.32752 0.557716 10.5203 1.67315C11.7131 2.78858 12.3086 4.15097 12.3067 5.76031C12.3067 6.41019 12.1962 7.02315 11.9753 7.59918C11.7545 8.17521 11.4547 8.68478 11.076 9.12788L16.3774 14.0906C16.5509 14.2531 16.6377 14.4599 16.6377 14.711C16.6377 14.962 16.5509 15.1688 16.3774 15.3313C16.2038 15.4938 15.9829 15.575 15.7147 15.575C15.4465 15.575 15.2256 15.4938 15.052 15.3313L9.75068 10.3686C9.27735 10.723 8.73301 11.0037 8.11768 11.2105C7.50234 11.4172 6.84756 11.5206 6.15334 11.5206ZM6.15334 9.74822C7.33668 9.74822 8.34267 9.36066 9.17132 8.58552C9.99997 7.81039 10.414 6.86866 10.4133 5.76031C10.4127 4.65197 9.99871 3.71053 9.17132 2.93599C8.34393 2.16145 7.33794 1.77359 6.15334 1.7724C4.96874 1.77122 3.96307 2.15908 3.13631 2.93599C2.30955 3.71289 1.89523 4.65433 1.89334 5.76031C1.89144 6.86629 2.30577 7.80803 3.13631 8.58552C3.96685 9.36302 4.97253 9.75058 6.15334 9.74822Z" fill="white"/>
</svg>
