<svg width="38" height="27" viewBox="0 0 38 27" fill="none" xmlns="http://www.w3.org/2000/svg">
<path d="M36.8083 2.07692C36.0886 0.840115 34.7646 0 33.2308 0H18.6923V2.07692H36.8083ZM0 20.7692H37.3846V22.8462H0V20.7692ZM18.6923 12.4615H37.3846V14.5385H18.6923V12.4615ZM18.6923 8.30769H37.3846V10.3846H18.6923V8.30769ZM0 16.6154H37.3846V18.6923H0V16.6154ZM4.15385 27H33.2308C34.7646 27 36.0886 26.1599 36.8083 24.9231H0.576346C1.296 26.1599 2.62004 27 4.15385 27ZM18.6923 4.15385H37.3846V6.23077H18.6923V4.15385Z" fill="#B22334"/>
<path d="M0.0706154 23.5513C0.0879231 23.6482 0.108346 23.7441 0.131885 23.8389C0.159577 23.9428 0.191423 24.0452 0.227423 24.1463C0.319846 24.4153 0.432 24.6749 0.573231 24.9179L0.576346 24.9231H36.8083L36.8103 24.9189C36.9511 24.6748 37.0666 24.4169 37.1551 24.1494C37.2225 23.9542 37.2753 23.7543 37.313 23.5513C37.3555 23.3228 37.3846 23.0881 37.3846 22.8461H0C0 23.0881 0.0290769 23.3218 0.0706154 23.5513ZM0 18.6923H37.3846V20.7692H0V18.6923ZM0 14.5384V16.6154H37.3846V14.5384H18.6923H0ZM18.6923 10.3846H37.3846V12.4615H18.6923V10.3846ZM18.6923 6.23075H37.3846V8.30767H18.6923V6.23075ZM0.132923 3.16106C0.158885 3.05513 0.195231 2.9544 0.228462 2.85264C0.19263 2.95417 0.16076 3.05705 0.132923 3.16106ZM18.6923 4.15383H37.3846C37.3846 3.91187 37.3555 3.67717 37.313 3.44767C37.2766 3.24424 37.2235 3.04417 37.1541 2.84952C37.0654 2.58088 36.9495 2.322 36.8083 2.0769H18.6923V4.15383Z" fill="#EEEEEE"/>
<path d="M18.6923 0H4.15385C3.05218 0 1.99563 0.437636 1.21663 1.21663C0.437636 1.99563 0 3.05218 0 4.15385L0 14.5385H18.6923V0Z" fill="#3C3B6E"/>
<path d="M2.07794 2.83083L2.71971 3.2971L2.47463 4.04998L3.11537 3.58475L3.75713 4.04998L3.51206 3.2971L4.15383 2.83083H3.36044L3.11537 2.0769L2.87133 2.83083H2.07794ZM4.15487 4.90775L4.79663 5.37402L4.55156 6.1269L5.19229 5.66167L5.83406 6.1269L5.58898 5.37402L6.23075 4.90775H5.43737L5.19229 4.15383L4.94825 4.90775H4.15487ZM8.30871 4.90775L8.95048 5.37402L8.7054 6.1269L9.34613 5.66167L9.9879 6.1269L9.74283 5.37402L10.3846 4.90775H9.59121L9.34613 4.15383L9.1021 4.90775H8.30871ZM12.4626 4.90775L13.1043 5.37402L12.8592 6.1269L13.5 5.66167L14.1418 6.1269L13.8967 5.37402L14.5384 4.90775H13.7451L13.5 4.15383L13.2559 4.90775H12.4626ZM4.15487 9.0616L4.79663 9.52787L4.55156 10.2807L5.19229 9.81552L5.83406 10.2807L5.58898 9.52787L6.23075 9.0616H5.43737L5.19229 8.30767L4.94825 9.0616H4.15487ZM8.30871 9.0616L8.95048 9.52787L8.7054 10.2807L9.34613 9.81552L9.9879 10.2807L9.74283 9.52787L10.3846 9.0616H9.59121L9.34613 8.30767L9.1021 9.0616H8.30871ZM12.4626 9.0616L13.1043 9.52787L12.8592 10.2807L13.5 9.81552L14.1418 10.2807L13.8967 9.52787L14.5384 9.0616H13.7451L13.5 8.30767L13.2559 9.0616H12.4626ZM6.23179 2.83083L6.87356 3.2971L6.62848 4.04998L7.26921 3.58475L7.91098 4.04998L7.6659 3.2971L8.30767 2.83083H7.51429L7.26921 2.0769L7.02517 2.83083H6.23179ZM10.3856 2.83083L11.0274 3.2971L10.7823 4.04998L11.4231 3.58475L12.0648 4.04998L11.8198 3.2971L12.4615 2.83083H11.6681L11.4231 2.0769L11.179 2.83083H10.3856ZM14.5395 2.83083L15.1812 3.2971L14.9362 4.04998L15.5769 3.58475L16.2187 4.04998L15.9736 3.2971L16.6154 2.83083H15.822L15.5769 2.0769L15.3329 2.83083H14.5395ZM2.07794 6.98467L2.71971 7.45094L2.47463 8.20383L3.11537 7.7386L3.75713 8.20383L3.51206 7.45094L4.15383 6.98467H3.36044L3.11537 6.23075L2.87133 6.98467H2.07794ZM6.62848 8.20383L7.26921 7.7386L7.91098 8.20383L7.6659 7.45094L8.30767 6.98467H7.51429L7.26921 6.23075L7.02517 6.98467H6.23179L6.87356 7.45094L6.62848 8.20383ZM10.3856 6.98467L11.0274 7.45094L10.7823 8.20383L11.4231 7.7386L12.0648 8.20383L11.8198 7.45094L12.4615 6.98467H11.6681L11.4231 6.23075L11.179 6.98467H10.3856ZM14.5395 6.98467L15.1812 7.45094L14.9362 8.20383L15.5769 7.7386L16.2187 8.20383L15.9736 7.45094L16.6154 6.98467H15.822L15.5769 6.23075L15.3329 6.98467H14.5395ZM2.07794 11.1385L2.71971 11.6048L2.47463 12.3577L3.11537 11.8924L3.75713 12.3577L3.51206 11.6048L4.15383 11.1385H3.36044L3.11537 10.3846L2.87133 11.1385H2.07794ZM6.62848 12.3577L7.26921 11.8924L7.91098 12.3577L7.6659 11.6048L8.30767 11.1385H7.51429L7.26921 10.3846L7.02517 11.1385H6.23179L6.87356 11.6048L6.62848 12.3577ZM10.3856 11.1385L11.0274 11.6048L10.7823 12.3577L11.4231 11.8924L12.0648 12.3577L11.8198 11.6048L12.4615 11.1385H11.6681L11.4231 10.3846L11.179 11.1385H10.3856ZM14.5395 11.1385L15.1812 11.6048L14.9362 12.3577L15.5769 11.8924L16.2187 12.3577L15.9736 11.6048L16.6154 11.1385H15.822L15.5769 10.3846L15.3329 11.1385H14.5395Z" fill="white"/>
</svg>
