<svg width="25" height="21" viewBox="0 0 25 21" fill="none" xmlns="http://www.w3.org/2000/svg">
<path d="M15.1612 1.03998C15.4345 1.11665 15.666 1.29846 15.8049 1.54543C15.9438 1.79239 15.9787 2.08429 15.902 2.35694L11.1598 19.2201C11.1218 19.3552 11.0575 19.4815 10.9707 19.5918C10.8838 19.7021 10.776 19.7943 10.6534 19.863C10.5309 19.9317 10.3959 19.9757 10.2563 19.9924C10.1167 20.0091 9.97522 19.9982 9.83984 19.9603C9.70447 19.9225 9.57789 19.8584 9.46734 19.7717C9.3568 19.685 9.26444 19.5774 9.19556 19.4552C9.12667 19.3329 9.0826 19.1982 9.06586 19.0589C9.04912 18.9197 9.06004 18.7784 9.098 18.6434L13.8402 1.78017C13.8782 1.64497 13.9425 1.51855 14.0294 1.40816C14.1163 1.29776 14.2242 1.20556 14.3469 1.13681C14.4696 1.06806 14.6047 1.02412 14.7444 1.00751C14.8841 0.99089 15.0258 1.00192 15.1612 1.03998ZM7.36916 5.21305C7.56985 5.41335 7.68259 5.68498 7.68259 5.9682C7.68259 6.25142 7.56985 6.52305 7.36916 6.72335L3.58499 10.5002L7.36916 14.2759C7.46862 14.3751 7.54753 14.4928 7.60138 14.6224C7.65524 14.752 7.68298 14.8909 7.68303 15.0312C7.68308 15.1715 7.65544 15.3104 7.60167 15.4401C7.54791 15.5697 7.46909 15.6875 7.3697 15.7867C7.27031 15.886 7.1523 15.9647 7.02242 16.0184C6.89253 16.0722 6.75331 16.0998 6.61271 16.0999C6.4721 16.0999 6.33286 16.0724 6.20294 16.0187C6.07302 15.9651 5.95495 15.8864 5.8555 15.7873L1.31342 11.2553C1.11274 11.055 1 10.7834 1 10.5002C1 10.2169 1.11274 9.94531 1.31342 9.74501L5.8555 5.21305C6.05624 5.01281 6.32847 4.90032 6.61233 4.90032C6.89618 4.90032 7.16842 5.01281 7.36916 5.21305ZM17.6308 6.72335C17.5286 6.62482 17.447 6.50696 17.3909 6.37665C17.3348 6.24633 17.3053 6.10618 17.3041 5.96435C17.3028 5.82253 17.3299 5.68189 17.3837 5.55062C17.4376 5.41935 17.5171 5.3001 17.6176 5.19981C17.7181 5.09952 17.8376 5.02021 17.9692 4.96651C18.1007 4.9128 18.2417 4.88578 18.3838 4.88701C18.526 4.88824 18.6664 4.91771 18.797 4.97369C18.9276 5.02967 19.0458 5.11104 19.1445 5.21305L23.6866 9.74501C23.8873 9.94531 24 10.2169 24 10.5002C24 10.7834 23.8873 11.055 23.6866 11.2553L19.1445 15.7873C18.9436 15.9875 18.6713 16.1 18.3873 16.0999C18.1033 16.0998 17.831 15.9871 17.6303 15.7867C17.4296 15.5863 17.3169 15.3145 17.317 15.0312C17.3171 14.7479 17.43 14.4762 17.6308 14.2759L21.415 10.5002L17.6308 6.72335Z" fill="white" stroke="#FFF3F3" stroke-width="0.1"/>
</svg>
