<svg width="85" height="70" viewBox="0 0 85 70" fill="none" xmlns="http://www.w3.org/2000/svg">
<path d="M72.6114 33.5833V12.9583H79.4864L66.8823 1.5L54.2783 12.9583H61.1532V21.41" stroke="url(#paint0_linear_773_434)" stroke-width="3" stroke-linejoin="round"/>
<path d="M78.6838 44.2004H71.8089V33.8879H67.2256L75.2463 25.8671L83.2671 33.8879H78.6838V44.2004Z" stroke="url(#paint1_linear_773_434)" stroke-width="3" stroke-linejoin="round"/>
<path d="M58.1439 19.0138H7.01167C4.51994 19.0138 2.5 21.0338 2.5 23.5255V62.6271C2.5 65.1188 4.51994 67.1388 7.01167 67.1388H58.1439C60.6356 67.1388 62.6555 65.1188 62.6555 62.6271V23.5255C62.6555 21.0338 60.6356 19.0138 58.1439 19.0138Z" stroke="url(#paint2_linear_773_434)" stroke-width="5" stroke-linejoin="round"/>
<path d="M2.5 23.5255C2.5 22.3289 2.97534 21.1814 3.82144 20.3352C4.66754 19.4891 5.8151 19.0138 7.01167 19.0138H58.1439C59.3405 19.0138 60.488 19.4891 61.3341 20.3352C62.1802 21.1814 62.6555 22.3289 62.6555 23.5255V37.0607H2.5V23.5255Z" stroke="url(#paint3_linear_773_434)" stroke-width="5"/>
<path d="M12.0322 28.037C12.0322 27.7565 11.8048 27.5292 11.5244 27.5292C11.244 27.5292 11.0166 27.7565 11.0166 28.037C11.0166 28.3175 11.244 28.5448 11.5244 28.5448C11.8048 28.5448 12.0322 28.3175 12.0322 28.037Z" fill="#28D9DF" stroke="url(#paint4_linear_773_434)" stroke-width="5"/>
<path d="M21.0547 28.037C21.0547 27.7565 20.8273 27.5292 20.5469 27.5292C20.2665 27.5292 20.0391 27.7565 20.0391 28.037C20.0391 28.3175 20.2665 28.5448 20.5469 28.5448C20.8273 28.5448 21.0547 28.3175 21.0547 28.037Z" fill="#28D9DF" stroke="url(#paint5_linear_773_434)" stroke-width="5"/>
<defs>
<linearGradient id="paint0_linear_773_434" x1="54.757" y1="0.738526" x2="87.3024" y2="18.4859" gradientUnits="userSpaceOnUse">
<stop offset="0.317308" stop-color="#73FAFF"/>
<stop offset="1" stop-color="#18999D"/>
</linearGradient>
<linearGradient id="paint1_linear_773_434" x1="67.5302" y1="25.4319" x2="87.1602" y2="37.3528" gradientUnits="userSpaceOnUse">
<stop offset="0.317308" stop-color="#73FAFF"/>
<stop offset="1" stop-color="#18999D"/>
</linearGradient>
<linearGradient id="paint2_linear_773_434" x1="3.6422" y1="17.8716" x2="61.1332" y2="67.7473" gradientUnits="userSpaceOnUse">
<stop offset="0.317308" stop-color="#73FAFF"/>
<stop offset="1" stop-color="#18999D"/>
</linearGradient>
<linearGradient id="paint3_linear_773_434" x1="3.6422" y1="18.5855" x2="19.5049" y2="55.2829" gradientUnits="userSpaceOnUse">
<stop offset="0.317308" stop-color="#73FAFF"/>
<stop offset="1" stop-color="#18999D"/>
</linearGradient>
<linearGradient id="paint4_linear_773_434" x1="14.675" y1="30.9306" x2="9.95522" y2="24.1302" gradientUnits="userSpaceOnUse">
<stop offset="0.317308" stop-color="#73FAFF"/>
<stop offset="1" stop-color="#18999D"/>
</linearGradient>
<linearGradient id="paint5_linear_773_434" x1="23.6975" y1="30.9306" x2="18.9777" y2="24.1302" gradientUnits="userSpaceOnUse">
<stop offset="0.317308" stop-color="#73FAFF"/>
<stop offset="1" stop-color="#18999D"/>
</linearGradient>
</defs>
</svg>
