<svg width="67" height="67" viewBox="0 0 67 67" fill="none" xmlns="http://www.w3.org/2000/svg">
<path d="M39.701 20C40.1498 20 40.7131 20.119 41.1653 20.231C42.7423 20.616 44.6121 21.0938 45.9396 22.1C47.1751 23.0363 48.1352 24.669 48.8769 26.328C50.4192 29.7844 51.4919 34.3921 51.8628 37.8956C52.0395 39.5581 52.0829 41.2311 51.7657 42.3564C51.6097 42.9094 51.2718 43.3259 51.0344 43.5814C50.31 44.3566 49.3777 44.9359 48.4558 45.4626L47.9983 45.7234C47.697 45.8928 47.3937 46.0584 47.0885 46.2205L46.1839 46.6929L44.9414 47.3177L43.9415 47.8147C43.5756 47.9998 43.1566 48.0481 42.7588 47.9511C42.361 47.8542 42.0099 47.6181 41.7679 47.2848C41.5259 46.9516 41.4085 46.5426 41.4365 46.1303C41.4645 45.718 41.6361 45.329 41.9209 45.0322L41.1688 43.5131C39.0065 44.1783 36.7573 44.511 34.497 44.5002C32.1228 44.5002 29.8579 44.1502 27.8251 43.5131L27.0748 45.0286C27.3607 45.3249 27.5333 45.7139 27.5622 46.1266C27.5911 46.5393 27.4742 46.9488 27.2325 47.2828C26.9907 47.6167 26.6396 47.8533 26.2415 47.9508C25.8433 48.0481 25.4239 47.9999 25.0576 47.8147L24.1149 47.3422C23.0682 46.8207 22.0215 46.2991 21.0026 45.7234C19.9385 45.1231 18.8104 44.4845 17.9665 43.5797C17.6298 43.2358 17.3791 42.8159 17.2352 42.3546C16.9163 41.2311 16.9613 39.5598 17.1364 37.8956C17.5072 34.3921 18.5799 29.7844 20.124 26.328C20.8639 24.669 21.824 23.0363 23.0596 22.1C24.387 21.0938 26.2568 20.616 27.8338 20.231C28.2861 20.119 28.8476 20 29.2981 20C29.5474 19.9998 29.7937 20.0539 30.0203 20.1585C30.247 20.2632 30.4487 20.416 30.6115 20.6066C30.7743 20.7971 30.8946 21.0209 30.964 21.2626C31.0334 21.5043 31.0503 21.7583 31.0137 22.0073C32.1672 21.8371 33.3313 21.7512 34.497 21.75C35.6944 21.75 36.8642 21.8375 37.9871 22.009C37.9502 21.7599 37.9669 21.5057 38.0363 21.2638C38.1056 21.0218 38.2258 20.7979 38.3886 20.6071C38.5515 20.4164 38.7532 20.2634 38.98 20.1586C39.2068 20.0539 39.4516 19.9997 39.701 20ZM42.0474 24.1353C41.7874 24.0513 41.7251 24.088 41.6315 24.2455L41.524 24.4415C41.244 24.9264 40.8187 25.309 40.3095 25.5341C39.8003 25.7593 39.2335 25.8155 38.6907 25.6945C37.3125 25.3957 35.9066 25.2467 34.497 25.25C33.0205 25.25 31.6081 25.4075 30.3032 25.6945C29.7605 25.8155 29.1936 25.7593 28.6845 25.5341C28.1753 25.309 27.75 24.9264 27.4699 24.4415L27.3625 24.2473C27.2706 24.0898 27.2083 24.053 26.95 24.1353C26.333 24.333 25.6711 24.5448 25.1391 24.9C24.6417 25.2763 23.978 26.2125 23.2831 27.7683C21.9557 30.7381 20.9159 35.1253 20.5832 38.2684C20.5139 38.9334 20.4757 39.5004 20.4688 39.9694V40.4839C20.4769 40.7954 20.4971 41.0415 20.5295 41.2224C20.9696 41.6564 21.5138 41.9977 22.0597 42.3109L23.2415 42.9706L24.0144 43.3819L24.6452 42.1079C24.3398 41.8205 24.1474 41.4315 24.1033 41.0123C24.0592 40.5931 24.1665 40.172 24.4053 39.8262C24.6442 39.4806 24.9986 39.2335 25.4033 39.1306C25.8082 39.0275 26.2361 39.0756 26.6086 39.2658C28.7158 40.3351 31.4574 41.0001 34.497 41.0001C37.5365 41.0001 40.278 40.3317 42.3853 39.2677C42.7419 39.0872 43.1492 39.0365 43.5384 39.1242C43.9277 39.2118 44.2752 39.4323 44.5222 39.7486C44.7691 40.0648 44.9006 40.4574 44.8943 40.8601C44.8879 41.2628 44.7442 41.651 44.4873 41.9591L44.3487 42.1079L44.9795 43.3854C45.4959 43.1136 46.014 42.8318 46.534 42.5402C47.2098 42.1621 47.9203 41.7649 48.4697 41.2224C48.5009 41.0415 48.521 40.7954 48.5303 40.4839V39.9694C48.5171 39.4003 48.479 38.8322 48.416 38.2666C48.0832 35.1253 47.0435 30.7381 45.716 27.7666C45.0229 26.2125 44.3574 25.2763 43.8618 24.9C43.328 24.5448 42.6661 24.333 42.0474 24.1353ZM28.8649 31.3751C29.6693 31.3751 30.4405 31.6977 31.0093 32.2721C31.578 32.8464 31.8975 33.6254 31.8975 34.4376C31.8975 35.2499 31.578 36.0287 31.0093 36.6031C30.4405 37.1774 29.6693 37.5001 28.8649 37.5001C28.0606 37.5001 27.2892 37.1774 26.7205 36.6031C26.1518 36.0287 25.8322 35.2499 25.8322 34.4376C25.8322 33.6254 26.1518 32.8464 26.7205 32.2721C27.2892 31.6977 28.0606 31.3751 28.8649 31.3751ZM40.129 31.3751C40.9333 31.3751 41.7047 31.6977 42.2734 32.2721C42.8422 32.8464 43.1616 33.6254 43.1616 34.4376C43.1616 35.2499 42.8422 36.0287 42.2734 36.6031C41.7047 37.1774 40.9333 37.5001 40.129 37.5001C39.3247 37.5001 38.5533 37.1774 37.9846 36.6031C37.4159 36.0287 37.0963 35.2499 37.0963 34.4376C37.0963 33.6254 37.4159 32.8464 37.9846 32.2721C38.5533 31.6977 39.3247 31.3751 40.129 31.3751Z" fill="#28D9DF" stroke="#220D62"/>
</svg>
