<svg width="38" height="27" viewBox="0 0 38 27" fill="none" xmlns="http://www.w3.org/2000/svg">
<g opacity="0.8">
<path d="M37.3846 22.8462C37.3846 23.9478 36.947 25.0044 36.168 25.7834C35.389 26.5624 34.3325 27 33.2308 27H24.9231V0H33.2308C34.3325 0 35.389 0.437636 36.168 1.21663C36.947 1.99563 37.3846 3.05218 37.3846 4.15385V22.8462Z" fill="#ED2939"/>
<path d="M4.15385 0C3.05218 0 1.99563 0.437636 1.21663 1.21663C0.437636 1.99563 0 3.05218 0 4.15385L0 22.8462C0 23.9478 0.437636 25.0044 1.21663 25.7834C1.99563 26.5624 3.05218 27 4.15385 27H12.4615V0H4.15385Z" fill="#002495"/>
<path d="M12.4615 0H24.9231V27H12.4615V0Z" fill="#EEEEEE"/>
</g>
</svg>
