<svg width="18" height="21" viewBox="0 0 18 21" fill="none" xmlns="http://www.w3.org/2000/svg">
<path d="M6.90336 11.6529C7.02697 11.525 7.09537 11.3536 7.09382 11.1756C7.09227 10.9977 7.02091 10.8275 6.8951 10.7017C6.76928 10.5759 6.59909 10.5045 6.42117 10.503C6.24325 10.5014 6.07184 10.5698 5.94386 10.6934L3.90815 12.7292C3.78094 12.8564 3.70947 13.029 3.70947 13.2089C3.70947 13.3888 3.78094 13.5614 3.90815 13.6887L5.94386 15.7244C6.07184 15.848 6.24325 15.9164 6.42117 15.9148C6.59909 15.9133 6.76928 15.8419 6.8951 15.7161C7.02091 15.5903 7.09227 15.4201 7.09382 15.2422C7.09537 15.0643 7.02697 14.8929 6.90336 14.7649L5.34265 13.2042L6.90336 11.6434V11.6529ZM9.95694 9.1558C10.1333 9.19117 10.2883 9.29509 10.3881 9.44471C10.4878 9.59434 10.5241 9.77744 10.4889 9.9538L9.13179 16.7395C9.09138 16.9107 8.98604 17.0596 8.838 17.1546C8.68997 17.2497 8.5108 17.2835 8.33829 17.249C8.16578 17.2145 8.01342 17.1144 7.91333 16.9697C7.81324 16.825 7.77325 16.6471 7.80179 16.4735L9.15894 9.6878C9.19431 9.51149 9.29822 9.35642 9.44785 9.25667C9.59747 9.15692 9.78058 9.12064 9.95694 9.1558ZM14.4355 12.7387L12.3998 10.7029C12.2718 10.5793 12.1004 10.5109 11.9225 10.5125C11.7446 10.514 11.5744 10.5854 11.4486 10.7112C11.3227 10.837 11.2514 11.0072 11.2498 11.1851C11.2483 11.3631 11.3167 11.5345 11.4403 11.6624L13.001 13.2232L11.4403 14.7839C11.3167 14.9119 11.2483 15.0833 11.2498 15.2612C11.2514 15.4391 11.3227 15.6093 11.4486 15.7351C11.5744 15.8609 11.7446 15.9323 11.9225 15.9338C12.1004 15.9354 12.2718 15.867 12.3998 15.7434L14.4355 13.7077C14.5627 13.5804 14.6342 13.4078 14.6342 13.2279C14.6342 13.048 14.5627 12.8754 14.4355 12.7482V12.7387Z" fill="white" stroke="white" stroke-width="0.3"/>
<path fill-rule="evenodd" clip-rule="evenodd" d="M1 3.71429C1 2.22143 2.21464 1 3.71429 1H11.1786C11.3591 1 11.5314 1.07193 11.659 1.19814L17.0876 6.62671C17.1505 6.68985 17.2005 6.76477 17.2345 6.84721C17.2685 6.92964 17.2859 7.01797 17.2857 7.10714V17.2857C17.2857 18.7786 16.0711 20 14.5714 20H3.71429C2.22143 20 1 18.7854 1 17.2857V3.71429ZM3.71429 2.35714C3.35435 2.35714 3.00915 2.50013 2.75464 2.75464C2.50013 3.00915 2.35714 3.35435 2.35714 3.71429V17.2857C2.35714 17.6457 2.50013 17.9908 2.75464 18.2454C3.00915 18.4999 3.35435 18.6429 3.71429 18.6429H14.5714C14.9314 18.6429 15.2766 18.4999 15.5311 18.2454C15.7856 17.9908 15.9286 17.6457 15.9286 17.2857V7.78571H11.1786C10.9986 7.78571 10.826 7.71422 10.6987 7.58696C10.5715 7.45971 10.5 7.28711 10.5 7.10714V2.35714H3.71429ZM11.8571 3.31664L14.965 6.4245H11.8571V3.31664Z" fill="white" stroke="white" stroke-width="0.3"/>
</svg>
