<svg width="67" height="67" viewBox="0 0 67 67" fill="none" xmlns="http://www.w3.org/2000/svg">
<path d="M41.2223 27.9444C42.4189 27.9444 43.389 26.9744 43.389 25.7778C43.389 24.5811 42.4189 23.6111 41.2223 23.6111C40.0257 23.6111 39.0557 24.5811 39.0557 25.7778C39.0557 26.9744 40.0257 27.9444 41.2223 27.9444Z" fill="#28D9DF"/>
<path d="M39.7778 20C43.7644 20 47 23.2356 47 27.2222V38.7778C47 42.7644 43.7644 46 39.7778 46H28.2222C24.2356 46 21 42.7644 21 38.7778V27.2222C21 23.2356 24.2356 20 28.2222 20H34H39.7778Z" stroke="#28D9DF" stroke-width="3" stroke-linecap="round" stroke-linejoin="round"/>
<path d="M33.9999 27.2222C37.1922 27.2222 39.7777 29.8077 39.7777 32.9999C39.7777 36.1922 37.1922 38.7777 33.9999 38.7777C30.8077 38.7777 28.2222 36.1922 28.2222 32.9999C28.2222 29.8077 30.8077 27.2222 33.9999 27.2222Z" stroke="#28D9DF" stroke-width="3" stroke-linecap="round" stroke-linejoin="round"/>
</svg>
