<svg width="21" height="15" viewBox="0 0 21 15" fill="none" xmlns="http://www.w3.org/2000/svg">
<path d="M1.25 15C0.559644 15 0 14.4404 0 13.75C0 13.0596 0.559644 12.5 1.25 12.5H19.75C20.4404 12.5 21 13.0596 21 13.75C21 14.4404 20.4404 15 19.75 15H1.25ZM1.25 8.75C0.559644 8.75 0 8.19036 0 7.5C0 6.80964 0.559644 6.25 1.25 6.25H19.75C20.4404 6.25 21 6.80964 21 7.5C21 8.19036 20.4404 8.75 19.75 8.75H1.25ZM1.25 2.5C0.559644 2.5 0 1.94036 0 1.25C0 0.559644 0.559644 0 1.25 0H19.75C20.4404 0 21 0.559644 21 1.25C21 1.94036 20.4404 2.5 19.75 2.5H1.25Z" fill="#28D9DF"/>
</svg>
