<svg width="50" height="64" viewBox="0 0 50 64" fill="none" xmlns="http://www.w3.org/2000/svg">
<path d="M20.1091 14.3636C20.923 14.3636 21.6058 14.0879 22.1573 13.5363C22.7089 12.9847 22.9837 12.3029 22.9818 11.4909C22.9799 10.6789 22.7041 9.99709 22.1545 9.44553C21.6048 8.89396 20.923 8.61818 20.1091 8.61818C19.2952 8.61818 18.6134 8.89396 18.0637 9.44553C17.5141 9.99709 17.2383 10.6789 17.2364 11.4909C17.2344 12.3029 17.5102 12.9857 18.0637 13.5392C18.6172 14.0926 19.299 14.3675 20.1091 14.3636ZM5 63.2C2.23858 63.2 0 60.9614 0 58.2V5C0 2.23858 2.23858 0 5 0H35.2182C37.9796 0 40.2182 2.23858 40.2182 5V14.3018C40.2182 14.4655 40.3871 14.5746 40.5363 14.5073C40.6855 14.4399 40.8545 14.549 40.8545 14.7127V27.8037C40.8545 28.0161 40.73 28.2089 40.5363 28.2964C40.3427 28.3838 40.2182 28.5766 40.2182 28.7891V31.6C40.2182 33.1866 38.932 34.4727 37.3455 34.4727C35.7589 34.4727 34.4727 33.1866 34.4727 31.6V10.7455C34.4727 7.98403 32.2342 5.74545 29.4727 5.74545H10.7455C7.98403 5.74545 5.74545 7.98403 5.74545 10.7455V54.5818C5.74545 56.1684 7.03162 57.4545 8.61818 57.4545C10.2047 57.4545 11.4909 58.7407 11.4909 60.3273C11.4909 61.9138 10.2047 63.2 8.61818 63.2H5ZM29.6069 59.986C28.4894 61.1234 26.6588 61.1315 25.5313 60.004L20.7719 55.2446C18.8193 53.292 18.8193 50.1262 20.7719 48.1736L25.5313 43.4142C26.6588 42.2866 28.4894 42.2947 29.6069 43.4322C30.7105 44.5555 30.7025 46.3584 29.589 47.4719L28.4897 48.5712C26.7567 50.3042 26.7567 53.114 28.4897 54.847L29.589 55.9463C30.7025 57.0598 30.7105 58.8627 29.6069 59.986ZM43.4142 60.004C42.2866 61.1315 40.4561 61.1234 39.3386 59.986C38.235 58.8627 38.2429 57.0598 39.3564 55.9463L40.4557 54.847C42.1887 53.114 42.1887 50.3042 40.4557 48.5712L39.3564 47.4719C38.2429 46.3584 38.235 44.5555 39.3386 43.4322C40.4561 42.2947 42.2866 42.2866 43.4142 43.4142L48.1736 48.1736C50.1262 50.1262 50.1262 53.292 48.1736 55.2446L43.4142 60.004Z" fill="url(#paint0_linear_773_411)"/>
<defs>
<linearGradient id="paint0_linear_773_411" x1="0.981821" y1="-1.5" x2="66.4755" y2="35.6906" gradientUnits="userSpaceOnUse">
<stop offset="0.317308" stop-color="#73FAFF"/>
<stop offset="1" stop-color="#18999D"/>
</linearGradient>
</defs>
</svg>
