<svg width="12" height="7" viewBox="0 0 12 7" fill="none" xmlns="http://www.w3.org/2000/svg">
<path d="M9.95552 0.29182L6.07819 4.16916L2.20085 0.29182C2.10833 0.199302 1.9985 0.125913 1.87762 0.0758422C1.75674 0.0257717 1.62718 9.74841e-10 1.49634 0C1.3655 -9.74836e-10 1.23594 0.0257717 1.11505 0.0758422C0.994174 0.125913 0.884339 0.199302 0.79182 0.29182C0.699302 0.384339 0.625912 0.494174 0.575842 0.615055C0.525771 0.735936 0.5 0.865496 0.5 0.996336C0.5 1.12718 0.525771 1.25674 0.575842 1.37762C0.625912 1.4985 0.699302 1.60833 0.79182 1.70085L5.37867 6.2877C5.7684 6.67743 6.39797 6.67743 6.7877 6.2877L11.3745 1.70085C11.4672 1.6084 11.5407 1.49859 11.5908 1.3777C11.641 1.25681 11.6668 1.12721 11.6668 0.996336C11.6668 0.865458 11.641 0.735864 11.5908 0.614974C11.5407 0.494084 11.4672 0.38427 11.3745 0.29182C10.9848 -0.0879188 10.3453 -0.0979119 9.95552 0.29182Z" fill="#D8D8D8"/>
</svg>
