<svg width="15" height="17" viewBox="0 0 15 17" fill="none" xmlns="http://www.w3.org/2000/svg">
<path d="M7.10578 1.18091C6.94905 1.18091 6.79875 1.24169 6.68793 1.34988C6.5771 1.45807 6.51485 1.6048 6.51485 1.7578V10.4189C5.92392 9.92955 5.17744 9.65539 4.40264 9.64319C3.62784 9.63099 2.87268 9.88149 2.2659 10.352C1.65912 10.8225 1.23827 11.4839 1.07509 12.2234C0.911913 12.963 1.01651 13.7349 1.37105 14.4075C1.72559 15.0802 2.30813 15.612 3.01936 15.9123C3.73059 16.2126 4.52649 16.2628 5.27139 16.0543C6.01629 15.8459 6.66408 15.3917 7.10433 14.7691C7.54458 14.1466 7.75003 13.3942 7.68568 12.6404C7.69225 12.6027 7.69593 12.5647 7.69671 12.5265V5.41147H11.8332C12.4079 5.41147 12.959 5.18861 13.3654 4.79192C13.7717 4.39523 14 3.8572 14 3.29619C14 2.73518 13.7717 2.19715 13.3654 1.80046C12.959 1.40377 12.4079 1.18091 11.8332 1.18091H7.10578Z" fill="#28D9DF" stroke="#28D9DF"/>
</svg>
