<svg width="67" height="67" viewBox="0 0 67 67" fill="none" xmlns="http://www.w3.org/2000/svg">
<mask id="mask0_689_402" style="mask-type:luminance" maskUnits="userSpaceOnUse" x="21" y="18" width="29" height="29">
<path d="M50 18H21V47H50V18Z" fill="white"/>
</mask>
<g mask="url(#mask0_689_402)">
<path d="M45.1317 22.8621C43.879 21.6035 42.3871 20.6055 40.7429 19.9263C39.0986 19.2472 37.3349 18.9005 35.5546 18.9063C28.0952 18.9063 22.0155 24.9555 22.0155 32.3777C22.0155 34.7566 22.644 37.0675 23.8189 39.1066L21.9062 46.0938L29.0788 44.2178C31.0598 45.2917 33.2868 45.8627 35.5546 45.8627C43.0142 45.8627 49.0938 39.8134 49.0938 32.3913C49.0938 28.789 47.6865 25.4041 45.1317 22.8621ZM35.5546 43.5789C33.5326 43.5789 31.5517 43.0352 29.8167 42.0156L29.4067 41.7709L25.1442 42.8856L26.2781 38.7531L26.0049 38.3317C24.8812 36.5469 24.2848 34.4837 24.2836 32.3777C24.2836 26.2061 29.3384 21.1765 35.541 21.1765C38.5466 21.1765 41.3747 22.3455 43.4923 24.4662C44.541 25.5045 45.3722 26.7398 45.9374 28.1002C46.5026 29.4606 46.7907 30.9192 46.785 32.3913C46.8123 38.5628 41.7572 43.5789 35.5546 43.5789ZM41.7299 35.2052C41.3884 35.042 39.7217 34.2264 39.4211 34.1041C39.1069 33.9953 38.8882 33.9409 38.6559 34.2672C38.4237 34.607 37.7817 35.3683 37.5904 35.5858C37.3991 35.8169 37.1941 35.8441 36.8526 35.6673C36.511 35.5042 35.4181 35.1372 34.1339 33.9953C33.1229 33.0981 32.4535 31.997 32.2486 31.6572C32.0573 31.3173 32.2212 31.1406 32.3988 30.9639C32.5491 30.8144 32.7404 30.5697 32.9043 30.3794C33.0683 30.1891 33.1365 30.0395 33.2458 29.8221C33.3551 29.591 33.3004 29.4007 33.2184 29.2376C33.1365 29.0745 32.4534 27.416 32.1801 26.7363C31.9069 26.0838 31.62 26.1654 31.4151 26.1518H30.7593C30.5271 26.1518 30.1718 26.2333 29.8576 26.5732C29.557 26.913 28.6826 27.7287 28.6826 29.3871C28.6826 31.0455 29.8986 32.6495 30.0625 32.867C30.2264 33.0981 32.4534 36.4966 35.8416 37.9511C36.6476 38.3045 37.2761 38.5084 37.7679 38.658C38.574 38.9163 39.3118 38.8755 39.8993 38.7939C40.5551 38.6987 41.9076 37.9783 42.1809 37.1898C42.4677 36.4014 42.4677 35.7353 42.3721 35.5858C42.2765 35.4363 42.0715 35.3683 41.7299 35.2052Z" fill="#28D9DF" stroke="#28D9DF" stroke-width="0.5"/>
</g>
</svg>
