<svg width="67" height="67" viewBox="0 0 67 67" fill="none" xmlns="http://www.w3.org/2000/svg">
<path d="M34 21C35.368 21 36.7712 21.0358 38.1312 21.0943L39.7376 21.1722L41.2752 21.2649L42.7152 21.364L44.0304 21.468C45.4579 21.5783 46.8013 22.1967 47.8239 23.2142C48.8466 24.2318 49.4829 25.5831 49.6208 27.0304L49.6848 27.721L49.8048 29.1997C49.9168 30.7321 50 32.4026 50 34C50 35.5974 49.9168 37.2679 49.8048 38.8003L49.6848 40.279L49.6208 40.9696C49.4828 42.4171 48.8463 43.7687 47.8233 44.7863C46.8003 45.8038 45.4566 46.422 44.0288 46.532L42.7168 46.6344L41.2768 46.7351L39.7376 46.8277L38.1312 46.9057C36.7549 46.9663 35.3776 46.9977 34 47C32.6224 46.9977 31.2451 46.9663 29.8688 46.9057L28.2624 46.8277L26.7248 46.7351L25.2848 46.6344L23.9696 46.532C22.5421 46.4217 21.1987 45.8033 20.1761 44.7858C19.1534 43.7682 18.5171 42.4169 18.3792 40.9696L18.3152 40.279L18.1952 38.8003C18.0733 37.2031 18.0082 35.6019 18 34C18 32.4026 18.0832 30.7321 18.1952 29.1997L18.3152 27.721L18.3792 27.0304C18.5171 25.5834 19.1531 24.2322 20.1755 23.2147C21.1978 22.1972 22.5408 21.5787 23.968 21.468L25.2816 21.364L26.7216 21.2649L28.2608 21.1722L29.8672 21.0943C31.244 21.0337 32.6219 21.0023 34 21ZM34 24.25C32.68 24.25 31.3216 24.2858 30 24.341L28.4352 24.4174L26.9328 24.5068L25.5216 24.6042L24.2288 24.7066C23.5491 24.755 22.9083 25.0465 22.4203 25.5293C21.9322 26.0122 21.6285 26.6552 21.5632 27.344C21.376 29.3086 21.2 31.7543 21.2 34C21.2 36.2457 21.376 38.6914 21.5632 40.656C21.6992 42.073 22.8064 43.1748 24.2288 43.2934L25.5216 43.3941L26.9328 43.4916L28.4352 43.5826L30 43.659C31.3216 43.7143 32.68 43.75 34 43.75C35.32 43.75 36.6784 43.7143 38 43.659L39.5648 43.5826L41.0672 43.4932L42.4784 43.3958L43.7712 43.2934C44.4509 43.245 45.0917 42.9535 45.5797 42.4707C46.0678 41.9878 46.3715 41.3448 46.4368 40.656C46.624 38.6914 46.8 36.2457 46.8 34C46.8 31.7543 46.624 29.3086 46.4368 27.344C46.3715 26.6552 46.0678 26.0122 45.5797 25.5293C45.0917 25.0465 44.4509 24.755 43.7712 24.7066L42.4784 24.6059L41.0672 24.5084L39.5648 24.4174L38 24.341C36.6674 24.2829 35.3338 24.2526 34 24.25ZM30.8 30.0594C30.7999 29.9006 30.838 29.7441 30.911 29.6037C30.984 29.4632 31.0896 29.343 31.2188 29.2534C31.348 29.1639 31.4967 29.1078 31.6521 29.0899C31.8075 29.0721 31.9648 29.093 32.1104 29.151L32.24 29.216L38.96 33.155C39.0938 33.2334 39.207 33.3435 39.29 33.4758C39.373 33.6082 39.4233 33.7589 39.4366 33.9153C39.45 34.0716 39.426 34.2289 39.3667 34.3738C39.3074 34.5186 39.2145 34.6469 39.096 34.7475L38.96 34.845L32.24 38.7856C32.1046 38.8653 31.952 38.9101 31.7957 38.9162C31.6393 38.9222 31.4838 38.8894 31.3428 38.8205C31.2018 38.7516 31.0795 38.6488 30.9866 38.5209C30.8936 38.393 30.8329 38.244 30.8096 38.0869L30.8 37.9406V30.0594Z" fill="#28D9DF"/>
</svg>
