<svg width="58" height="65" viewBox="0 0 58 65" fill="none" xmlns="http://www.w3.org/2000/svg">
<path d="M5.55895 58.5019L0.343262 0H57.6567L52.4358 58.4931L28.9652 65L5.55895 58.5019Z" fill="#1572B6"/>
<path d="M29.0012 60.027L47.9668 54.7688L52.4288 4.78345H29.0012V60.027Z" fill="#33A9DC"/>
<path d="M29.0012 25.9783H38.4957L39.1514 18.631H29.0012V11.4559H46.9931L46.8209 13.3811L45.0571 33.1534H29.0012V25.9783Z" fill="white"/>
<path d="M29.0431 44.6126L29.0114 44.6219L21.0209 42.4643L20.5099 36.7418H13.3083L14.3132 48.0079L29.0104 52.087L29.0431 52.0776V44.6126Z" fill="#EBEBEB"/>
<path d="M37.8851 32.85L37.0208 42.4586L29.0183 44.6187V52.0838L43.7274 48.0073L43.8353 46.795L45.0835 32.85H37.8851Z" fill="white"/>
<path d="M29.0252 11.4559V18.631H11.6942L11.5505 17.0187L11.2237 13.3811L11.052 11.4559H29.0252ZM29.0008 25.9793V33.1544H21.1109L20.9672 31.5421L20.6399 27.9045L20.4687 25.9793H29.0008Z" fill="#EBEBEB"/>
</svg>
