<svg width="66" height="65" viewBox="0 0 66 65" fill="none" xmlns="http://www.w3.org/2000/svg">
<g clip-path="url(#clip0_560_184)">
<path d="M50.2656 0H15.7344C7.32066 0 0.5 6.82066 0.5 15.2344V49.7656C0.5 58.1793 7.32066 65 15.7344 65H50.2656C58.6793 65 65.5 58.1793 65.5 49.7656V15.2344C65.5 6.82066 58.6793 0 50.2656 0Z" fill="#F0DB4F"/>
<path d="M17.5908 54.3186L22.5649 51.3083C23.5246 53.0098 24.3975 54.4494 26.4915 54.4494C28.4986 54.4494 29.7641 53.6643 29.7641 50.6103V29.8413H35.8726V50.6967C35.8726 57.0233 32.164 59.9031 26.7533 59.9031C21.8669 59.9031 19.0305 57.3724 17.5906 54.3181M39.1904 53.6641L44.1639 50.7845C45.4733 52.9227 47.175 54.4933 50.1853 54.4933C52.7165 54.4933 54.3303 53.2279 54.3303 51.4825C54.3303 49.3883 52.6723 48.6464 49.8798 47.4251L48.3531 46.7703C43.946 44.8944 41.0226 42.5382 41.0226 37.5641C41.0226 32.9826 44.5133 29.4919 49.9674 29.4919C53.8507 29.4919 56.6431 30.8448 58.65 34.3789L53.8941 37.4331C52.8467 35.557 51.7128 34.8153 49.9674 34.8153C48.1784 34.8153 47.044 35.9498 47.044 37.4331C47.044 39.2656 48.1784 40.0075 50.7962 41.1422L52.3232 41.7965C57.5153 44.022 60.4388 46.2904 60.4388 51.3952C60.4388 56.8933 56.1193 59.9036 50.3163 59.9036C44.6443 59.9036 40.9792 57.1984 39.1904 53.6641Z" fill="#323330"/>
</g>
<defs>
<clipPath id="clip0_560_184">
<rect width="65" height="65" fill="white" transform="translate(0.5)"/>
</clipPath>
</defs>
</svg>
