<svg width="66" height="65" viewBox="0 0 66 65" fill="none" xmlns="http://www.w3.org/2000/svg">
<mask id="mask0_560_368" style="mask-type:luminance" maskUnits="userSpaceOnUse" x="0" y="0" width="66" height="65">
<path d="M0.5 0H65.5V65H0.5V0Z" fill="white"/>
</mask>
<g mask="url(#mask0_560_368)">
<path d="M30.8712 0.0165885C30.7304 0.0301302 30.2863 0.0761719 29.8854 0.105964C20.6554 0.94013 12.0104 5.92076 6.52875 13.5772C3.50353 17.7808 1.5359 22.6516 0.7925 27.777C0.5325 29.5645 0.5 30.0899 0.5 32.5112C0.5 34.9324 0.5325 35.4605 0.7925 37.2453C2.55833 49.4518 11.2467 59.7056 23.0252 63.5053C25.135 64.1851 27.3585 64.6483 29.8854 64.9299C30.8713 65.0383 35.1287 65.0383 36.1146 64.9299C40.4777 64.4451 44.1773 63.3645 47.8227 61.5039C48.3833 61.2195 48.4917 61.141 48.4158 61.0787C46.6327 58.727 44.8677 56.3617 43.121 53.9828L37.9237 46.9601L31.4129 37.3212C29.2465 34.0972 27.06 30.8869 24.8533 27.6903C24.829 27.6822 24.8046 31.9641 24.791 37.1966C24.7721 46.3508 24.764 46.7191 24.6502 46.9358C24.5385 47.1881 24.3407 47.3925 24.0923 47.5126C23.8892 47.6156 23.7131 47.6345 22.7517 47.6345H21.6521L21.3596 47.4503C21.1786 47.3361 21.0317 47.1752 20.9344 46.9845L20.799 46.7001L20.8125 33.9601L20.8315 21.2147L21.0292 20.9655C21.1604 20.8079 21.3203 20.6764 21.5004 20.5783C21.7604 20.451 21.8606 20.4401 22.9629 20.4401C24.2575 20.4401 24.4742 20.4889 24.81 20.8572C24.9048 20.9601 28.431 26.2739 32.6506 32.671L45.4719 52.0951L50.6177 59.8897L50.8804 59.7191C53.3573 58.0731 55.6026 56.1029 57.5565 53.861C61.6515 49.1734 64.308 43.4044 65.2075 37.2453C65.4675 35.4578 65.5 34.9324 65.5 32.5112C65.5 30.0899 65.4675 29.5645 65.2075 27.777C63.4417 15.5733 54.7533 5.3168 42.9748 1.51701C40.7734 0.817089 38.5066 0.342502 36.2094 0.100547C35.5973 0.0355469 31.3994 -0.0348698 30.874 0.0192969M44.18 19.6818C44.3313 19.7575 44.466 19.8626 44.5762 19.9909C44.6864 20.1193 44.7699 20.2683 44.8219 20.4293C44.8706 20.5918 44.8842 24.1262 44.8706 32.0887L44.8517 43.5124L42.8394 40.4249L40.819 37.3374V29.0337C40.819 23.663 40.8433 20.646 40.8812 20.4997C40.9266 20.3307 41.0057 20.1725 41.1136 20.0348C41.2216 19.897 41.3563 19.7825 41.5096 19.698C41.7723 19.5626 41.8671 19.5518 42.8637 19.5518C43.8035 19.5518 43.9687 19.5653 44.18 19.6791" fill="white"/>
</g>
</svg>
