<svg width="66" height="65" viewBox="0 0 66 65" fill="none" xmlns="http://www.w3.org/2000/svg">
<path d="M50.2656 0H15.7344C7.32066 0 0.5 6.82066 0.5 15.2344V49.7656C0.5 58.1793 7.32066 65 15.7344 65H50.2656C58.6793 65 65.5 58.1793 65.5 49.7656V15.2344C65.5 6.82066 58.6793 0 50.2656 0Z" fill="#242938"/>
<path d="M33.0001 37.3116C35.6163 37.3116 37.7369 35.1908 37.7369 32.5748C37.7369 29.9588 35.6163 27.8379 33.0001 27.8379C30.3838 27.8379 28.2632 29.9588 28.2632 32.5748C28.2632 35.1908 30.3841 37.3116 33.0001 37.3116Z" fill="#00D8FF"/>
<path d="M33.0005 22.9438C39.3604 22.9438 45.2685 23.8564 49.7233 25.3902C55.0906 27.2379 58.3906 30.0387 58.3906 32.575C58.3906 35.2179 54.8933 38.1935 49.1294 40.1031C44.7719 41.5468 39.0376 42.3004 33.0005 42.3004C26.8108 42.3004 20.9494 41.593 16.5426 40.0871C10.9673 38.1815 7.60938 35.1677 7.60938 32.575C7.60938 30.0593 10.7604 27.2801 16.0523 25.4352C20.5236 23.8762 26.5774 22.9438 32.9995 22.9438H33.0005Z" stroke="#00D8FF" stroke-width="0.556938"/>
<path d="M24.6168 27.787C27.7942 22.2777 31.536 17.6155 35.0902 14.5229C39.372 10.7963 43.4472 9.33689 45.644 10.6036C47.9335 11.9239 48.764 16.4404 47.5389 22.3874C46.6134 26.8833 44.4009 32.227 41.3847 37.457C38.2924 42.819 34.7517 47.5432 31.246 50.6073C26.81 54.485 22.5213 55.8883 20.2755 54.5931C18.0962 53.3373 17.2629 49.2187 18.3085 43.7127C19.1918 39.0604 21.4087 33.3503 24.6158 27.787H24.6168Z" stroke="#00D8FF" stroke-width="0.556938"/>
<path d="M24.6244 37.4711C21.4381 31.9679 19.2687 26.3967 18.3633 21.7731C17.2733 16.2021 18.0439 11.9428 20.2389 10.6723C22.5263 9.3479 26.8537 10.884 31.394 14.9156C34.8268 17.9634 38.3518 22.5482 41.3766 27.7731C44.4778 33.13 46.8021 38.5573 47.7062 43.1245C48.8503 48.9045 47.9243 53.3206 45.6806 54.6194C43.5036 55.8798 39.5195 54.5455 35.2714 50.8898C31.6822 47.8012 27.8421 43.0291 24.6244 37.4711Z" stroke="#00D8FF" stroke-width="0.556938"/>
</svg>
