<svg width="66" height="65" viewBox="0 0 66 65" fill="none" xmlns="http://www.w3.org/2000/svg">
<path fill-rule="evenodd" clip-rule="evenodd" d="M33 0C39.4279 0 45.7114 1.90609 51.056 5.47724C56.4006 9.04838 60.5662 14.1242 63.0261 20.0628C65.4859 26.0014 66.1295 32.536 64.8755 38.8404C63.6215 45.1448 60.5262 50.9358 55.981 55.481C51.4358 60.0262 45.6448 63.1215 39.3404 64.3755C33.036 65.6295 26.5014 64.9859 20.5628 62.5261C14.6242 60.0662 9.54838 55.9006 5.97724 50.556C2.40609 45.2114 0.5 38.9279 0.5 32.5C0.5 23.8805 3.9241 15.614 10.019 9.51903C16.114 3.4241 24.3805 0 33 0Z" fill="#CC6699"/>
<path d="M53.3872 13.9098C51.9154 8.13873 42.3441 6.24909 33.2859 9.4573C27.6129 11.3633 22.3717 14.3696 17.8623 18.3043C12.8736 22.9703 12.0773 27.0328 12.4047 28.7298C13.5654 34.7191 21.767 38.633 25.14 41.5371V41.5534C24.1464 42.0432 16.8664 45.7319 15.1579 49.4926C13.3611 53.4669 15.4434 56.3176 16.8247 56.7007C18.8984 57.1999 21.0765 57.0375 23.0532 56.236C25.03 55.4346 26.7062 54.0344 27.8468 52.2319C28.7901 50.7719 29.3803 49.1121 29.5704 47.3842C29.7606 45.6564 29.5456 43.908 28.9425 42.2777C30.5669 41.8626 32.2562 41.7656 33.9173 41.9921C39.6188 42.6584 40.7377 46.2171 40.5241 47.7075C40.4237 48.238 40.2102 48.7406 39.8981 49.1813C39.5861 49.6219 39.1828 49.9902 38.7157 50.261C38.3164 50.5094 38.1934 50.593 38.2282 50.7787C38.277 51.0457 38.4604 51.0364 38.8016 50.9784C39.6584 50.7085 40.4133 50.1855 40.967 49.4781C41.5206 48.7707 41.847 47.9122 41.903 47.0157C42.04 43.5335 38.6948 39.6196 32.7705 39.7194C31.0498 39.6688 29.3326 39.9041 27.6889 40.4159L27.4382 40.1373C23.775 36.2303 17.0057 33.4655 17.2913 28.2121C17.3957 26.3016 18.0597 21.2734 30.2913 15.1727C40.3198 10.1746 48.3473 11.5512 49.7355 14.5993C51.718 18.9543 45.4455 27.0444 35.0316 28.2121C33.8806 28.4458 32.6917 28.4173 31.5532 28.1287C30.4147 27.8402 29.3558 27.299 28.455 26.5453C27.9072 25.9418 27.8259 25.9162 27.6216 26.0277C27.2897 26.211 27.5009 26.745 27.6216 27.0607C28.0205 27.7793 28.5588 28.411 29.2049 28.9188C29.8511 29.4267 30.5922 29.8004 31.3847 30.0182C35.4792 30.9066 39.7495 30.4843 43.5907 28.811C49.9073 26.3759 54.8334 19.5857 53.3872 13.9098ZM26.5422 43.3246C27.001 44.9144 26.9776 46.6046 26.4748 48.181C26.4207 48.3451 26.3611 48.5076 26.2961 48.6685C26.2311 48.8295 26.1607 48.9843 26.0848 49.1328C25.6916 49.9307 25.1858 50.6679 24.5829 51.3219C22.6956 53.381 20.0561 54.161 18.9256 53.5041C17.7045 52.796 18.315 49.8919 20.5041 47.5775C22.1868 45.9148 24.126 44.5337 26.2473 43.4871L26.5422 43.3246Z" fill="white"/>
</svg>
