<svg width="70" height="65" viewBox="0 0 70 65" fill="none" xmlns="http://www.w3.org/2000/svg">
<path d="M69.9262 13.7721C69.9262 13.7721 46.6418 -3.36142 28.6296 0.592344L27.3117 1.03165C24.6759 1.91027 22.4793 3.22819 21.1614 4.98542L20.2828 6.30334L13.6926 17.7259L25.1146 19.9224C29.9476 22.9981 36.0984 24.3155 41.8094 22.9981L62.0181 26.9519L69.9262 13.7721Z" fill="#76B3E1"/>
<path opacity="0.3" d="M69.9262 13.7721C69.9262 13.7721 46.6418 -3.36142 28.6296 0.592344L27.3117 1.03165C24.6759 1.91027 22.4793 3.22819 21.1614 4.98542L20.2828 6.30334L13.6926 17.7259L25.1146 19.9224C29.9476 22.9981 36.0984 24.3155 41.8094 22.9981L62.0181 26.9519L69.9262 13.7721Z" fill="url(#paint0_linear_561_749)"/>
<path d="M21.1616 13.7723L19.4044 14.2116C11.9351 16.4081 9.73857 23.4376 13.6923 29.5879C18.0854 35.2989 27.3114 38.374 34.7796 36.178L62.0178 26.952C62.0178 26.952 38.7345 9.81851 21.1616 13.7723Z" fill="#518AC8"/>
<path opacity="0.3" d="M21.1616 13.7723L19.4044 14.2116C11.9351 16.4081 9.73857 23.4376 13.6923 29.5879C18.0854 35.2989 27.3114 38.374 34.7796 36.178L62.0178 26.952C62.0178 26.952 38.7345 9.81851 21.1616 13.7723Z" fill="url(#paint1_linear_561_749)"/>
<path d="M57.1861 33.5423C54.7264 30.4697 51.4056 28.2011 47.6488 27.0271C43.8921 25.853 39.8705 25.8269 36.0988 26.9521L8.86012 35.7383L0.0739746 51.1151L49.2786 59.462L58.0647 43.6464C59.822 40.5712 59.3827 37.0567 57.1861 33.5417V33.5423Z" fill="url(#paint2_linear_561_749)"/>
<path d="M48.3994 48.9181C45.9396 45.8455 42.6188 43.5771 38.862 42.4031C35.1053 41.2292 31.0837 41.2032 27.3121 42.3285L0.0739746 51.1146C0.0739746 51.1146 23.3584 68.688 41.3705 64.2949L42.6884 63.8551C50.1572 61.6585 52.7931 54.6291 48.3994 48.9181Z" fill="url(#paint3_linear_561_749)"/>
<defs>
<linearGradient id="paint0_linear_561_749" x1="10.3977" y1="-0.286222" x2="65.0935" y2="26.2929" gradientUnits="userSpaceOnUse">
<stop offset="0.1" stop-color="#76B3E1"/>
<stop offset="0.3" stop-color="#DCF2FD"/>
<stop offset="1" stop-color="#76B3E1"/>
</linearGradient>
<linearGradient id="paint1_linear_561_749" x1="40.4038" y1="12.7179" x2="30.8265" y2="44.6128" gradientUnits="userSpaceOnUse">
<stop stop-color="#76B3E1"/>
<stop offset="0.5" stop-color="#4377BB"/>
<stop offset="1" stop-color="#1F3B77"/>
</linearGradient>
<linearGradient id="paint2_linear_561_749" x1="6.4003" y1="26.6006" x2="61.7112" y2="64.2068" gradientUnits="userSpaceOnUse">
<stop stop-color="#315AA9"/>
<stop offset="0.5" stop-color="#518AC8"/>
<stop offset="1" stop-color="#315AA9"/>
</linearGradient>
<linearGradient id="paint3_linear_561_749" x1="31.3539" y1="31.1257" x2="9.03624" y2="112.972" gradientUnits="userSpaceOnUse">
<stop stop-color="#4377BB"/>
<stop offset="0.5" stop-color="#1A336B"/>
<stop offset="1" stop-color="#1A336B"/>
</linearGradient>
</defs>
</svg>
