<svg width="92" height="65" viewBox="0 0 92 65" fill="none" xmlns="http://www.w3.org/2000/svg">
<path d="M90.6355 24.5676C90.3625 24.3863 88.0875 22.6185 83.1735 22.6185C81.8995 22.6185 80.6255 22.7545 79.3515 22.9812C78.396 16.6353 73.0725 13.417 72.845 13.281L71.5255 12.5105L70.7065 13.7343C69.6145 15.3661 68.75 17.2245 68.386 19.1283C67.476 22.7545 68.022 26.1994 69.8875 29.1457C67.658 30.4149 64.018 30.7322 63.2445 30.7322H3.321C1.774 30.7322 0.5 32.0014 0.5 33.5879C0.5 38.8006 1.319 44.0132 3.139 48.9086C5.1865 54.3026 8.2805 58.2915 12.239 60.7392C16.698 63.4589 24.0235 65 32.35 65C35.9445 65 39.6755 64.6827 43.361 64.0028C48.457 63.0962 53.371 61.3285 57.8755 58.7448C61.6061 56.6196 64.9452 53.8756 67.749 50.6311C72.5265 45.3278 75.3475 39.2992 77.395 34.0865H78.2595C83.4465 34.0865 86.677 32.0014 88.4515 30.2336C89.6345 29.1457 90.499 27.8312 91.136 26.2901L91.5 25.2022L90.6355 24.5676ZM8.9175 29.0551H16.9255C17.2895 29.0551 17.6535 28.7378 17.6535 28.3298V21.1681C17.6535 20.8054 17.335 20.4428 16.9255 20.4428H8.9175C8.508 20.4428 8.1895 20.7601 8.1895 21.1681V28.3298C8.235 28.7378 8.508 29.0551 8.9175 29.0551ZM19.974 29.0551H27.982C28.346 29.0551 28.71 28.7378 28.71 28.3298V21.1681C28.71 20.8054 28.3915 20.4428 27.982 20.4428H19.974C19.5645 20.4428 19.246 20.7601 19.246 21.1681V28.3298C19.2915 28.7378 19.5645 29.0551 19.974 29.0551ZM31.2125 29.0551H39.175C39.63 29.0551 39.9485 28.7378 39.9485 28.3298V21.1681C39.9485 20.8054 39.6755 20.4428 39.175 20.4428H31.2125C30.8485 20.4428 30.53 20.7601 30.53 21.1681V28.3298C30.53 28.7378 30.803 29.0551 31.2125 29.0551ZM42.3145 29.0551H50.368C50.732 29.0551 51.0505 28.7378 51.0505 28.3298V21.1681C51.0505 20.8054 50.7775 20.4428 50.368 20.4428H42.3145C41.9505 20.4428 41.632 20.7601 41.632 21.1681V28.3298C41.632 28.7378 41.9505 29.0551 42.3145 29.0551ZM19.974 18.9017H27.982C28.346 18.9017 28.71 18.4937 28.71 18.0858V10.9693C28.71 10.5614 28.3915 10.2441 27.982 10.2441H19.974C19.5645 10.2441 19.246 10.516 19.246 10.9693V18.0858C19.2915 18.4937 19.5645 18.9017 19.974 18.9017ZM31.2125 18.9017H39.175C39.63 18.9017 39.9485 18.4937 39.9485 18.0858V10.9693C39.9485 10.5614 39.6755 10.2441 39.175 10.2441H31.2125C30.8485 10.2441 30.53 10.516 30.53 10.9693V18.0858C30.53 18.4937 30.803 18.9017 31.2125 18.9017ZM42.3145 18.9017H50.368C50.732 18.9017 51.0505 18.4937 51.0505 18.0858V10.9693C51.0505 10.5614 50.732 10.2441 50.368 10.2441H42.3145C41.9505 10.2441 41.632 10.516 41.632 10.9693V18.0858C41.632 18.4937 41.9505 18.9017 42.3145 18.9017ZM42.3145 8.56694H50.368C50.732 8.56694 51.0505 8.24965 51.0505 7.8417V0.770572C51.0505 0.317295 50.732 0 50.368 0H42.3145C41.9505 0 41.632 0.271967 41.632 0.770572V7.8417C41.632 8.20432 41.9505 8.56694 42.3145 8.56694ZM53.5075 29.0551H61.5155C61.925 29.0551 62.2435 28.7378 62.2435 28.3298V21.1681C62.2435 20.8054 61.925 20.4428 61.5155 20.4428H53.5075C53.1435 20.4428 52.825 20.7601 52.825 21.1681V28.3298C52.825 28.7378 53.1435 29.0551 53.5075 29.0551Z" fill="#0288D1"/>
</svg>
