<svg width="66" height="65" viewBox="0 0 66 65" fill="none" xmlns="http://www.w3.org/2000/svg">
<path d="M50.2656 0H15.7344C7.32066 0 0.5 6.82066 0.5 15.2344V49.7656C0.5 58.1793 7.32066 65 15.7344 65H50.2656C58.6793 65 65.5 58.1793 65.5 49.7656V15.2344C65.5 6.82066 58.6793 0 50.2656 0Z" fill="#00B4E0"/>
<path d="M10.7832 28.7509C10.6816 28.7509 10.6563 28.7001 10.707 28.624L11.2402 27.9384C11.291 27.8622 11.418 27.8114 11.5195 27.8114H20.584C20.6855 27.8114 20.7109 27.8876 20.6602 27.9638L20.2285 28.624C20.1777 28.7001 20.0508 28.7763 19.9746 28.7763L10.7832 28.7509ZM6.94922 31.0868C6.84766 31.0868 6.82227 31.0361 6.87305 30.9599L7.40625 30.2743C7.45703 30.1982 7.58398 30.1474 7.68555 30.1474H19.2637C19.3652 30.1474 19.416 30.2236 19.3906 30.2997L19.1875 30.9091C19.1621 31.0107 19.0605 31.0614 18.959 31.0614L6.94922 31.0868ZM13.0937 33.4228C12.9922 33.4228 12.9668 33.3466 13.0176 33.2704L13.373 32.6357C13.4238 32.5595 13.5254 32.4833 13.627 32.4833H18.7051C18.8066 32.4833 18.8574 32.5595 18.8574 32.6611L18.8066 33.2704C18.8066 33.372 18.7051 33.4482 18.6289 33.4482L13.0937 33.4228ZM39.4492 28.2939C37.8496 28.7001 36.7578 29.0048 35.1836 29.4111C34.8027 29.5126 34.7773 29.538 34.4473 29.1572C34.0664 28.7255 33.7871 28.4462 33.2539 28.1923C31.6543 27.4052 30.1055 27.6337 28.6582 28.5732C26.9316 29.6904 26.043 31.3407 26.0684 33.3974C26.0937 35.4286 27.4902 37.1044 29.4961 37.3837C31.2227 37.6122 32.6699 37.0029 33.8125 35.7079C34.041 35.4286 34.2441 35.124 34.498 34.7685H29.5977C29.0645 34.7685 28.9375 34.4384 29.1152 34.0068C29.4453 33.2197 30.0547 31.8993 30.4102 31.2392C30.4863 31.0868 30.6641 30.8329 31.0449 30.8329H40.2871C40.2363 31.5185 40.2363 32.204 40.1348 32.8896C39.8555 34.7177 39.1699 36.3935 38.0527 37.8661C36.2246 40.2782 33.8379 41.7763 30.8164 42.1825C28.3281 42.5126 26.0176 42.0302 23.9863 40.5068C22.1074 39.0849 21.041 37.206 20.7617 34.87C20.4316 32.1025 21.2441 29.6142 22.9199 27.4306C24.7227 25.0693 27.1094 23.5712 30.0293 23.038C32.416 22.6064 34.7012 22.8857 36.7578 24.2822C38.1035 25.1708 39.0684 26.3896 39.7031 27.8622C39.8555 28.0907 39.7539 28.2177 39.4492 28.2939Z" fill="white"/>
<path d="M47.8535 42.3348C45.5429 42.284 43.4355 41.6239 41.6581 40.1004C40.1601 38.8055 39.2206 37.1551 38.916 35.2001C38.4589 32.3309 39.246 29.7919 40.9726 27.5321C42.8261 25.0946 45.0605 23.8251 48.082 23.2919C50.6718 22.8348 53.1093 23.0887 55.3183 24.5868C57.3242 25.9579 58.5683 27.8114 58.8984 30.2489C59.33 33.6766 58.3398 36.4696 55.9785 38.8563C54.3027 40.5575 52.246 41.6239 49.8847 42.1063C49.1992 42.2333 48.5136 42.2586 47.8535 42.3348ZM53.8964 32.077C53.871 31.7469 53.871 31.493 53.8203 31.2391C53.3632 28.7254 51.0527 27.3036 48.6406 27.8622C46.2792 28.3954 44.7558 29.8934 44.1972 32.2801C43.7402 34.2606 44.705 36.2665 46.5331 37.079C47.9296 37.6883 49.3261 37.6122 50.6718 36.9266C52.6777 35.8856 53.7695 34.2606 53.8964 32.077Z" fill="white"/>
</svg>
