<svg width="66" height="65" viewBox="0 0 66 65" fill="none" xmlns="http://www.w3.org/2000/svg">
<path d="M50.2656 0H15.7344C7.32066 0 0.5 6.82066 0.5 15.2344V49.7656C0.5 58.1793 7.32066 65 15.7344 65H50.2656C58.6793 65 65.5 58.1793 65.5 49.7656V15.2344C65.5 6.82066 58.6793 0 50.2656 0Z" fill="#242938"/>
<mask id="mask0_560_662" style="mask-type:luminance" maskUnits="userSpaceOnUse" x="10" y="9" width="46" height="47">
<path d="M10.1484 9.64844H55.8516V55.3516H10.1484V9.64844Z" fill="white"/>
</mask>
<g mask="url(#mask0_560_662)">
<path fill-rule="evenodd" clip-rule="evenodd" d="M52.2466 45.2487C49.7608 45.1796 47.8324 45.4343 46.2163 46.1143C45.7509 46.3011 45.0041 46.3011 44.9427 46.8869C45.1915 47.1327 45.2215 47.5349 45.4396 47.8756C45.8121 48.4939 46.4656 49.3267 47.0557 49.7588L49.0448 51.1802C50.257 51.9208 51.6245 52.3538 52.8054 53.0952C53.4894 53.5278 54.173 54.0839 54.857 54.5478C55.2053 54.7948 55.4163 55.1972 55.8518 55.3509V55.2574C55.6344 54.9804 55.5717 54.579 55.3551 54.2687L54.4215 53.3734C53.5209 52.1689 52.4012 51.1177 51.1891 50.2537C50.1942 49.574 48.0193 48.6475 47.6151 47.5052L47.5539 47.4358C48.2366 47.3668 49.0448 47.1263 49.6981 46.941C50.7556 46.664 51.7184 46.7249 52.8054 46.4471L54.2984 46.0145V45.7375C53.7388 45.1817 53.3348 44.44 52.7447 43.9154C51.1599 42.5563 49.4181 41.2276 47.6151 40.1157C46.6517 39.4982 45.4081 39.0958 44.3826 38.5717C44.0086 38.3861 43.3878 38.2934 43.1704 37.9847C42.6096 37.3062 42.2995 36.4095 41.8956 35.6058L39.3471 30.2312C38.7878 29.0264 38.445 27.8216 37.7622 26.7097C34.5602 21.4582 31.0784 18.277 25.7322 15.1565C24.5827 14.5078 23.2152 14.2287 21.7611 13.8895L19.4302 13.7651C18.932 13.549 18.4351 12.9617 17.9999 12.6834C16.2282 11.5713 11.6589 9.16226 10.3523 12.3374C9.51313 14.345 11.5962 16.3217 12.3033 17.3416C12.8327 18.052 13.5155 18.8549 13.8895 19.6582C14.0984 20.1831 14.1683 20.7396 14.3864 21.2957C14.883 22.6546 15.3497 24.1689 16.0025 25.4359C16.3508 26.0846 16.7167 26.7651 17.1519 27.3516C17.4007 27.6977 17.8362 27.846 17.9289 28.4018C17.4934 29.02 17.4634 29.9458 17.2146 30.7192C16.0951 34.2099 16.5306 38.5344 18.1155 41.1044C18.6136 41.8763 19.7875 43.576 21.3802 42.9267C22.779 42.3707 22.4669 40.6101 22.8709 39.0653C22.9648 38.6951 22.9024 38.4478 23.0882 38.2V38.2693L24.3631 40.833C25.3267 42.3465 27.0058 43.9223 28.4038 44.9732C29.1492 45.5293 29.7401 46.4875 30.6722 46.8267V46.7333H30.611C30.4241 46.4563 30.144 46.3316 29.8955 46.1155C29.3361 45.5597 28.7145 44.8798 28.2791 44.2623C26.9743 42.5327 25.8248 40.6169 24.7985 38.6403C24.3006 37.6828 23.8652 36.6324 23.4625 35.6749C23.2743 35.3039 23.2743 34.7471 22.9643 34.563C22.4974 35.2415 21.8149 35.83 21.4714 36.6636C20.8805 37.9915 20.8193 39.629 20.602 41.3281C20.4766 41.3591 20.5322 41.3281 20.4766 41.3972C19.483 41.1509 19.1402 40.1302 18.7678 39.2662C17.8354 37.0729 17.6793 33.5515 18.4875 31.0183C18.7048 30.3695 19.6384 28.3307 19.2657 27.7129C19.0778 27.1259 18.4575 26.7867 18.1147 26.3228C17.7108 25.7357 17.2768 24.9948 16.9968 24.3461C16.2513 22.6152 15.8786 20.7008 15.0696 18.9709C14.6956 18.1676 14.0436 17.3332 13.5147 16.5926C12.9239 15.7582 12.2726 15.171 11.8059 14.183C11.6505 13.8369 11.4332 13.2872 11.6817 12.916C11.7432 12.669 11.8684 12.5699 12.1159 12.5146C12.5196 12.1683 13.6708 12.6073 14.0748 12.7913C15.2242 13.2552 16.1878 13.6874 17.1514 14.3354C17.5868 14.6441 18.0535 15.2314 18.6129 15.3865H19.2664C20.2612 15.6023 21.3794 15.4556 22.3108 15.7326C23.9586 16.2587 25.4501 17.0301 26.7876 17.8649C30.859 20.4288 34.2169 24.0739 36.4851 28.4302C36.8578 29.1406 37.0132 29.7894 37.356 30.5308C38.0095 32.0451 38.8177 33.5891 39.469 35.0726C40.1225 36.5245 40.7439 38.0083 41.6762 39.2128C42.1429 39.8616 44.0071 40.2008 44.846 40.5408C45.468 40.8178 46.4308 41.0671 46.9917 41.4063C48.0477 42.0551 49.1047 42.7965 50.0988 43.5069C50.5954 43.8766 52.1506 44.6492 52.243 45.2654L52.2466 45.2487ZM20.5482 18.405C20.1188 18.4013 19.6908 18.4532 19.2748 18.5593V18.6287H19.336C19.5848 19.123 20.0203 19.463 20.3308 19.8956L21.0463 21.3785L21.1078 21.3094C21.543 21.0006 21.7611 20.5063 21.7611 19.7656C21.5744 19.5496 21.5437 19.3327 21.3883 19.1167C21.2017 18.8079 20.7977 18.6528 20.5482 18.4065V18.405Z" fill="white"/>
</g>
</svg>
