<svg width="84" height="65" viewBox="0 0 84 65" fill="none" xmlns="http://www.w3.org/2000/svg">
<path d="M77.4545 17.7273C77.4545 14.5929 76.2094 11.5869 73.9931 9.37058C71.7767 7.15424 68.7707 5.90912 65.6363 5.90912H47.9091V23.6364C47.9091 28.338 46.0414 32.847 42.7169 36.1715C39.3924 39.496 34.8834 41.3637 30.1818 41.3637H24.2727V47.2728H30.1818V65H42V47.2728H65.6363V65H77.4545V35.4546H83.3636V23.6364C83.3636 22.0692 82.7411 20.5662 81.6329 19.458C80.5247 18.3499 79.0217 17.7273 77.4545 17.7273Z" fill="#0288D1"/>
<path d="M30.1817 0H18.3635V5.90909C13.6619 5.90909 9.15294 7.77678 5.82843 11.1013C2.50392 14.4258 0.63623 18.9348 0.63623 23.6364V41.3636C0.63623 42.9308 1.25879 44.4338 2.36696 45.542C3.47513 46.6502 4.97813 47.2727 6.54532 47.2727V53.1818H2.1135C1.72171 53.1818 1.34596 53.3375 1.06891 53.6145C0.791872 53.8915 0.63623 54.2673 0.63623 54.6591V63.5227C0.63623 63.9145 0.791872 64.2903 1.06891 64.5673C1.34596 64.8444 1.72171 65 2.1135 65H12.4544C14.0216 65 15.5246 64.3774 16.6328 63.2693C17.7409 62.1611 18.3635 60.6581 18.3635 59.0909V35.4545H30.1817C33.3161 35.4545 36.3221 34.2094 38.5384 31.9931C40.7547 29.7767 41.9999 26.7707 41.9999 23.6364V11.8182C41.9999 8.68381 40.7547 5.6778 38.5384 3.46146C36.3221 1.24513 33.3161 0 30.1817 0ZM12.4544 29.5455H6.54532V23.6364H12.4544V29.5455Z" fill="#0288D1"/>
</svg>
