<svg width="66" height="65" viewBox="0 0 66 65" fill="none" xmlns="http://www.w3.org/2000/svg">
<path d="M65.5 23.2143L56.2143 18.5714V9.28571H46.9286L42.2857 0L33 4.64286L23.7143 0L19.0714 9.28571H9.78571V18.5714L0.5 23.2143L5.14286 32.5L0.5 41.7857L9.78571 46.4286V55.7143H19.0714L23.7143 65L33 60.3571L42.2857 65L46.9286 55.7143H56.2143V46.4286L65.5 41.7857L60.8571 32.5L65.5 23.2143ZM9.78571 32.5C9.78421 29.3025 10.4499 26.1398 11.7404 23.2143H19.0714V41.7857H11.7404C10.4499 38.8602 9.78421 35.6975 9.78571 32.5ZM33 55.7143C29.4041 55.71 25.8585 54.8687 22.644 53.257C19.4295 51.6453 16.6343 49.3075 14.4796 46.4286H33V41.7857H28.3571V37.1429H37.6429C39.5441 39.0441 38.3323 42.5007 40.3798 44.9661C40.8046 45.4414 41.3278 45.8185 41.9132 46.0711C42.4985 46.3237 43.1318 46.4457 43.7691 46.4286H51.5227C49.3678 49.3078 46.5722 51.6458 43.3572 53.2575C40.1423 54.8692 36.5963 55.7103 33 55.7143ZM28.3571 27.8571V23.2143H37.6429C38.2585 23.2143 38.849 23.4589 39.2844 23.8942C39.7197 24.3296 39.9643 24.92 39.9643 25.5357C39.9643 26.1514 39.7197 26.7419 39.2844 27.1772C38.849 27.6126 38.2585 27.8571 37.6429 27.8571H28.3571ZM54.2596 41.7857H51.5714C50.3412 41.782 49.1624 41.2917 48.2925 40.4218C47.4226 39.5519 46.9322 38.3731 46.9286 37.1429C46.9286 35.9115 46.4394 34.7306 45.5687 33.8599C44.698 32.9892 43.5171 32.5 42.2857 32.5C44.1328 32.5 45.9042 31.7663 47.2102 30.4602C48.5163 29.1542 49.25 27.3828 49.25 25.5357C49.25 25.4119 49.2469 25.2873 49.2407 25.162C49.0787 23.3366 48.2298 21.6409 46.8654 20.4175C45.5011 19.1941 43.7232 18.5343 41.8911 18.5714H14.4796C17.8907 14.0195 22.8563 10.8806 28.4314 9.75206C34.0065 8.62353 39.802 9.58415 44.7148 12.4511C49.6276 15.3181 53.3149 19.8913 55.0749 25.3003C56.8349 30.7094 56.5447 36.5767 54.2596 41.7857Z" fill="#FF7043"/>
</svg>
