<svg width="66" height="65" viewBox="0 0 66 65" fill="none" xmlns="http://www.w3.org/2000/svg">
<path d="M50.2656 0H15.7344C7.32066 0 0.5 6.82066 0.5 15.2344V49.7656C0.5 58.1793 7.32066 65 15.7344 65H50.2656C58.6793 65 65.5 58.1793 65.5 49.7656V15.2344C65.5 6.82066 58.6793 0 50.2656 0Z" fill="#023430"/>
<path d="M43.9619 27.318C41.2864 15.5162 35.7107 12.3744 34.2883 10.1535C33.7014 9.17523 33.1818 8.15818 32.7331 7.10938C32.658 8.15801 32.5198 8.81816 31.6286 9.6134C29.8393 11.2087 22.2399 17.4015 21.6003 30.811C21.0044 43.3139 30.7917 51.0232 32.0846 51.8202C33.0789 52.3095 34.2898 51.8306 34.8806 51.3815C39.5985 48.1437 46.0446 39.5114 43.9669 27.318" fill="#10AA50"/>
<path d="M33.138 45.1626C32.8917 48.2572 32.7152 50.0554 32.0896 51.8238C32.0896 51.8238 32.5002 54.7699 32.7886 57.8907H33.8091C34.0528 55.693 34.4245 53.5115 34.9222 51.3571C33.6011 50.7071 33.1888 47.8781 33.138 45.1626Z" fill="#B8C4C2"/>
<path d="M34.9206 51.3589C33.5855 50.7421 33.1993 47.8534 33.1399 45.1625C33.4699 40.7235 33.5662 36.2702 33.4284 31.821C33.3583 29.4866 33.4614 10.1989 32.8533 7.37494C33.269 8.33151 33.7484 9.25916 34.2881 10.1517C35.7105 12.3744 41.288 15.5162 43.9617 27.318C46.0445 39.4905 39.6333 48.1 34.9206 51.3589Z" fill="#12924F"/>
</svg>
