<svg width="60" height="65" viewBox="0 0 60 65" fill="none" xmlns="http://www.w3.org/2000/svg">
<path d="M27.3385 0.693439C28.9504 -0.229015 31.0496 -0.233275 32.6599 0.693439C40.7611 5.2713 48.8649 9.84162 56.9648 14.4221C58.4886 15.2803 59.5074 16.9758 59.492 18.7313V46.2721C59.5034 48.1003 58.3837 49.8365 56.7764 50.675C48.7017 55.2277 40.631 59.7855 32.5576 64.3382C30.9129 65.2786 28.7715 65.2062 27.1776 64.1884C24.7569 62.7852 22.332 61.3886 19.911 59.9867C19.4162 59.6918 18.8585 59.4572 18.5091 58.9774C18.8181 58.5613 19.3703 58.5095 19.8189 58.3276C20.8292 58.0062 21.7575 57.4904 22.6856 56.99C22.9205 56.8294 23.2069 56.891 23.4321 57.0345C25.5021 58.2214 27.5541 59.4431 29.631 60.6185C30.074 60.8744 30.5227 60.5346 30.9015 60.3236C38.8251 55.845 46.7585 51.3838 54.6811 46.9039C54.9747 46.7627 55.1369 46.4511 55.113 46.1296C55.1186 37.0443 55.1143 27.9578 55.116 18.8722C55.1494 18.5078 54.9383 18.1722 54.6084 18.0228C46.5619 13.4911 38.519 8.95292 30.4738 4.42028C30.3344 4.32452 30.1694 4.27312 30.0002 4.27282C29.8311 4.27253 29.6659 4.32336 29.5261 4.41864C21.4806 8.95292 13.4397 13.4957 5.39423 18.0267C5.06556 18.1765 4.84502 18.5065 4.88402 18.8722C4.88566 27.9578 4.88402 37.0443 4.88402 46.1309C4.86996 46.2879 4.90441 46.4454 4.98269 46.5822C5.06098 46.7189 5.17935 46.8284 5.32181 46.8957C7.46853 48.1131 9.61819 49.322 11.7665 50.5354C12.977 51.1866 14.4628 51.5739 15.7965 51.0748C16.9729 50.6527 17.7977 49.4517 17.7754 48.2026C17.7866 39.1704 17.7699 30.1369 17.7836 21.1057C17.7541 20.7049 18.1346 20.3737 18.5245 20.4117C19.5561 20.4045 20.589 20.3976 21.6206 20.4143C22.0512 20.4045 22.3474 20.8364 22.2943 21.2401C22.29 30.3296 22.3054 39.4191 22.2874 48.5083C22.29 50.931 21.2948 53.5669 19.0541 54.7522C16.2939 56.1819 12.882 55.8788 10.1549 54.5077C7.79425 53.3293 5.54104 51.9386 3.22229 50.6763C1.6107 49.8424 0.496546 48.0994 0.508015 46.2725V18.7313C0.490975 16.9394 1.55073 15.2132 3.12136 14.3674C11.1947 9.81148 19.2668 5.25164 27.3385 0.693439Z" fill="#81CD39"/>
<path d="M34.382 19.7713C37.903 19.5445 41.6725 19.6369 44.8409 21.3717C47.2943 22.7009 48.6543 25.4908 48.6975 28.2162C48.629 28.5836 48.2446 28.7864 47.8937 28.7612C46.8723 28.7599 45.8502 28.7753 44.8288 28.7543C44.3952 28.771 44.1436 28.3716 44.0892 27.9885C43.7956 26.6843 43.0841 25.3929 41.8569 24.7637C39.9727 23.8206 37.7883 23.8681 35.7334 23.8878C34.2338 23.9671 32.6209 24.0972 31.3501 24.979C30.3746 25.6471 30.0784 26.9959 30.4264 28.0822C30.7547 28.8621 31.6549 29.1138 32.3916 29.3458C36.6352 30.4557 41.1318 30.3449 45.2938 31.8055C47.0174 32.4009 48.7031 33.5586 49.2929 35.3629C50.0646 37.7813 49.7265 40.6715 48.0058 42.6128C46.6104 44.2103 44.5784 45.0799 42.5516 45.5522C39.8554 46.1535 37.0572 46.1689 34.319 45.9018C31.7444 45.6082 29.0648 44.9318 27.0774 43.1777C25.3776 41.7018 24.5476 39.402 24.6298 37.1829C24.6495 36.808 25.0227 36.5465 25.3819 36.5773C26.4105 36.5691 27.4395 36.5662 28.4681 36.579C28.879 36.5495 29.1838 36.9047 29.2047 37.292C29.3945 38.5343 29.8614 39.8385 30.9448 40.5748C33.0358 41.9239 35.6596 41.8315 38.0537 41.8692C40.0369 41.7814 42.2636 41.7549 43.8824 40.4438C44.7364 39.696 44.9893 38.4448 44.7587 37.3687C44.5086 36.46 43.558 36.0366 42.7417 35.7597C38.5528 34.4349 34.0058 34.9156 29.8575 33.4171C28.1732 32.822 26.5445 31.6967 25.8977 29.9665C24.9949 27.5176 25.4084 24.4884 27.3094 22.613C29.1628 20.7468 31.8381 20.0282 34.382 19.7713Z" fill="#81CD39"/>
</svg>
